SplineFontDB: 3.0
FontName: Chivo-Italic
FullName: Chivo Italic
FamilyName: Chivo
Weight: Normal
Copyright: Copyright (c) 2011-2014 by Omnibus-Type (www.omnibus-type.com omnibus.type@gmail.com), with Reserved Font Name 'Chivo'
UComments: "Disclaimer+AAoA +AAoA-Omnibus-Type give no warranty in relation to this font, and you use this+AAoA-at your own risk.+AAoA +AAoA-Omnibus-Type shall not be liable for any direct, indirect, consequential, or incidental damages (including damages from loss of business profits, business interruption, loss of business information, and the like) arising out of the use of or inability to use the fonts.+AAoA +AAoA +AAoA-If you have further questions, please contact us:+AAoA-omnibus.type@gmail.com" 

StartChar: .notdef
Encoding: 65536 -1 0
Width: 500
Flags: MW
HStem: 0 50<80 420 80 500> 650 50<80 80 80 420>
VStem: 0 50<95 95 95 605> 450 50<95 605 605 605>
LayerCount: 2
Fore
SplineSet
500 0 m 1
 0 0 l 1
 0 700 l 1
 500 700 l 1
 500 0 l 1
80 650 m 1
 250 395 l 1
 420 650 l 1
 80 650 l 1
50 95 m 1
 220 350 l 1
 50 605 l 1
 50 95 l 1
280 350 m 1
 450 95 l 1
 450 605 l 1
 280 350 l 1
80 50 m 1
 420 50 l 1
 250 305 l 1
 80 50 l 1
EndSplineSet
EndChar

StartChar: A
Encoding: 65 65 1
Width: 650
GlyphClass: 2
Flags: MW
HStem: 149 89<184 443 184 464 136 443> 568 118<357 357 357 363>
VStem: -36 643<0 0>
LayerCount: 2
Fore
SplineSet
607 0 m 1
 501 0 l 1
 464 149 l 1
 136 149 l 1
 58 0 l 1
 -36 0 l 1
 328 686 l 1
 436 686 l 1
 607 0 l 1
357 568 m 1
 184 238 l 1
 443 238 l 1
 363 568 l 1
 357 568 l 1
EndSplineSet
Substitution2: "Single Substitution lookup 5 subtable" ordfeminine
Substitution2: "'aalt' Access All Alternates lookup 0 subtable" ordfeminine
Position2: "'cpsp' Capital Spacing lookup 0 subtable" dx=5 dy=0 dh=10 dv=0
EndChar

StartChar: Aacute
Encoding: 193 193 2
Width: 650
GlyphClass: 2
Flags: MW
HStem: 149 89<184 443 184 464 136 443> 568 118<357 357 357 363> 750 145<350 555 350 555>
VStem: -36 643<0 0>
LayerCount: 2
Fore
SplineSet
555 891 m 1
 419 750 l 1
 350 750 l 1
 465 895 l 1
 555 895 l 1
 555 891 l 1
607 0 m 1
 501 0 l 1
 464 149 l 1
 136 149 l 1
 58 0 l 1
 -36 0 l 1
 328 686 l 1
 436 686 l 1
 607 0 l 1
357 568 m 1
 184 238 l 1
 443 238 l 1
 363 568 l 1
 357 568 l 1
EndSplineSet
Position2: "'cpsp' Capital Spacing lookup 0 subtable" dx=5 dy=0 dh=10 dv=0
EndChar

StartChar: Abreve
Encoding: 258 258 3
Width: 650
GlyphClass: 2
Flags: MW
HStem: 149 89<184 443 184 464 136 443> 568 118<357 357 357 363> 788 62<363.5 425.5 363.5 439>
VStem: -36 643<0 0>
LayerCount: 2
Fore
SplineSet
527 912 m 1
 595 912 l 1
 587 856 493 788 385 788 c 0
 285 788 209 849 209 904 c 0
 209 907 209 910 210 912 c 2
 277 912 l 1
 284 876 332 850 395 850 c 0
 456 850 511 876 527 912 c 1
607 0 m 1
 501 0 l 1
 464 149 l 1
 136 149 l 1
 58 0 l 1
 -36 0 l 1
 328 686 l 1
 436 686 l 1
 607 0 l 1
357 568 m 1
 184 238 l 1
 443 238 l 1
 363 568 l 1
 357 568 l 1
EndSplineSet
EndChar

StartChar: Acircumflex
Encoding: 194 194 4
Width: 650
GlyphClass: 2
Flags: MW
HStem: 149 89<184 443 184 464 136 443> 568 118<357 357 357 363> 750 145<203 438 360 552 360 472>
VStem: -36 643<0 0>
LayerCount: 2
Fore
SplineSet
552 750 m 1
 472 750 l 1
 391 839 l 1
 283 750 l 1
 203 750 l 1
 360 895 l 1
 438 895 l 1
 552 750 l 1
607 0 m 1
 501 0 l 1
 464 149 l 1
 136 149 l 1
 58 0 l 1
 -36 0 l 1
 328 686 l 1
 436 686 l 1
 607 0 l 1
357 568 m 1
 184 238 l 1
 443 238 l 1
 363 568 l 1
 357 568 l 1
EndSplineSet
Position2: "'cpsp' Capital Spacing lookup 0 subtable" dx=5 dy=0 dh=10 dv=0
EndChar

StartChar: Adieresis
Encoding: 196 196 5
Width: 650
GlyphClass: 2
Flags: MW
HStem: 149 89<184 443 184 464 136 443> 568 118<357 357 357 363> 750 98<259 336 246 349 259 434 447 525>
VStem: -36 643<0 0>
LayerCount: 2
Fore
SplineSet
336 750 m 1
 246 750 l 1
 259 848 l 1
 349 848 l 1
 336 750 l 1
525 750 m 1
 434 750 l 1
 447 848 l 1
 538 848 l 1
 525 750 l 1
607 0 m 1
 501 0 l 1
 464 149 l 1
 136 149 l 1
 58 0 l 1
 -36 0 l 1
 328 686 l 1
 436 686 l 1
 607 0 l 1
357 568 m 1
 184 238 l 1
 443 238 l 1
 363 568 l 1
 357 568 l 1
EndSplineSet
Position2: "'cpsp' Capital Spacing lookup 0 subtable" dx=5 dy=0 dh=10 dv=0
EndChar

StartChar: Agrave
Encoding: 192 192 6
Width: 650
GlyphClass: 2
Flags: MW
HStem: 149 89<184 443 184 464 136 443> 568 118<357 357 357 363> 750 145<258 421 258 351>
VStem: -36 643<0 0>
LayerCount: 2
Fore
SplineSet
421 750 m 1
 351 750 l 1
 256 892 l 1
 258 895 l 1
 347 895 l 1
 421 750 l 1
607 0 m 1
 501 0 l 1
 464 149 l 1
 136 149 l 1
 58 0 l 1
 -36 0 l 1
 328 686 l 1
 436 686 l 1
 607 0 l 1
357 568 m 1
 184 238 l 1
 443 238 l 1
 363 568 l 1
 357 568 l 1
EndSplineSet
Position2: "'cpsp' Capital Spacing lookup 0 subtable" dx=5 dy=0 dh=10 dv=0
EndChar

StartChar: Amacron
Encoding: 256 256 7
Width: 650
GlyphClass: 2
Flags: MW
HStem: 149 89<184 443 184 464 136 443> 568 118<357 357 357 363> 837 74<248 555 237 566>
VStem: -36 643<0 0>
LayerCount: 2
Fore
SplineSet
555 837 m 1
 237 837 l 1
 248 911 l 1
 566 911 l 1
 555 837 l 1
607 0 m 1
 501 0 l 1
 464 149 l 1
 136 149 l 1
 58 0 l 1
 -36 0 l 1
 328 686 l 1
 436 686 l 1
 607 0 l 1
357 568 m 1
 184 238 l 1
 443 238 l 1
 363 568 l 1
 357 568 l 1
EndSplineSet
EndChar

StartChar: Aogonek
Encoding: 260 260 8
Width: 650
GlyphClass: 2
Flags: MW
HStem: -143 47<557.5 567.5> 149 89<184 443 184 464 136 443> 568 118<357 363 357 357>
VStem: 464 63<-76.5 -63.5>
LayerCount: 2
Fore
SplineSet
636 -82 m 1
 644 -119 l 1
 615 -135 584 -143 551 -143 c 0
 508 -143 464 -128 464 -83 c 0
 464 -44 497 -19 529 0 c 1
 501 0 l 1
 464 149 l 1
 136 149 l 1
 58 0 l 1
 -36 0 l 1
 328 686 l 1
 436 686 l 1
 607 0 l 1
 583 0 l 1
 558 -11 527 -40 527 -65 c 0
 527 -88 548 -96 567 -96 c 0
 591 -96 613 -89 636 -82 c 1
443 238 m 1
 363 568 l 1
 357 568 l 1
 184 238 l 1
 443 238 l 1
EndSplineSet
EndChar

StartChar: Aring
Encoding: 197 197 9
Width: 650
GlyphClass: 2
Flags: MW
HStem: 149 89<184 443 184 464 136 443> 568 118<357 357 357 363> 720 41<374 405.5 374 415> 881 41<381 413>
VStem: 291 45<801.5 835.5 801.5 846> 451 45<807 840.5>
LayerCount: 2
Fore
SplineSet
400 922 m 0
 456 922 496 883 496 828 c 0
 496 768 443 720 387 720 c 0
 331 720 291 758 291 814 c 0
 291 878 345 922 400 922 c 0
397 881 m 0
 365 881 336 854 336 817 c 0
 336 786 358 761 390 761 c 0
 421 761 451 789 451 825 c 0
 451 856 429 881 397 881 c 0
607 0 m 1
 501 0 l 1
 464 149 l 1
 136 149 l 1
 58 0 l 1
 -36 0 l 1
 328 686 l 1
 436 686 l 1
 607 0 l 1
357 568 m 1
 184 238 l 1
 443 238 l 1
 363 568 l 1
 357 568 l 1
EndSplineSet
Position2: "'cpsp' Capital Spacing lookup 0 subtable" dx=5 dy=0 dh=10 dv=0
EndChar

StartChar: Atilde
Encoding: 195 195 10
Width: 650
GlyphClass: 2
Flags: MW
HStem: 149 89<184 443 184 464 136 443> 568 118<357 357 357 363> 750 69<449.5 491 449.5 498> 784 70<280 322>
VStem: -36 643<0 0>
LayerCount: 2
Fore
SplineSet
536 854 m 1xe8
 586 854 l 1xe8
 578 806 537 750 459 750 c 0
 395 750 349 784 295 784 c 0
 265 784 245 773 235 750 c 1
 187 750 l 1xd8
 195 795 235 854 313 854 c 0
 377 854 423 819 476 819 c 0
 506 819 526 831 536 854 c 1xe8
607 0 m 1
 501 0 l 1
 464 149 l 1
 136 149 l 1
 58 0 l 1
 -36 0 l 1
 328 686 l 1
 436 686 l 1
 607 0 l 1
357 568 m 1
 184 238 l 1
 443 238 l 1
 363 568 l 1
 357 568 l 1
EndSplineSet
Position2: "'cpsp' Capital Spacing lookup 0 subtable" dx=5 dy=0 dh=10 dv=0
EndChar

StartChar: AE
Encoding: 198 198 11
Width: 981
GlyphClass: 2
Flags: MW
HStem: 0 89<598 896 598 896> 149 89<219 478 219 486 158 478> 306 89<574 888 574 574> 597 89<543 961 543 543>
VStem: -33 1020<0 686>
LayerCount: 2
Fore
SplineSet
961 597 m 1
 543 597 l 1
 565 395 l 1
 901 395 l 1
 888 306 l 1
 574 306 l 1
 598 89 l 1
 896 89 l 1
 896 0 l 1
 502 0 l 1
 486 149 l 1
 158 149 l 1
 59 0 l 1
 -33 0 l 1
 426 686 l 1
 987 686 l 1
 961 597 l 1
438 568 m 1
 219 238 l 1
 478 238 l 1
 444 568 l 1
 438 568 l 1
EndSplineSet
Position2: "'cpsp' Capital Spacing lookup 0 subtable" dx=5 dy=0 dh=10 dv=0
EndChar

StartChar: B
Encoding: 66 66 12
Width: 652
GlyphClass: 2
Flags: MW
HStem: 0 89<162 358 358 361> 305 89<192 391 205 388> 597 89<233 233 233 419>
VStem: 482 97<170.5 238.5> 508 101<481 541>
LayerCount: 2
Fore
SplineSet
148 686 m 1xf0
 440 686 l 2
 536 686 609 631 609 540 c 0xe8
 609 422 525 374 466 358 c 1
 465 353 l 1
 507 345 579 314 579 214 c 0
 579 81 478 0 361 0 c 2
 51 0 l 1
 148 686 l 1xf0
233 597 m 1
 205 394 l 1
 391 394 l 2
 451 394 508 447 508 509 c 0
 508 573 470 597 419 597 c 2
 233 597 l 1
192 305 m 1
 162 89 l 1
 358 89 l 2
 423 89 482 129 482 212 c 0
 482 265 444 305 388 305 c 2xf0
 192 305 l 1
EndSplineSet
Position2: "'cpsp' Capital Spacing lookup 0 subtable" dx=5 dy=0 dh=10 dv=0
EndChar

StartChar: C
Encoding: 67 67 13
Width: 662
GlyphClass: 2
Flags: MW
HStem: -10 89<265 362.5 265 380> 607 89<333.5 430.5>
VStem: 57 99<183.5 242.5> 532 99<468.5 515.5>
AnchorPoint: "Bottom" 331 0 basechar 0
LayerCount: 2
Fore
SplineSet
400 696 m 0
 533 696 631 624 631 477 c 0
 631 460 630 442 627 423 c 1
 529 423 l 1
 531 438 532 452 532 466 c 0
 532 565 473 607 388 607 c 0
 279 607 195 544 173 388 c 0
 157 279 156 258 156 241 c 0
 156 126 217 79 313 79 c 0
 412 79 492 134 510 261 c 1
 604 261 l 1
 577 74 459 -10 301 -10 c 0
 156 -10 57 69 57 232 c 0
 57 253 58 275 75 388 c 0
 105 597 225 696 400 696 c 0
EndSplineSet
Position2: "'cpsp' Capital Spacing lookup 0 subtable" dx=5 dy=0 dh=10 dv=0
EndChar

StartChar: Cacute
Encoding: 262 262 14
Width: 662
GlyphClass: 2
Flags: MW
HStem: -10 89<265 362.5 265 380> 607 89<333.5 430.5> 750 145<318 523 318 523>
VStem: 57 99<183.5 242.5> 532 99<468.5 515.5>
AnchorPoint: "Bottom" 331 0 basechar 0
LayerCount: 2
Fore
SplineSet
523 891 m 1
 387 750 l 1
 318 750 l 1
 433 895 l 1
 523 895 l 1
 523 891 l 1
400 696 m 0
 533 696 631 624 631 477 c 0
 631 460 630 442 627 423 c 1
 529 423 l 1
 531 438 532 452 532 466 c 0
 532 565 473 607 388 607 c 0
 279 607 195 544 173 388 c 0
 157 279 156 258 156 241 c 0
 156 126 217 79 313 79 c 0
 412 79 492 134 510 261 c 1
 604 261 l 1
 577 74 459 -10 301 -10 c 0
 156 -10 57 69 57 232 c 0
 57 253 58 275 75 388 c 0
 105 597 225 696 400 696 c 0
EndSplineSet
EndChar

StartChar: Ccaron
Encoding: 268 268 15
Width: 662
GlyphClass: 2
Flags: MW
HStem: -10 89<265 362.5 265 380> 607 89<333.5 430.5> 750 145<226 419 226 341>
VStem: 57 99<183.5 242.5> 532 99<468.5 515.5>
AnchorPoint: "Bottom" 331 0 basechar 0
LayerCount: 2
Fore
SplineSet
419 750 m 1
 341 750 l 1
 226 895 l 1
 306 895 l 1
 388 806 l 1
 495 895 l 1
 575 895 l 1
 419 750 l 1
400 696 m 0
 533 696 631 624 631 477 c 0
 631 460 630 442 627 423 c 1
 529 423 l 1
 531 438 532 452 532 466 c 0
 532 565 473 607 388 607 c 0
 279 607 195 544 173 388 c 0
 157 279 156 258 156 241 c 0
 156 126 217 79 313 79 c 0
 412 79 492 134 510 261 c 1
 604 261 l 1
 577 74 459 -10 301 -10 c 0
 156 -10 57 69 57 232 c 0
 57 253 58 275 75 388 c 0
 105 597 225 696 400 696 c 0
EndSplineSet
EndChar

StartChar: Ccedilla
Encoding: 199 199 16
Width: 662
GlyphClass: 2
Flags: MW
HStem: -197 51<238 273 235.5 277> -60 43<259 274 253 283> -10 89<265 362.5 265 380> 607 89<333.5 430.5>
VStem: 57 99<183.5 242.5> 320 63<-113 -83.5> 532 99<468.5 515.5>
LayerCount: 2
Fore
SplineSet
400 696 m 0
 533 696 631 624 631 477 c 0
 631 460 630 442 627 423 c 1
 529 423 l 1
 531 438 532 452 532 466 c 0
 532 565 473 607 388 607 c 0
 279 607 195 544 173 388 c 0
 157 279 156 258 156 241 c 0
 156 126 217 79 313 79 c 0
 412 79 492 134 510 261 c 1
 604 261 l 1
 577 74 459 -10 301 -10 c 0
 156 -10 57 69 57 232 c 0
 57 253 58 275 75 388 c 0
 105 597 225 696 400 696 c 0
259 -17 m 1xde
 283 -17 l 2
 334 -17 383 -32 383 -90 c 0
 383 -176 300 -197 254 -197 c 0
 222 -197 187 -190 162 -175 c 1
 178 -126 l 1
 187 -131 214 -146 257 -146 c 0
 289 -146 320 -131 320 -95 c 0
 320 -72 301 -60 274 -60 c 2
 253 -60 l 1
 259 -17 l 1xde
EndSplineSet
Position2: "'cpsp' Capital Spacing lookup 0 subtable" dx=5 dy=0 dh=10 dv=0
EndChar

StartChar: D
Encoding: 68 68 17
Width: 677
GlyphClass: 2
Flags: MW
HStem: 0 89<162 289> 597 89<233 233 233 373>
VStem: 532 99<431.5 490>
LayerCount: 2
Fore
SplineSet
148 686 m 1
 386 686 l 2
 526 686 631 607 631 442 c 0
 631 421 629 402 618 308 c 0
 593 99 470 0 289 0 c 2
 51 0 l 1
 148 686 l 1
233 597 m 1
 162 89 l 1
 302 89 l 2
 408 89 498 152 519 308 c 0
 530 397 532 415 532 432 c 0
 532 548 467 597 373 597 c 2
 233 597 l 1
EndSplineSet
Position2: "'cpsp' Capital Spacing lookup 0 subtable" dx=5 dy=0 dh=10 dv=0
EndChar

StartChar: Eth
Encoding: 208 208 18
Width: 682
GlyphClass: 2
Flags: MW
HStem: 0 89<167 294> 310 65<18 100 10 109 207 343> 597 89<238 238 238 378>
VStem: 537 99<431.5 490>
LayerCount: 2
Fore
SplineSet
153 686 m 1
 391 686 l 2
 531 686 636 607 636 442 c 0
 636 421 634 402 623 308 c 0
 598 99 475 0 294 0 c 2
 56 0 l 1
 100 310 l 1
 10 310 l 1
 18 375 l 1
 109 375 l 1
 153 686 l 1
238 597 m 1
 207 375 l 1
 352 375 l 1
 343 310 l 1
 198 310 l 1
 167 89 l 1
 307 89 l 2
 413 89 503 152 524 308 c 0
 535 397 537 415 537 432 c 0
 537 548 472 597 378 597 c 2
 238 597 l 1
EndSplineSet
Position2: "'cpsp' Capital Spacing lookup 0 subtable" dx=5 dy=0 dh=10 dv=0
EndChar

StartChar: Dcaron
Encoding: 270 270 19
Width: 677
GlyphClass: 2
Flags: MW
HStem: 0 89<162 289> 597 89<233 233 233 373> 750 145<184 377 184 299>
VStem: 532 99<431.5 490>
LayerCount: 2
Fore
SplineSet
377 750 m 1
 299 750 l 1
 184 895 l 1
 264 895 l 1
 346 806 l 1
 453 895 l 1
 533 895 l 1
 377 750 l 1
148 686 m 1
 386 686 l 2
 526 686 631 607 631 442 c 0
 631 421 629 402 618 308 c 0
 593 99 470 0 289 0 c 2
 51 0 l 1
 148 686 l 1
233 597 m 1
 162 89 l 1
 302 89 l 2
 408 89 498 152 519 308 c 0
 530 397 532 415 532 432 c 0
 532 548 467 597 373 597 c 2
 233 597 l 1
EndSplineSet
EndChar

StartChar: Dcroat
Encoding: 272 272 20
Width: 682
GlyphClass: 2
Flags: MW
HStem: 0 89<167 294> 310 65<18 100 10 109 207 343> 597 89<238 238 238 378>
VStem: 537 99<431.5 490>
LayerCount: 2
Fore
SplineSet
153 686 m 1
 391 686 l 2
 531 686 636 607 636 442 c 0
 636 421 634 402 623 308 c 0
 598 99 475 0 294 0 c 2
 56 0 l 1
 100 310 l 1
 10 310 l 1
 18 375 l 1
 109 375 l 1
 153 686 l 1
238 597 m 1
 207 375 l 1
 352 375 l 1
 343 310 l 1
 198 310 l 1
 167 89 l 1
 307 89 l 2
 413 89 503 152 524 308 c 0
 535 397 537 415 537 432 c 0
 537 548 472 597 378 597 c 2
 238 597 l 1
EndSplineSet
EndChar

StartChar: E
Encoding: 69 69 21
Width: 592
GlyphClass: 2
Flags: MW
HStem: 0 89<162 507 162 507> 306 89<205 499 192 512> 597 89<233 572 233 233>
VStem: 51 547
AnchorPoint: "Bottom" 296 0 basechar 0
LayerCount: 2
Fore
SplineSet
572 597 m 1
 233 597 l 1
 205 395 l 1
 512 395 l 1
 499 306 l 1
 192 306 l 1
 162 89 l 1
 507 89 l 1
 507 0 l 1
 51 0 l 1
 148 686 l 1
 598 686 l 1
 572 597 l 1
EndSplineSet
Position2: "'cpsp' Capital Spacing lookup 0 subtable" dx=5 dy=0 dh=10 dv=0
EndChar

StartChar: Eacute
Encoding: 201 201 22
Width: 592
GlyphClass: 2
Flags: MW
HStem: 0 89<162 507 162 507> 306 89<205 499 192 512> 597 89<233 572 233 233> 750 145<333 538 333 538>
VStem: 51 547
LayerCount: 2
Fore
SplineSet
538 891 m 1
 402 750 l 1
 333 750 l 1
 448 895 l 1
 538 895 l 1
 538 891 l 1
572 597 m 1
 233 597 l 1
 205 395 l 1
 512 395 l 1
 499 306 l 1
 192 306 l 1
 162 89 l 1
 507 89 l 1
 507 0 l 1
 51 0 l 1
 148 686 l 1
 598 686 l 1
 572 597 l 1
EndSplineSet
Position2: "'cpsp' Capital Spacing lookup 0 subtable" dx=5 dy=0 dh=10 dv=0
EndChar

StartChar: Ecaron
Encoding: 282 282 23
Width: 592
GlyphClass: 2
Flags: MW
HStem: 0 89<162 507 162 507> 306 89<205 499 192 512> 597 89<233 572 233 233> 750 145<201 394 201 316>
VStem: 51 547
AnchorPoint: "Bottom" 296 0 basechar 0
LayerCount: 2
Fore
SplineSet
394 750 m 1
 316 750 l 1
 201 895 l 1
 281 895 l 1
 363 806 l 1
 470 895 l 1
 550 895 l 1
 394 750 l 1
572 597 m 1
 233 597 l 1
 205 395 l 1
 512 395 l 1
 499 306 l 1
 192 306 l 1
 162 89 l 1
 507 89 l 1
 507 0 l 1
 51 0 l 1
 148 686 l 1
 598 686 l 1
 572 597 l 1
EndSplineSet
EndChar

StartChar: Ecircumflex
Encoding: 202 202 24
Width: 592
GlyphClass: 2
Flags: MW
HStem: 0 89<162 507 162 507> 306 89<205 499 192 512> 597 89<233 572 233 233> 750 145<205 440 362 554 362 474>
VStem: 51 547
LayerCount: 2
Fore
SplineSet
554 750 m 1
 474 750 l 1
 393 839 l 1
 285 750 l 1
 205 750 l 1
 362 895 l 1
 440 895 l 1
 554 750 l 1
572 597 m 1
 233 597 l 1
 205 395 l 1
 512 395 l 1
 499 306 l 1
 192 306 l 1
 162 89 l 1
 507 89 l 1
 507 0 l 1
 51 0 l 1
 148 686 l 1
 598 686 l 1
 572 597 l 1
EndSplineSet
Position2: "'cpsp' Capital Spacing lookup 0 subtable" dx=5 dy=0 dh=10 dv=0
EndChar

StartChar: Edieresis
Encoding: 203 203 25
Width: 592
GlyphClass: 2
Flags: MW
HStem: 0 89<162 507 162 507> 306 89<205 499 192 512> 597 89<233 572 233 233> 750 98<250 327 237 340 250 425 438 516>
VStem: 51 547
LayerCount: 2
Fore
SplineSet
327 750 m 1
 237 750 l 1
 250 848 l 1
 340 848 l 1
 327 750 l 1
516 750 m 1
 425 750 l 1
 438 848 l 1
 529 848 l 1
 516 750 l 1
572 597 m 1
 233 597 l 1
 205 395 l 1
 512 395 l 1
 499 306 l 1
 192 306 l 1
 162 89 l 1
 507 89 l 1
 507 0 l 1
 51 0 l 1
 148 686 l 1
 598 686 l 1
 572 597 l 1
EndSplineSet
Position2: "'cpsp' Capital Spacing lookup 0 subtable" dx=5 dy=0 dh=10 dv=0
EndChar

StartChar: Edotaccent
Encoding: 278 278 26
Width: 592
GlyphClass: 2
Flags: MW
HStem: 0 89<162 507 162 507> 306 89<205 499 192 512> 597 89<233 572 233 233> 779 132<360.5 386.5>
VStem: 309 133<832.5 854.5>
AnchorPoint: "Bottom" 296 0 basechar 0
LayerCount: 2
Fore
SplineSet
384 911 m 0
 419 911 442 885 442 852 c 0
 442 813 409 779 364 779 c 0
 333 779 309 802 309 833 c 0
 309 876 337 911 384 911 c 0
572 597 m 1
 233 597 l 1
 205 395 l 1
 512 395 l 1
 499 306 l 1
 192 306 l 1
 162 89 l 1
 507 89 l 1
 507 0 l 1
 51 0 l 1
 148 686 l 1
 598 686 l 1
 572 597 l 1
EndSplineSet
EndChar

StartChar: Egrave
Encoding: 200 200 27
Width: 592
GlyphClass: 2
Flags: MW
HStem: 0 89<162 507 162 507> 306 89<205 499 192 512> 597 89<233 572 233 233> 750 145<258 421 258 351>
VStem: 51 547
LayerCount: 2
Fore
SplineSet
421 750 m 1
 351 750 l 1
 256 892 l 1
 258 895 l 1
 347 895 l 1
 421 750 l 1
572 597 m 1
 233 597 l 1
 205 395 l 1
 512 395 l 1
 499 306 l 1
 192 306 l 1
 162 89 l 1
 507 89 l 1
 507 0 l 1
 51 0 l 1
 148 686 l 1
 598 686 l 1
 572 597 l 1
EndSplineSet
Position2: "'cpsp' Capital Spacing lookup 0 subtable" dx=5 dy=0 dh=10 dv=0
EndChar

StartChar: Emacron
Encoding: 274 274 28
Width: 592
GlyphClass: 2
Flags: MW
HStem: 0 89<162 507 162 507> 306 89<205 499 192 512> 597 89<233 572 233 233> 837 74<222 529 211 540>
VStem: 51 547
AnchorPoint: "Bottom" 296 0 basechar 0
LayerCount: 2
Fore
SplineSet
529 837 m 1
 211 837 l 1
 222 911 l 1
 540 911 l 1
 529 837 l 1
572 597 m 1
 233 597 l 1
 205 395 l 1
 512 395 l 1
 499 306 l 1
 192 306 l 1
 162 89 l 1
 507 89 l 1
 507 0 l 1
 51 0 l 1
 148 686 l 1
 598 686 l 1
 572 597 l 1
EndSplineSet
EndChar

StartChar: Eogonek
Encoding: 280 280 29
Width: 592
GlyphClass: 2
Flags: MW
HStem: -143 47<475.5 485.5> 0 89<162 447 501 507 501 501> 306 89<205 499 192 512> 597 89<233 233 233 572>
VStem: 382 63<-76.5 -63.5> 447 60<0 89>
AnchorPoint: "Bottom" 296 0 basechar 0
LayerCount: 2
Fore
SplineSet
233 597 m 1
 205 395 l 1
 512 395 l 1
 499 306 l 1
 192 306 l 1
 162 89 l 1
 507 89 l 1x74
 507 0 l 1
 501 0 l 1
 476 -11 445 -40 445 -65 c 0
 445 -88 466 -96 485 -96 c 0
 509 -96 531 -89 554 -82 c 1
 562 -119 l 1
 533 -135 502 -143 469 -143 c 0
 426 -143 382 -128 382 -83 c 0xf8
 382 -44 415 -19 447 0 c 1x74
 51 0 l 1
 148 686 l 1
 598 686 l 1
 572 597 l 1
 233 597 l 1
EndSplineSet
EndChar

StartChar: F
Encoding: 70 70 30
Width: 552
GlyphClass: 2
Flags: MW
HStem: 299 89<204 471 191 484> 597 89<233 554 233 233>
VStem: 51 529
LayerCount: 2
Fore
SplineSet
554 597 m 1
 233 597 l 1
 204 388 l 1
 484 388 l 1
 471 299 l 1
 191 299 l 1
 149 0 l 1
 51 0 l 1
 148 686 l 1
 580 686 l 1
 554 597 l 1
EndSplineSet
Position2: "'cpsp' Capital Spacing lookup 0 subtable" dx=5 dy=0 dh=10 dv=0
EndChar

StartChar: G
Encoding: 71 71 31
Width: 675
GlyphClass: 2
Flags: MW
HStem: -10 89<265 341.5> 274 88<326 508 314 616> 607 89<333.5 429.5>
VStem: 57 99<183.5 242.5> 505 66 532 99<481.5 523.5>
AnchorPoint: "Bottom" 338 0 basechar 0
LayerCount: 2
Fore
SplineSet
400 696 m 0xf4
 530 696 631 627 631 489 c 0
 631 474 630 460 628 445 c 1
 530 445 l 1
 531 456 532 467 532 478 c 0xf4
 532 569 471 607 388 607 c 0
 279 607 195 544 173 388 c 0
 157 279 156 258 156 241 c 0
 156 126 217 79 313 79 c 0
 429 79 486 133 506 261 c 2
 508 274 l 1
 314 274 l 1
 326 362 l 1
 616 362 l 1
 583 128 l 2
 572 66 571 25 571 0 c 1
 513 0 l 1
 510 8 506 35 505 82 c 1xf8
 453 21 382 -10 301 -10 c 0
 156 -10 57 69 57 232 c 0
 57 253 58 275 75 388 c 0
 105 597 221 696 400 696 c 0xf4
EndSplineSet
Position2: "'cpsp' Capital Spacing lookup 0 subtable" dx=5 dy=0 dh=10 dv=0
EndChar

StartChar: Gbreve
Encoding: 286 286 32
Width: 675
GlyphClass: 2
Flags: MW
HStem: -10 89<265 341.5> 274 88<326 508 314 616> 607 89<333.5 429.5> 788 62<369.5 431.5 369.5 445>
VStem: 57 99<183.5 242.5> 505 66 532 99<481.5 523.5>
AnchorPoint: "Bottom" 338 0 basechar 0
LayerCount: 2
Fore
SplineSet
533 912 m 1xfa
 601 912 l 1
 593 856 499 788 391 788 c 0
 291 788 215 849 215 904 c 0
 215 907 215 910 216 912 c 2
 283 912 l 1
 290 876 338 850 401 850 c 0
 462 850 517 876 533 912 c 1xfa
400 696 m 0
 530 696 631 627 631 489 c 0
 631 474 630 460 628 445 c 1
 530 445 l 1
 531 456 532 467 532 478 c 0xfa
 532 569 471 607 388 607 c 0
 279 607 195 544 173 388 c 0
 157 279 156 258 156 241 c 0
 156 126 217 79 313 79 c 0
 429 79 486 133 506 261 c 2
 508 274 l 1
 314 274 l 1
 326 362 l 1
 616 362 l 1
 583 128 l 2
 572 66 571 25 571 0 c 1
 513 0 l 1
 510 8 506 35 505 82 c 1xfc
 453 21 382 -10 301 -10 c 0
 156 -10 57 69 57 232 c 0
 57 253 58 275 75 388 c 0
 105 597 221 696 400 696 c 0
EndSplineSet
EndChar

StartChar: Gcommaaccent
Encoding: 290 290 33
Width: 675
GlyphClass: 2
Flags: MW
HStem: -151 111<281 306 265 382> -10 89<265 341.5> 274 88<326 508 314 616> 607 89<333.5 429.5>
VStem: 57 99<183.5 242.5> 505 66 532 99<481.5 523.5>
AnchorPoint: "Bottom" 338 0 basechar 0
LayerCount: 2
Fore
SplineSet
400 696 m 0x7a
 530 696 631 627 631 489 c 0
 631 474 630 460 628 445 c 1
 530 445 l 1
 531 456 532 467 532 478 c 0x7a
 532 569 471 607 388 607 c 0
 279 607 195 544 173 388 c 0
 157 279 156 258 156 241 c 0
 156 126 217 79 313 79 c 0
 429 79 486 133 506 261 c 2
 508 274 l 1
 314 274 l 1
 326 362 l 1
 616 362 l 1
 583 128 l 2
 572 66 571 25 571 0 c 1
 513 0 l 1
 510 8 506 35 505 82 c 1x7c
 453 21 382 -10 301 -10 c 0
 156 -10 57 69 57 232 c 0
 57 253 58 275 75 388 c 0
 105 597 221 696 400 696 c 0x7a
370 -125 m 1xfa
 323 -250 l 1
 270 -250 l 1
 306 -151 l 1
 265 -151 l 1
 281 -40 l 1
 382 -40 l 1
 370 -125 l 1xfa
EndSplineSet
EndChar

StartChar: H
Encoding: 72 72 34
Width: 693
GlyphClass: 2
Flags: MW
HStem: 306 89<205 505 192 518> 666 20G<148 246 246 246 559 657 657 657>
VStem: 51 606
LayerCount: 2
Fore
SplineSet
560 0 m 1
 462 0 l 1
 505 306 l 1
 192 306 l 1
 149 0 l 1
 51 0 l 1
 148 686 l 1
 246 686 l 1
 205 395 l 1
 518 395 l 1
 559 686 l 1
 657 686 l 1
 560 0 l 1
EndSplineSet
Position2: "'cpsp' Capital Spacing lookup 0 subtable" dx=5 dy=0 dh=10 dv=0
EndChar

StartChar: I
Encoding: 73 73 35
Width: 365
GlyphClass: 2
Flags: MW
HStem: 0 89<25 105 203 270 12 105> 597 89<109 176 96 367 274 354 274 274>
VStem: 12 355
LayerCount: 2
Fore
SplineSet
354 597 m 1
 274 597 l 1
 203 89 l 1
 283 89 l 1
 270 0 l 1
 12 0 l 1
 25 89 l 1
 105 89 l 1
 176 597 l 1
 96 597 l 1
 109 686 l 1
 367 686 l 1
 354 597 l 1
EndSplineSet
Position2: "'cpsp' Capital Spacing lookup 0 subtable" dx=5 dy=0 dh=10 dv=0
EndChar

StartChar: Iacute
Encoding: 205 205 36
Width: 365
GlyphClass: 2
Flags: MW
HStem: 0 89<25 105 203 270 12 105> 597 89<109 176 96 367 274 354 274 274> 750 145<202 407 202 407>
VStem: 12 395
LayerCount: 2
Fore
SplineSet
407 891 m 1
 271 750 l 1
 202 750 l 1
 317 895 l 1
 407 895 l 1
 407 891 l 1
354 597 m 1
 274 597 l 1
 203 89 l 1
 283 89 l 1
 270 0 l 1
 12 0 l 1
 25 89 l 1
 105 89 l 1
 176 597 l 1
 96 597 l 1
 109 686 l 1
 367 686 l 1
 354 597 l 1
EndSplineSet
Position2: "'cpsp' Capital Spacing lookup 0 subtable" dx=5 dy=0 dh=10 dv=0
EndChar

StartChar: Icircumflex
Encoding: 206 206 37
Width: 365
GlyphClass: 2
Flags: MW
HStem: 0 89<25 105 203 270 12 105> 597 89<109 176 96 367 274 354 274 274> 750 145<71 306 228 420 228 340>
VStem: 12 408
LayerCount: 2
Fore
SplineSet
420 750 m 1
 340 750 l 1
 259 839 l 1
 151 750 l 1
 71 750 l 1
 228 895 l 1
 306 895 l 1
 420 750 l 1
354 597 m 1
 274 597 l 1
 203 89 l 1
 283 89 l 1
 270 0 l 1
 12 0 l 1
 25 89 l 1
 105 89 l 1
 176 597 l 1
 96 597 l 1
 109 686 l 1
 367 686 l 1
 354 597 l 1
EndSplineSet
Position2: "'cpsp' Capital Spacing lookup 0 subtable" dx=5 dy=0 dh=10 dv=0
EndChar

StartChar: Idieresis
Encoding: 207 207 38
Width: 365
GlyphClass: 2
Flags: MW
HStem: 0 89<25 105 203 270 12 105> 597 89<109 176 96 367 274 354 274 274> 750 98<120 197 107 210 120 295 308 386>
VStem: 12 387
LayerCount: 2
Fore
SplineSet
197 750 m 1
 107 750 l 1
 120 848 l 1
 210 848 l 1
 197 750 l 1
386 750 m 1
 295 750 l 1
 308 848 l 1
 399 848 l 1
 386 750 l 1
354 597 m 1
 274 597 l 1
 203 89 l 1
 283 89 l 1
 270 0 l 1
 12 0 l 1
 25 89 l 1
 105 89 l 1
 176 597 l 1
 96 597 l 1
 109 686 l 1
 367 686 l 1
 354 597 l 1
EndSplineSet
Position2: "'cpsp' Capital Spacing lookup 0 subtable" dx=5 dy=0 dh=10 dv=0
EndChar

StartChar: Idotaccent
Encoding: 304 304 39
Width: 365
GlyphClass: 2
Flags: MW
HStem: 0 89<25 105 203 270 12 105> 597 89<109 176 96 367 274 354 274 274> 779 132<242.5 268.5>
VStem: 191 133<832.5 854.5>
LayerCount: 2
Fore
SplineSet
266 911 m 0
 301 911 324 885 324 852 c 0
 324 813 291 779 246 779 c 0
 215 779 191 802 191 833 c 0
 191 876 219 911 266 911 c 0
354 597 m 1
 274 597 l 1
 203 89 l 1
 283 89 l 1
 270 0 l 1
 12 0 l 1
 25 89 l 1
 105 89 l 1
 176 597 l 1
 96 597 l 1
 109 686 l 1
 367 686 l 1
 354 597 l 1
EndSplineSet
EndChar

StartChar: Igrave
Encoding: 204 204 40
Width: 365
GlyphClass: 2
Flags: MW
HStem: 0 89<25 105 203 270 12 105> 597 89<109 176 96 367 274 354 274 274> 750 145<110 273 110 203>
VStem: 12 355
LayerCount: 2
Fore
SplineSet
273 750 m 1
 203 750 l 1
 108 892 l 1
 110 895 l 1
 199 895 l 1
 273 750 l 1
354 597 m 1
 274 597 l 1
 203 89 l 1
 283 89 l 1
 270 0 l 1
 12 0 l 1
 25 89 l 1
 105 89 l 1
 176 597 l 1
 96 597 l 1
 109 686 l 1
 367 686 l 1
 354 597 l 1
EndSplineSet
Position2: "'cpsp' Capital Spacing lookup 0 subtable" dx=5 dy=0 dh=10 dv=0
EndChar

StartChar: Imacron
Encoding: 298 298 41
Width: 365
GlyphClass: 2
Flags: MW
HStem: 0 89<25 105 203 270 12 105> 597 89<109 176 96 367 274 354 274 274> 837 74<104 411 93 422>
VStem: 12 410
LayerCount: 2
Fore
SplineSet
411 837 m 1
 93 837 l 1
 104 911 l 1
 422 911 l 1
 411 837 l 1
354 597 m 1
 274 597 l 1
 203 89 l 1
 283 89 l 1
 270 0 l 1
 12 0 l 1
 25 89 l 1
 105 89 l 1
 176 597 l 1
 96 597 l 1
 109 686 l 1
 367 686 l 1
 354 597 l 1
EndSplineSet
EndChar

StartChar: Iogonek
Encoding: 302 302 42
Width: 365
GlyphClass: 2
Flags: MW
HStem: -143 47<230.5 240.5> 0 89<25 105 25 202 12 105 256 270 256 256> 597 89<109 176 96 367 274 354 274 274>
VStem: 137 63<-76.5 -63.5>
LayerCount: 2
Fore
SplineSet
274 597 m 1
 203 89 l 1
 283 89 l 1
 270 0 l 1
 256 0 l 1
 231 -11 200 -40 200 -65 c 0
 200 -88 221 -96 240 -96 c 0
 264 -96 286 -89 309 -82 c 1
 317 -119 l 1
 288 -135 257 -143 224 -143 c 0
 181 -143 137 -128 137 -83 c 0
 137 -44 170 -19 202 0 c 1
 12 0 l 1
 25 89 l 1
 105 89 l 1
 176 597 l 1
 96 597 l 1
 109 686 l 1
 367 686 l 1
 354 597 l 1
 274 597 l 1
EndSplineSet
EndChar

StartChar: J
Encoding: 74 74 43
Width: 525
GlyphClass: 2
Flags: MW
HStem: -10 89<173 183 183 192> 666 20G<394 492 492 492>
VStem: 10 98<140 155>
LayerCount: 2
Fore
SplineSet
492 686 m 1
 422 187 l 2
 403 55 320 -10 192 -10 c 2
 183 -10 l 2
 93 -10 10 43 10 149 c 0
 10 161 9 176 16 208 c 1
 113 208 l 1
 108 185 108 171 108 166 c 0
 108 114 147 79 199 79 c 0
 266 79 314 118 323 181 c 2
 394 686 l 1
 492 686 l 1
EndSplineSet
Position2: "'cpsp' Capital Spacing lookup 0 subtable" dx=5 dy=0 dh=10 dv=0
EndChar

StartChar: K
Encoding: 75 75 44
Width: 621
GlyphClass: 2
Flags: MW
HStem: 666 20G<148 246 246 246 544 657 657 657>
VStem: 51 606
AnchorPoint: "Bottom" 311 0 basechar 0
LayerCount: 2
Fore
SplineSet
362 383 m 1
 568 0 l 1
 454 0 l 1
 290 308 l 1
 178 206 l 1
 149 0 l 1
 51 0 l 1
 148 686 l 1
 246 686 l 1
 196 329 l 1
 544 686 l 1
 657 686 l 1
 362 383 l 1
EndSplineSet
Position2: "'cpsp' Capital Spacing lookup 0 subtable" dx=5 dy=0 dh=10 dv=0
EndChar

StartChar: Kcommaaccent
Encoding: 310 310 45
Width: 621
GlyphClass: 2
Flags: MW
HStem: -151 111<254 279 238 355> 666 20G<148 246 246 246 544 657 657 657>
VStem: 51 606
AnchorPoint: "Bottom" 311 0 basechar 0
LayerCount: 2
Fore
SplineSet
362 383 m 1
 568 0 l 1
 454 0 l 1
 290 308 l 1
 178 206 l 1
 149 0 l 1
 51 0 l 1
 148 686 l 1
 246 686 l 1
 196 329 l 1
 544 686 l 1
 657 686 l 1
 362 383 l 1
343 -125 m 1
 296 -250 l 1
 243 -250 l 1
 279 -151 l 1
 238 -151 l 1
 254 -40 l 1
 355 -40 l 1
 343 -125 l 1
EndSplineSet
EndChar

StartChar: L
Encoding: 76 76 46
Width: 532
GlyphClass: 2
Flags: MW
HStem: 0 89<162 477 162 477> 666 20G<148 246 246 246>
VStem: 51 426<0 89>
AnchorPoint: "Bottom" 266 0 basechar 0
LayerCount: 2
Fore
SplineSet
162 89 m 1
 477 89 l 1
 477 0 l 1
 51 0 l 1
 148 686 l 1
 246 686 l 1
 162 89 l 1
EndSplineSet
Position2: "'cpsp' Capital Spacing lookup 0 subtable" dx=5 dy=0 dh=10 dv=0
EndChar

StartChar: Lacute
Encoding: 313 313 47
Width: 532
GlyphClass: 2
Flags: MW
HStem: 0 89<162 477 162 477> 666 20G<148 246 246 246> 750 145<134 339 134 339>
VStem: 51 426<0 89>
AnchorPoint: "Bottom" 266 0 basechar 0
LayerCount: 2
Fore
SplineSet
339 891 m 1
 203 750 l 1
 134 750 l 1
 249 895 l 1
 339 895 l 1
 339 891 l 1
162 89 m 1
 477 89 l 1
 477 0 l 1
 51 0 l 1
 148 686 l 1
 246 686 l 1
 162 89 l 1
EndSplineSet
EndChar

StartChar: Lcaron
Encoding: 317 317 48
Width: 532
GlyphClass: 2
Flags: MW
HStem: 0 89<162 477 162 477> 575 111<466 491>
VStem: 51 516
AnchorPoint: "Bottom" 266 0 basechar 0
LayerCount: 2
Fore
SplineSet
162 89 m 1
 477 89 l 1
 477 0 l 1
 51 0 l 1
 148 686 l 1
 246 686 l 1
 162 89 l 1
555 601 m 1
 499 451 l 1
 447 451 l 1
 491 575 l 1
 450 575 l 1
 466 686 l 1
 567 686 l 1
 555 601 l 1
EndSplineSet
EndChar

StartChar: Lcommaaccent
Encoding: 315 315 49
Width: 532
GlyphClass: 2
Flags: MW
HStem: -151 111<209 234 193 310> 0 89<162 477 162 477> 666 20G<148 246 246 246>
VStem: 51 426<0 89>
AnchorPoint: "Bottom" 266 0 basechar 0
LayerCount: 2
Fore
SplineSet
162 89 m 1
 477 89 l 1
 477 0 l 1
 51 0 l 1
 148 686 l 1
 246 686 l 1
 162 89 l 1
298 -125 m 1
 251 -250 l 1
 198 -250 l 1
 234 -151 l 1
 193 -151 l 1
 209 -40 l 1
 310 -40 l 1
 298 -125 l 1
EndSplineSet
EndChar

StartChar: Lslash
Encoding: 321 321 50
Width: 534
GlyphClass: 2
Flags: MW
HStem: 0 89<165 480 165 480> 497 20G<364 364> 666 20G<151 249 249 249>
VStem: 33 447<0 293>
LayerCount: 2
Fore
SplineSet
215 445 m 1
 364 517 l 1
 354 446 l 1
 205 374 l 1
 165 89 l 1
 480 89 l 1
 480 0 l 1
 54 0 l 1
 100 324 l 1
 33 293 l 1
 43 364 l 1
 110 395 l 1
 151 686 l 1
 249 686 l 1
 215 445 l 1
EndSplineSet
Position2: "'cpsp' Capital Spacing lookup 0 subtable" dx=5 dy=0 dh=10 dv=0
EndChar

StartChar: M
Encoding: 77 77 51
Width: 938
GlyphClass: 2
Flags: MW
HStem: 0 146<447 451 447 464 381 451> 571 115<221 226 221 221 782 788 782 782>
VStem: 51 851<0 686>
LayerCount: 2
Fore
SplineSet
805 0 m 1
 707 0 l 1
 788 571 l 1
 782 571 l 1
 464 0 l 1
 381 0 l 1
 226 571 l 1
 221 571 l 1
 140 0 l 1
 51 0 l 1
 148 686 l 1
 302 686 l 1
 447 146 l 1
 451 146 l 1
 749 686 l 1
 902 686 l 1
 805 0 l 1
EndSplineSet
Position2: "'cpsp' Capital Spacing lookup 0 subtable" dx=5 dy=0 dh=10 dv=0
EndChar

StartChar: N
Encoding: 78 78 52
Width: 694
GlyphClass: 2
Flags: MW
HStem: 666 20G<148 234 234 234 569 658 658 658>
VStem: 51 607
AnchorPoint: "Bottom" 347 0 basechar 0
LayerCount: 2
Fore
SplineSet
561 0 m 1
 478 0 l 1
 214 502 l 1
 211 501 l 1
 140 0 l 1
 51 0 l 1
 148 686 l 1
 234 686 l 1
 496 190 l 1
 499 191 l 1
 569 686 l 1
 658 686 l 1
 561 0 l 1
EndSplineSet
Position2: "'cpsp' Capital Spacing lookup 0 subtable" dx=5 dy=0 dh=10 dv=0
EndChar

StartChar: Nacute
Encoding: 323 323 53
Width: 694
GlyphClass: 2
Flags: MW
HStem: 666 20G<148 234 234 234 569 658 658 658> 750 145<354 559 354 559>
VStem: 51 607
AnchorPoint: "Bottom" 347 0 basechar 0
LayerCount: 2
Fore
SplineSet
559 891 m 1
 423 750 l 1
 354 750 l 1
 469 895 l 1
 559 895 l 1
 559 891 l 1
561 0 m 1
 478 0 l 1
 214 502 l 1
 211 501 l 1
 140 0 l 1
 51 0 l 1
 148 686 l 1
 234 686 l 1
 496 190 l 1
 499 191 l 1
 569 686 l 1
 658 686 l 1
 561 0 l 1
EndSplineSet
EndChar

StartChar: Ncaron
Encoding: 327 327 54
Width: 694
GlyphClass: 2
Flags: MW
HStem: 666 20G<148 234 234 234 569 658 658 658> 750 145<262 455 262 377>
VStem: 51 607
AnchorPoint: "Bottom" 347 0 basechar 0
LayerCount: 2
Fore
SplineSet
455 750 m 1
 377 750 l 1
 262 895 l 1
 342 895 l 1
 424 806 l 1
 531 895 l 1
 611 895 l 1
 455 750 l 1
561 0 m 1
 478 0 l 1
 214 502 l 1
 211 501 l 1
 140 0 l 1
 51 0 l 1
 148 686 l 1
 234 686 l 1
 496 190 l 1
 499 191 l 1
 569 686 l 1
 658 686 l 1
 561 0 l 1
EndSplineSet
EndChar

StartChar: Ncommaaccent
Encoding: 325 325 55
Width: 694
GlyphClass: 2
Flags: MW
HStem: -151 111<290 315 274 391> 666 20G<148 234 234 234 569 658 658 658>
VStem: 51 607
AnchorPoint: "Bottom" 347 0 basechar 0
LayerCount: 2
Fore
SplineSet
561 0 m 1
 478 0 l 1
 214 502 l 1
 211 501 l 1
 140 0 l 1
 51 0 l 1
 148 686 l 1
 234 686 l 1
 496 190 l 1
 499 191 l 1
 569 686 l 1
 658 686 l 1
 561 0 l 1
379 -125 m 1
 332 -250 l 1
 279 -250 l 1
 315 -151 l 1
 274 -151 l 1
 290 -40 l 1
 391 -40 l 1
 379 -125 l 1
EndSplineSet
EndChar

StartChar: Ntilde
Encoding: 209 209 56
Width: 694
GlyphClass: 2
Flags: MW
HStem: 666 20G<148 234 234 234 569 658 658 658> 750 69<484.5 526 484.5 533> 784 70<315 357>
VStem: 51 607
LayerCount: 2
Fore
SplineSet
571 854 m 1xd0
 621 854 l 1xd0
 613 806 572 750 494 750 c 0
 430 750 384 784 330 784 c 0
 300 784 280 773 270 750 c 1
 222 750 l 1xb0
 230 795 270 854 348 854 c 0
 412 854 458 819 511 819 c 0
 541 819 561 831 571 854 c 1xd0
561 0 m 1
 478 0 l 1
 214 502 l 1
 211 501 l 1
 140 0 l 1
 51 0 l 1
 148 686 l 1
 234 686 l 1
 496 190 l 1
 499 191 l 1
 569 686 l 1
 658 686 l 1
 561 0 l 1
EndSplineSet
Position2: "'cpsp' Capital Spacing lookup 0 subtable" dx=5 dy=0 dh=10 dv=0
EndChar

StartChar: O
Encoding: 79 79 57
Width: 690
GlyphClass: 2
Flags: MW
HStem: -10 89<267.5 369 267.5 388.5> 607 89<335 437>
VStem: 57 99<185.5 235> 549 98<440.5 500>
LayerCount: 2
Fore
SplineSet
402 696 m 0
 542 696 647 616 647 450 c 0
 647 431 646 410 630 298 c 0
 601 90 474 -10 303 -10 c 0
 162 -10 57 70 57 235 c 0
 56 264 60 276 75 388 c 0
 103 596 233 696 402 696 c 0
390 607 m 0
 280 607 195 544 173 388 c 0
 158 278 156 260 156 244 c 0
 156 127 220 79 315 79 c 0
 423 79 508 142 532 298 c 0
 548 406 549 426 549 442 c 0
 549 558 484 607 390 607 c 0
EndSplineSet
Substitution2: "Single Substitution lookup 5 subtable" ordmasculine
Substitution2: "'aalt' Access All Alternates lookup 0 subtable" ordmasculine
Position2: "'cpsp' Capital Spacing lookup 0 subtable" dx=5 dy=0 dh=10 dv=0
EndChar

StartChar: Oacute
Encoding: 211 211 58
Width: 690
GlyphClass: 2
Flags: MW
HStem: -10 89<267.5 369 267.5 388.5> 607 89<335 437> 750 145<373 578 373 578>
VStem: 57 99<185.5 235> 549 98<440.5 500>
LayerCount: 2
Fore
SplineSet
578 891 m 1
 442 750 l 1
 373 750 l 1
 488 895 l 1
 578 895 l 1
 578 891 l 1
402 696 m 0
 542 696 647 616 647 450 c 0
 647 431 646 410 630 298 c 0
 601 90 474 -10 303 -10 c 0
 162 -10 57 70 57 235 c 0
 56 264 60 276 75 388 c 0
 103 596 233 696 402 696 c 0
390 607 m 0
 280 607 195 544 173 388 c 0
 158 278 156 260 156 244 c 0
 156 127 220 79 315 79 c 0
 423 79 508 142 532 298 c 0
 548 406 549 426 549 442 c 0
 549 558 484 607 390 607 c 0
EndSplineSet
Position2: "'cpsp' Capital Spacing lookup 0 subtable" dx=5 dy=0 dh=10 dv=0
EndChar

StartChar: Ocircumflex
Encoding: 212 212 59
Width: 690
GlyphClass: 2
Flags: MW
HStem: -10 89<267.5 369 267.5 388.5> 607 89<335 437> 750 145<249 484 406 598 406 518>
VStem: 57 99<185.5 235> 549 98<440.5 500>
LayerCount: 2
Fore
SplineSet
598 750 m 1
 518 750 l 1
 437 839 l 1
 329 750 l 1
 249 750 l 1
 406 895 l 1
 484 895 l 1
 598 750 l 1
402 696 m 0
 542 696 647 616 647 450 c 0
 647 431 646 410 630 298 c 0
 601 90 474 -10 303 -10 c 0
 162 -10 57 70 57 235 c 0
 56 264 60 276 75 388 c 0
 103 596 233 696 402 696 c 0
390 607 m 0
 280 607 195 544 173 388 c 0
 158 278 156 260 156 244 c 0
 156 127 220 79 315 79 c 0
 423 79 508 142 532 298 c 0
 548 406 549 426 549 442 c 0
 549 558 484 607 390 607 c 0
EndSplineSet
Position2: "'cpsp' Capital Spacing lookup 0 subtable" dx=5 dy=0 dh=10 dv=0
EndChar

StartChar: Odieresis
Encoding: 214 214 60
Width: 690
GlyphClass: 2
Flags: MW
HStem: -10 89<267.5 369 267.5 388.5> 607 89<335 437> 750 98<288 365 275 378 288 463 476 554>
VStem: 57 99<185.5 235> 549 98<440.5 500>
LayerCount: 2
Fore
SplineSet
365 750 m 1
 275 750 l 1
 288 848 l 1
 378 848 l 1
 365 750 l 1
554 750 m 1
 463 750 l 1
 476 848 l 1
 567 848 l 1
 554 750 l 1
402 696 m 0
 542 696 647 616 647 450 c 0
 647 431 646 410 630 298 c 0
 601 90 474 -10 303 -10 c 0
 162 -10 57 70 57 235 c 0
 56 264 60 276 75 388 c 0
 103 596 233 696 402 696 c 0
390 607 m 0
 280 607 195 544 173 388 c 0
 158 278 156 260 156 244 c 0
 156 127 220 79 315 79 c 0
 423 79 508 142 532 298 c 0
 548 406 549 426 549 442 c 0
 549 558 484 607 390 607 c 0
EndSplineSet
Position2: "'cpsp' Capital Spacing lookup 0 subtable" dx=5 dy=0 dh=10 dv=0
EndChar

StartChar: Ograve
Encoding: 210 210 61
Width: 690
GlyphClass: 2
Flags: MW
HStem: -10 89<267.5 369 267.5 388.5> 607 89<335 437> 750 145<273 436 273 366>
VStem: 57 99<185.5 235> 549 98<440.5 500>
LayerCount: 2
Fore
SplineSet
436 750 m 1
 366 750 l 1
 271 892 l 1
 273 895 l 1
 362 895 l 1
 436 750 l 1
402 696 m 0
 542 696 647 616 647 450 c 0
 647 431 646 410 630 298 c 0
 601 90 474 -10 303 -10 c 0
 162 -10 57 70 57 235 c 0
 56 264 60 276 75 388 c 0
 103 596 233 696 402 696 c 0
390 607 m 0
 280 607 195 544 173 388 c 0
 158 278 156 260 156 244 c 0
 156 127 220 79 315 79 c 0
 423 79 508 142 532 298 c 0
 548 406 549 426 549 442 c 0
 549 558 484 607 390 607 c 0
EndSplineSet
Position2: "'cpsp' Capital Spacing lookup 0 subtable" dx=5 dy=0 dh=10 dv=0
EndChar

StartChar: Ohungarumlaut
Encoding: 336 336 62
Width: 690
GlyphClass: 2
Flags: MW
HStem: -10 89<267.5 369 267.5 388.5> 607 89<335 437> 750 145<265 470 265 470 420 420 420 470 381 490>
VStem: 57 99<185.5 235> 549 98<440.5 500>
LayerCount: 2
Fore
SplineSet
470 890 m 1
 335 750 l 1
 265 750 l 1
 381 895 l 1
 470 895 l 1
 470 890 l 1
625 890 m 1
 490 750 l 1
 420 750 l 1
 535 895 l 1
 625 895 l 1
 625 890 l 1
402 696 m 0
 542 696 647 616 647 450 c 0
 647 431 646 410 630 298 c 0
 601 90 474 -10 303 -10 c 0
 162 -10 57 70 57 235 c 0
 56 264 60 276 75 388 c 0
 103 596 233 696 402 696 c 0
390 607 m 0
 280 607 195 544 173 388 c 0
 158 278 156 260 156 244 c 0
 156 127 220 79 315 79 c 0
 423 79 508 142 532 298 c 0
 548 406 549 426 549 442 c 0
 549 558 484 607 390 607 c 0
EndSplineSet
EndChar

StartChar: Omacron
Encoding: 332 332 63
Width: 690
GlyphClass: 2
Flags: MW
HStem: -10 89<267.5 369 267.5 388.5> 607 89<335 437> 837 74<261 568 250 579>
VStem: 57 99<185.5 235> 549 98<440.5 500>
LayerCount: 2
Fore
SplineSet
568 837 m 1
 250 837 l 1
 261 911 l 1
 579 911 l 1
 568 837 l 1
402 696 m 0
 542 696 647 616 647 450 c 0
 647 431 646 410 630 298 c 0
 601 90 474 -10 303 -10 c 0
 162 -10 57 70 57 235 c 0
 56 264 60 276 75 388 c 0
 103 596 233 696 402 696 c 0
390 607 m 0
 280 607 195 544 173 388 c 0
 158 278 156 260 156 244 c 0
 156 127 220 79 315 79 c 0
 423 79 508 142 532 298 c 0
 548 406 549 426 549 442 c 0
 549 558 484 607 390 607 c 0
EndSplineSet
EndChar

StartChar: Oslash
Encoding: 216 216 64
Width: 690
GlyphClass: 2
Flags: MW
HStem: -10 89<293.5 369 293.5 388.5> 607 89<335 411>
VStem: 57 99<224 249.5> 549 98<440.5 461.5>
LayerCount: 2
Fore
SplineSet
689 754 m 1
 590 621 l 1
 626 580 647 525 647 450 c 0
 647 431 646 410 630 298 c 0
 601 90 474 -10 303 -10 c 0
 244 -10 195 3 154 30 c 1
 84 -65 l 1
 20 -65 l 1
 115 63 l 1
 78 104 57 159 57 235 c 0
 57 264 60 275 75 388 c 0
 103 596 233 696 402 696 c 0
 461 696 511 682 552 655 c 1
 625 754 l 1
 689 754 l 1
390 607 m 0
 280 607 195 544 173 388 c 0
 158 278 156 260 156 244 c 0
 156 204 163 172 177 147 c 1
 494 577 l 1
 467 597 432 607 390 607 c 0
528 537 m 1
 211 107 l 1
 238 88 272 79 315 79 c 0
 423 79 508 142 532 298 c 0
 548 406 549 426 549 442 c 0
 549 481 541 512 528 537 c 1
EndSplineSet
Position2: "'cpsp' Capital Spacing lookup 0 subtable" dx=5 dy=0 dh=10 dv=0
EndChar

StartChar: Otilde
Encoding: 213 213 65
Width: 690
GlyphClass: 2
Flags: MW
HStem: -10 89<267.5 369 267.5 388.5> 607 89<335 437> 750 69<490.5 532 490.5 539> 784 70<321 363>
VStem: 57 99<185.5 235> 549 98<440.5 500>
LayerCount: 2
Fore
SplineSet
577 854 m 1xec
 627 854 l 1xec
 619 806 578 750 500 750 c 0
 436 750 390 784 336 784 c 0
 306 784 286 773 276 750 c 1
 228 750 l 1xdc
 236 795 276 854 354 854 c 0
 418 854 464 819 517 819 c 0
 547 819 567 831 577 854 c 1xec
402 696 m 0
 542 696 647 616 647 450 c 0
 647 431 646 410 630 298 c 0
 601 90 474 -10 303 -10 c 0
 162 -10 57 70 57 235 c 0
 56 264 60 276 75 388 c 0
 103 596 233 696 402 696 c 0
390 607 m 0
 280 607 195 544 173 388 c 0
 158 278 156 260 156 244 c 0
 156 127 220 79 315 79 c 0
 423 79 508 142 532 298 c 0
 548 406 549 426 549 442 c 0
 549 558 484 607 390 607 c 0
EndSplineSet
Position2: "'cpsp' Capital Spacing lookup 0 subtable" dx=5 dy=0 dh=10 dv=0
EndChar

StartChar: OE
Encoding: 338 338 66
Width: 1031
GlyphClass: 2
Flags: MW
HStem: -10 89<267.5 341> 0 89<601 946 601 946> 306 89<644 938 631 951> 597 89<672 1011 672 672> 607 89<335 437>
VStem: 57 99<185.5 235>
LayerCount: 2
Fore
SplineSet
402 696 m 0xac
 474 696 535 676 579 633 c 1x6c
 587 686 l 1
 1037 686 l 1
 1011 597 l 1
 672 597 l 1
 644 395 l 1
 951 395 l 1
 938 306 l 1
 631 306 l 1
 601 89 l 1
 946 89 l 1
 946 0 l 1
 490 0 l 1x74
 496 47 l 1
 443 8 379 -10 303 -10 c 0
 162 -10 57 70 57 235 c 0
 56 264 60 276 75 388 c 0
 103 596 233 696 402 696 c 0xac
390 607 m 0
 280 607 195 544 173 388 c 0
 158 278 156 260 156 244 c 0
 156 127 220 79 315 79 c 0
 423 79 508 142 532 298 c 0
 548 406 549 426 549 442 c 0
 549 558 484 607 390 607 c 0
EndSplineSet
Position2: "'cpsp' Capital Spacing lookup 0 subtable" dx=5 dy=0 dh=10 dv=0
EndChar

StartChar: P
Encoding: 80 80 67
Width: 626
GlyphClass: 2
Flags: MW
HStem: 286 89<202 387 189 391> 597 89<233 233 233 422>
VStem: 524 99<466.5 528>
LayerCount: 2
Fore
SplineSet
148 686 m 1
 444 686 l 2
 547 686 623 620 623 517 c 0
 623 378 527 286 387 286 c 2
 189 286 l 1
 149 0 l 1
 51 0 l 1
 148 686 l 1
233 597 m 1
 202 375 l 1
 391 375 l 2
 459 375 524 433 524 500 c 0
 524 556 482 597 422 597 c 2
 233 597 l 1
EndSplineSet
Position2: "'cpsp' Capital Spacing lookup 0 subtable" dx=5 dy=0 dh=10 dv=0
EndChar

StartChar: Thorn
Encoding: 222 222 68
Width: 633
GlyphClass: 2
Flags: MW
HStem: 162 89<185 370 172 374> 473 89<216 426 228 405> 666 20G<148 246 246 246>
VStem: 506 99<344 404.5>
LayerCount: 2
Fore
SplineSet
228 562 m 1
 426 562 l 2
 529 562 605 496 605 393 c 0
 605 246 491 162 370 162 c 2
 172 162 l 1
 149 0 l 1
 51 0 l 1
 148 686 l 1
 246 686 l 1
 228 562 l 1
216 473 m 1
 185 251 l 1
 374 251 l 2
 443 251 506 310 506 378 c 0
 506 431 465 473 405 473 c 2
 216 473 l 1
EndSplineSet
Position2: "'cpsp' Capital Spacing lookup 0 subtable" dx=5 dy=0 dh=10 dv=0
EndChar

StartChar: Q
Encoding: 81 81 69
Width: 690
GlyphClass: 2
Flags: MW
HStem: -145 75<418.5 455.5> -26 20G 607 89<335 437>
VStem: 57 99<185.5 235> 263 97 549 98<440.5 500>
LayerCount: 2
Fore
SplineSet
402 696 m 0
 542 696 647 616 647 450 c 0
 647 431 646 410 630 298 c 0
 603 114 501 14 360 -6 c 1
 363 -35 387 -70 450 -70 c 0
 487 -70 534 -54 558 -46 c 2
 571 -42 l 1
 561 -112 l 1
 534 -128 487 -145 424 -145 c 0
 340 -145 263 -102 263 -8 c 1
 140 5 57 85 57 235 c 0
 56 264 60 276 75 388 c 0
 103 596 233 696 402 696 c 0
390 607 m 0
 280 607 195 544 173 388 c 0
 158 278 156 260 156 244 c 0
 156 127 220 79 315 79 c 0
 423 79 508 142 532 298 c 0
 548 406 549 426 549 442 c 0
 549 558 484 607 390 607 c 0
EndSplineSet
Position2: "'cpsp' Capital Spacing lookup 0 subtable" dx=5 dy=0 dh=10 dv=0
EndChar

StartChar: R
Encoding: 82 82 70
Width: 670
GlyphClass: 2
Flags: MW
HStem: 302 89<204 365 191 399> 597 89<233 233 233 428>
VStem: 461 102<186.5 223> 523 102<502 536.5>
AnchorPoint: "Bottom" 335 0 basechar 0
LayerCount: 2
Fore
SplineSet
147 686 m 1xd0
 439 686 l 2
 539 686 625 642 625 543 c 0xd0
 625 461 573 370 477 354 c 1
 477 349 l 1
 495 341 563 309 563 202 c 0
 563 171 555 128 555 104 c 0
 555 56 570 40 593 31 c 1
 589 3 l 1
 578 -1 557 -5 536 -5 c 0
 493 -5 454 10 454 85 c 0
 454 110 461 157 461 173 c 0
 461 273 408 302 365 302 c 2xe0
 191 302 l 1
 149 0 l 1
 51 0 l 1
 147 686 l 1xd0
233 597 m 1
 204 391 l 1
 399 391 l 2
 459 391 523 442 523 511 c 0
 523 562 488 597 428 597 c 2
 233 597 l 1
EndSplineSet
Position2: "'cpsp' Capital Spacing lookup 0 subtable" dx=5 dy=0 dh=10 dv=0
EndChar

StartChar: Racute
Encoding: 340 340 71
Width: 670
GlyphClass: 2
Flags: MW
HStem: 302 89<204 365 191 399> 597 89<233 233 233 428> 750 145<302 507 302 507>
VStem: 461 102<186.5 223> 523 102<502 536.5>
AnchorPoint: "Bottom" 335 0 basechar 0
LayerCount: 2
Fore
SplineSet
507 891 m 1xe8
 371 750 l 1
 302 750 l 1
 417 895 l 1
 507 895 l 1
 507 891 l 1xe8
147 686 m 1
 439 686 l 2
 539 686 625 642 625 543 c 0xe8
 625 461 573 370 477 354 c 1
 477 349 l 1
 495 341 563 309 563 202 c 0
 563 171 555 128 555 104 c 0
 555 56 570 40 593 31 c 1
 589 3 l 1
 578 -1 557 -5 536 -5 c 0
 493 -5 454 10 454 85 c 0
 454 110 461 157 461 173 c 0
 461 273 408 302 365 302 c 2xf0
 191 302 l 1
 149 0 l 1
 51 0 l 1
 147 686 l 1
233 597 m 1
 204 391 l 1
 399 391 l 2
 459 391 523 442 523 511 c 0
 523 562 488 597 428 597 c 2
 233 597 l 1
EndSplineSet
EndChar

StartChar: Rcaron
Encoding: 344 344 72
Width: 670
GlyphClass: 2
Flags: MW
HStem: 302 89<204 365 191 399> 597 89<233 233 233 428> 750 145<210 403 210 325>
VStem: 461 102<186.5 223> 523 102<502 536.5>
AnchorPoint: "Bottom" 335 0 basechar 0
LayerCount: 2
Fore
SplineSet
403 750 m 1xe8
 325 750 l 1
 210 895 l 1
 290 895 l 1
 372 806 l 1
 479 895 l 1
 559 895 l 1
 403 750 l 1xe8
147 686 m 1
 439 686 l 2
 539 686 625 642 625 543 c 0xe8
 625 461 573 370 477 354 c 1
 477 349 l 1
 495 341 563 309 563 202 c 0
 563 171 555 128 555 104 c 0
 555 56 570 40 593 31 c 1
 589 3 l 1
 578 -1 557 -5 536 -5 c 0
 493 -5 454 10 454 85 c 0
 454 110 461 157 461 173 c 0
 461 273 408 302 365 302 c 2xf0
 191 302 l 1
 149 0 l 1
 51 0 l 1
 147 686 l 1
233 597 m 1
 204 391 l 1
 399 391 l 2
 459 391 523 442 523 511 c 0
 523 562 488 597 428 597 c 2
 233 597 l 1
EndSplineSet
EndChar

StartChar: Rcommaaccent
Encoding: 342 342 73
Width: 670
GlyphClass: 2
Flags: MW
HStem: -151 111<278 303 262 379> 302 89<204 365 191 399> 597 89<233 233 233 428>
VStem: 461 102<186.5 223> 523 102<502 536.5>
AnchorPoint: "Bottom" 335 0 basechar 0
LayerCount: 2
Fore
SplineSet
147 686 m 1xe8
 439 686 l 2
 539 686 625 642 625 543 c 0xe8
 625 461 573 370 477 354 c 1
 477 349 l 1
 495 341 563 309 563 202 c 0
 563 171 555 128 555 104 c 0
 555 56 570 40 593 31 c 1
 589 3 l 1
 578 -1 557 -5 536 -5 c 0
 493 -5 454 10 454 85 c 0
 454 110 461 157 461 173 c 0
 461 273 408 302 365 302 c 2xf0
 191 302 l 1
 149 0 l 1
 51 0 l 1
 147 686 l 1xe8
233 597 m 1
 204 391 l 1
 399 391 l 2
 459 391 523 442 523 511 c 0
 523 562 488 597 428 597 c 2
 233 597 l 1
367 -125 m 1
 320 -250 l 1
 267 -250 l 1
 303 -151 l 1
 262 -151 l 1
 278 -40 l 1
 379 -40 l 1
 367 -125 l 1
EndSplineSet
EndChar

StartChar: S
Encoding: 83 83 74
Width: 629
GlyphClass: 2
Flags: MW
HStem: -10 89<236 334 236 355.5> 607 89<316 399>
VStem: 36 99<141.5 168.5> 97 100<430.5 539.5 430.5 566.5> 463 101<160.5 277.5> 490 98<530.5 548.5>
AnchorPoint: "Bottom" 285 0 basechar 0
LayerCount: 2
Fore
SplineSet
371 696 m 0xd4
 493 696 588 649 588 536 c 0
 588 525 588 515 584 492 c 1
 486 492 l 1
 490 512 490 516 490 520 c 0xe4
 490 577 437 607 361 607 c 0
 271 607 197 575 197 504 c 0xd8
 197 357 564 446 564 211 c 0
 564 48 440 -10 271 -10 c 0
 141 -10 36 36 36 160 c 0
 36 177 39 203 43 215 c 1
 141 215 l 1
 136 210 135 183 135 175 c 0xe8
 135 108 194 79 278 79 c 0
 390 79 463 120 463 201 c 0xd8
 463 354 97 261 97 499 c 0
 97 634 216 696 371 696 c 0xd4
EndSplineSet
Position2: "'cpsp' Capital Spacing lookup 0 subtable" dx=5 dy=0 dh=10 dv=0
EndChar

StartChar: Sacute
Encoding: 346 346 75
Width: 629
GlyphClass: 2
Flags: MW
HStem: -10 89<236 334 236 355.5> 607 89<316 399> 750 145<302 507 302 507>
VStem: 36 99<141.5 168.5> 97 100<430.5 539.5 430.5 566.5> 463 101<160.5 277.5> 490 98<530.5 548.5>
AnchorPoint: "Bottom" 285 0 basechar 0
LayerCount: 2
Fore
SplineSet
507 891 m 1xf4
 371 750 l 1
 302 750 l 1
 417 895 l 1
 507 895 l 1
 507 891 l 1xf4
371 696 m 0xea
 493 696 588 649 588 536 c 0
 588 525 588 515 584 492 c 1
 486 492 l 1
 490 512 490 516 490 520 c 0xf2
 490 577 437 607 361 607 c 0
 271 607 197 575 197 504 c 0xec
 197 357 564 446 564 211 c 0
 564 48 440 -10 271 -10 c 0
 141 -10 36 36 36 160 c 0
 36 177 39 203 43 215 c 1
 141 215 l 1
 136 210 135 183 135 175 c 0xf4
 135 108 194 79 278 79 c 0
 390 79 463 120 463 201 c 0xec
 463 354 97 261 97 499 c 0
 97 634 216 696 371 696 c 0xea
EndSplineSet
EndChar

StartChar: Scaron
Encoding: 352 352 76
Width: 629
GlyphClass: 2
Flags: MW
HStem: -10 89<236 334 236 355.5> 607 89<316 399> 750 145<224 417 224 339>
VStem: 36 99<141.5 168.5> 97 100<430.5 539.5 430.5 566.5> 463 101<160.5 277.5> 490 98<530.5 548.5>
LayerCount: 2
Fore
SplineSet
417 750 m 1xf4
 339 750 l 1
 224 895 l 1
 304 895 l 1
 386 806 l 1
 493 895 l 1
 573 895 l 1
 417 750 l 1xf4
371 696 m 0xea
 493 696 588 649 588 536 c 0
 588 525 588 515 584 492 c 1
 486 492 l 1
 490 512 490 516 490 520 c 0xf2
 490 577 437 607 361 607 c 0
 271 607 197 575 197 504 c 0xec
 197 357 564 446 564 211 c 0
 564 48 440 -10 271 -10 c 0
 141 -10 36 36 36 160 c 0
 36 177 39 203 43 215 c 1
 141 215 l 1
 136 210 135 183 135 175 c 0xf4
 135 108 194 79 278 79 c 0
 390 79 463 120 463 201 c 0xec
 463 354 97 261 97 499 c 0
 97 634 216 696 371 696 c 0xea
EndSplineSet
Position2: "'cpsp' Capital Spacing lookup 0 subtable" dx=5 dy=0 dh=10 dv=0
EndChar

StartChar: Scedilla
Encoding: 350 350 77
Width: 629
GlyphClass: 2
Flags: MW
HStem: -197 51<251 286 248.5 290> -60 43<272 287 266 296> -10 89<236 334 236 355.5> 607 89<316 399>
VStem: 36 99<141.5 168.5> 97 100<430.5 539.5 430.5 566.5> 333 63<-113 -83.5> 463 101<160.5 277.5> 490 98<530.5 548.5>
AnchorPoint: "Bottom" 285 0 basechar 0
LayerCount: 2
Fore
SplineSet
371 696 m 0xb680
 493 696 588 649 588 536 c 0
 588 525 588 515 584 492 c 1
 486 492 l 1
 490 512 490 516 490 520 c 0xba80
 490 577 437 607 361 607 c 0
 271 607 197 575 197 504 c 0xb7
 197 357 564 446 564 211 c 0
 564 48 440 -10 271 -10 c 0
 141 -10 36 36 36 160 c 0
 36 177 39 203 43 215 c 1
 141 215 l 1
 136 210 135 183 135 175 c 0xbb
 135 108 194 79 278 79 c 0
 390 79 463 120 463 201 c 0xb7
 463 354 97 261 97 499 c 0
 97 634 216 696 371 696 c 0xb680
272 -17 m 1xdb
 296 -17 l 2
 347 -17 396 -32 396 -90 c 0
 396 -176 313 -197 267 -197 c 0
 235 -197 200 -190 175 -175 c 1
 191 -126 l 1
 200 -131 227 -146 270 -146 c 0
 302 -146 333 -131 333 -95 c 0
 333 -72 314 -60 287 -60 c 2
 266 -60 l 1
 272 -17 l 1xdb
EndSplineSet
EndChar

StartChar: Scommaaccent
Encoding: 536 536 78
Width: 629
GlyphClass: 2
Flags: MW
HStem: -151 111<228 253 212 329> -10 89<236 334 236 355.5> 607 89<316 399>
VStem: 36 99<141.5 168.5> 97 100<430.5 539.5 430.5 566.5> 463 101<160.5 277.5> 490 98<530.5 548.5>
AnchorPoint: "Bottom" 285 0 basechar 0
LayerCount: 2
Fore
SplineSet
371 696 m 0x6a
 493 696 588 649 588 536 c 0
 588 525 588 515 584 492 c 1
 486 492 l 1
 490 512 490 516 490 520 c 0x72
 490 577 437 607 361 607 c 0
 271 607 197 575 197 504 c 0x6c
 197 357 564 446 564 211 c 0
 564 48 440 -10 271 -10 c 0
 141 -10 36 36 36 160 c 0
 36 177 39 203 43 215 c 1
 141 215 l 1
 136 210 135 183 135 175 c 0x74
 135 108 194 79 278 79 c 0
 390 79 463 120 463 201 c 0x6c
 463 354 97 261 97 499 c 0
 97 634 216 696 371 696 c 0x6a
317 -125 m 1xf4
 270 -250 l 1
 217 -250 l 1
 253 -151 l 1
 212 -151 l 1
 228 -40 l 1
 329 -40 l 1
 317 -125 l 1xf4
EndSplineSet
EndChar

StartChar: T
Encoding: 84 84 79
Width: 575
GlyphClass: 2
Flags: MW
HStem: 597 89<80 281 67 607 379 594 379 379>
VStem: 67 540<597 686>
AnchorPoint: "Bottom" 246 0 basechar 0
LayerCount: 2
Fore
SplineSet
594 597 m 1
 379 597 l 1
 295 0 l 1
 197 0 l 1
 281 597 l 1
 67 597 l 1
 80 686 l 1
 607 686 l 1
 594 597 l 1
EndSplineSet
Position2: "'cpsp' Capital Spacing lookup 0 subtable" dx=5 dy=0 dh=10 dv=0
EndChar

StartChar: Tcaron
Encoding: 356 356 80
Width: 575
GlyphClass: 2
Flags: MW
HStem: 597 89<80 281 67 607 379 594 379 379> 750 145<189 382 189 304>
VStem: 67 540<597 686>
AnchorPoint: "Bottom" 246 0 basechar 0
LayerCount: 2
Fore
SplineSet
382 750 m 1
 304 750 l 1
 189 895 l 1
 269 895 l 1
 351 806 l 1
 458 895 l 1
 538 895 l 1
 382 750 l 1
594 597 m 1
 379 597 l 1
 295 0 l 1
 197 0 l 1
 281 597 l 1
 67 597 l 1
 80 686 l 1
 607 686 l 1
 594 597 l 1
EndSplineSet
EndChar

StartChar: Tcedilla
Encoding: 354 354 81
Width: 575
GlyphClass: 2
Flags: MW
HStem: -197 51<212 247 209.5 251> -60 43<233 248 227 257> 597 89<80 281 67 607 379 594 379 379>
VStem: 294 63<-113 -83.5>
AnchorPoint: "Bottom" 246 0 basechar 0
LayerCount: 2
Fore
SplineSet
594 597 m 1
 379 597 l 1
 295 0 l 1
 197 0 l 1
 281 597 l 1
 67 597 l 1
 80 686 l 1
 607 686 l 1
 594 597 l 1
233 -17 m 1
 257 -17 l 2
 308 -17 357 -32 357 -90 c 0
 357 -176 274 -197 228 -197 c 0
 196 -197 161 -190 136 -175 c 1
 152 -126 l 1
 161 -131 188 -146 231 -146 c 0
 263 -146 294 -131 294 -95 c 0
 294 -72 275 -60 248 -60 c 2
 227 -60 l 1
 233 -17 l 1
EndSplineSet
EndChar

StartChar: Tcommaaccent
Encoding: 538 538 82
Width: 575
GlyphClass: 2
Flags: MW
HStem: -151 111<189 214 173 290> 597 89<80 281 67 607 379 594 379 379>
VStem: 67 540<597 686>
AnchorPoint: "Bottom" 246 0 basechar 0
LayerCount: 2
Fore
SplineSet
594 597 m 1
 379 597 l 1
 295 0 l 1
 197 0 l 1
 281 597 l 1
 67 597 l 1
 80 686 l 1
 607 686 l 1
 594 597 l 1
278 -125 m 1
 231 -250 l 1
 178 -250 l 1
 214 -151 l 1
 173 -151 l 1
 189 -40 l 1
 290 -40 l 1
 278 -125 l 1
EndSplineSet
EndChar

StartChar: U
Encoding: 85 85 83
Width: 682
GlyphClass: 2
Flags: MW
HStem: -10 89<267 292 292 305> 666 20G<142 240 240 240 552 650 650 650>
VStem: 74 99<164.5 190.5>
LayerCount: 2
Fore
SplineSet
650 686 m 1
 585 219 l 2
 565 79 467 -10 305 -10 c 2
 292 -10 l 2
 156 -10 74 63 74 180 c 0
 74 201 78 218 142 686 c 1
 240 686 l 1
 208 450 190 333 182 272 c 2
 176 228 l 2
 173 209 173 205 173 200 c 0
 173 129 223 79 311 79 c 0
 408 79 475 137 487 221 c 2
 552 686 l 1
 650 686 l 1
EndSplineSet
Position2: "'cpsp' Capital Spacing lookup 0 subtable" dx=5 dy=0 dh=10 dv=0
EndChar

StartChar: Uacute
Encoding: 218 218 84
Width: 682
GlyphClass: 2
Flags: MW
HStem: -10 89<267 292 292 305> 666 20G<142 240 240 240 552 650 650 650> 750 145<367 572 367 572>
VStem: 74 99<164.5 190.5>
LayerCount: 2
Fore
SplineSet
572 891 m 1
 436 750 l 1
 367 750 l 1
 482 895 l 1
 572 895 l 1
 572 891 l 1
650 686 m 1
 585 219 l 2
 565 79 467 -10 305 -10 c 2
 292 -10 l 2
 156 -10 74 63 74 180 c 0
 74 201 78 218 142 686 c 1
 240 686 l 1
 208 450 190 333 182 272 c 2
 176 228 l 2
 173 209 173 205 173 200 c 0
 173 129 223 79 311 79 c 0
 408 79 475 137 487 221 c 2
 552 686 l 1
 650 686 l 1
EndSplineSet
Position2: "'cpsp' Capital Spacing lookup 0 subtable" dx=5 dy=0 dh=10 dv=0
EndChar

StartChar: Ucircumflex
Encoding: 219 219 85
Width: 682
GlyphClass: 2
Flags: MW
HStem: -10 89<267 292 292 305> 666 20G<142 240 240 240 552 650 650 650> 750 145<223 458 380 572 380 492>
VStem: 74 99<164.5 190.5>
LayerCount: 2
Fore
SplineSet
572 750 m 1
 492 750 l 1
 411 839 l 1
 303 750 l 1
 223 750 l 1
 380 895 l 1
 458 895 l 1
 572 750 l 1
650 686 m 1
 585 219 l 2
 565 79 467 -10 305 -10 c 2
 292 -10 l 2
 156 -10 74 63 74 180 c 0
 74 201 78 218 142 686 c 1
 240 686 l 1
 208 450 190 333 182 272 c 2
 176 228 l 2
 173 209 173 205 173 200 c 0
 173 129 223 79 311 79 c 0
 408 79 475 137 487 221 c 2
 552 686 l 1
 650 686 l 1
EndSplineSet
Position2: "'cpsp' Capital Spacing lookup 0 subtable" dx=5 dy=0 dh=10 dv=0
EndChar

StartChar: Udieresis
Encoding: 220 220 86
Width: 682
GlyphClass: 2
Flags: MW
HStem: -10 89<267 292 292 305> 666 20G<142 240 240 240 552 650 650 650> 749 98<278 355 265 368 278 453 466 544>
VStem: 74 99<164.5 190.5>
LayerCount: 2
Fore
SplineSet
355 749 m 1
 265 749 l 1
 278 847 l 1
 368 847 l 1
 355 749 l 1
544 749 m 1
 453 749 l 1
 466 847 l 1
 557 847 l 1
 544 749 l 1
650 686 m 1
 585 219 l 2
 565 79 467 -10 305 -10 c 2
 292 -10 l 2
 156 -10 74 63 74 180 c 0
 74 201 78 218 142 686 c 1
 240 686 l 1
 208 450 190 333 182 272 c 2
 176 228 l 2
 173 209 173 205 173 200 c 0
 173 129 223 79 311 79 c 0
 408 79 475 137 487 221 c 2
 552 686 l 1
 650 686 l 1
EndSplineSet
Position2: "'cpsp' Capital Spacing lookup 0 subtable" dx=5 dy=0 dh=10 dv=0
EndChar

StartChar: Ugrave
Encoding: 217 217 87
Width: 682
GlyphClass: 2
Flags: MW
HStem: -10 89<267 292 292 305> 666 20G<142 240 240 240 552 650 650 650> 750 145<279 442 279 372>
VStem: 74 99<164.5 190.5>
LayerCount: 2
Fore
SplineSet
442 750 m 1
 372 750 l 1
 277 892 l 1
 279 895 l 1
 368 895 l 1
 442 750 l 1
650 686 m 1
 585 219 l 2
 565 79 467 -10 305 -10 c 2
 292 -10 l 2
 156 -10 74 63 74 180 c 0
 74 201 78 218 142 686 c 1
 240 686 l 1
 208 450 190 333 182 272 c 2
 176 228 l 2
 173 209 173 205 173 200 c 0
 173 129 223 79 311 79 c 0
 408 79 475 137 487 221 c 2
 552 686 l 1
 650 686 l 1
EndSplineSet
Position2: "'cpsp' Capital Spacing lookup 0 subtable" dx=5 dy=0 dh=10 dv=0
EndChar

StartChar: Uhungarumlaut
Encoding: 368 368 88
Width: 682
GlyphClass: 2
Flags: MW
HStem: -10 89<267 292 292 305> 666 20G<142 240 240 240 552 650 650 650> 750 145<266 471 266 471 421 421 421 471 382 491>
VStem: 74 99<164.5 190.5>
LayerCount: 2
Fore
SplineSet
471 890 m 1
 336 750 l 1
 266 750 l 1
 382 895 l 1
 471 895 l 1
 471 890 l 1
626 890 m 1
 491 750 l 1
 421 750 l 1
 536 895 l 1
 626 895 l 1
 626 890 l 1
650 686 m 1
 585 219 l 2
 565 79 467 -10 305 -10 c 2
 292 -10 l 2
 156 -10 74 63 74 180 c 0
 74 201 78 218 142 686 c 1
 240 686 l 1
 208 450 190 333 182 272 c 2
 176 228 l 2
 173 209 173 205 173 200 c 0
 173 129 223 79 311 79 c 0
 408 79 475 137 487 221 c 2
 552 686 l 1
 650 686 l 1
EndSplineSet
EndChar

StartChar: Umacron
Encoding: 362 362 89
Width: 682
GlyphClass: 2
Flags: MW
HStem: -10 89<267 292 292 305> 666 20G<142 240 240 240 552 650 650 650> 837 74<262 569 251 580>
VStem: 74 99<164.5 190.5>
LayerCount: 2
Fore
SplineSet
569 837 m 1
 251 837 l 1
 262 911 l 1
 580 911 l 1
 569 837 l 1
650 686 m 1
 585 219 l 2
 565 79 467 -10 305 -10 c 2
 292 -10 l 2
 156 -10 74 63 74 180 c 0
 74 201 78 218 142 686 c 1
 240 686 l 1
 208 450 190 333 182 272 c 2
 176 228 l 2
 173 209 173 205 173 200 c 0
 173 129 223 79 311 79 c 0
 408 79 475 137 487 221 c 2
 552 686 l 1
 650 686 l 1
EndSplineSet
EndChar

StartChar: Uogonek
Encoding: 370 370 90
Width: 682
GlyphClass: 2
Flags: MW
HStem: -143 47<396.5 406.5> -20 20G<393 422 422 422> -10 89<267 292 292 305> 666 20G<142 240 240 240 552 650 650 650>
VStem: 74 99<164.5 190.5> 303 63<-76.5 -65.5>
LayerCount: 2
Fore
SplineSet
650 686 m 1xbc
 585 219 l 2
 569 106 502 27 393 0 c 1
 422 0 l 1xdc
 397 -11 366 -40 366 -65 c 0
 366 -88 387 -96 406 -96 c 0
 430 -96 452 -89 475 -82 c 1
 483 -119 l 1
 454 -135 423 -143 390 -143 c 0
 347 -143 303 -128 303 -83 c 0
 303 -48 329 -25 357 -7 c 1
 341 -9 323 -10 305 -10 c 2
 292 -10 l 2
 156 -10 74 63 74 180 c 0
 74 201 78 218 142 686 c 1
 240 686 l 1
 208 450 190 333 182 272 c 2
 176 228 l 2
 173 209 173 205 173 200 c 0
 173 129 223 79 311 79 c 0
 408 79 475 137 487 221 c 2
 552 686 l 1
 650 686 l 1xbc
EndSplineSet
EndChar

StartChar: Uring
Encoding: 366 366 91
Width: 682
GlyphClass: 2
Flags: MW
HStem: -10 89<267 292 292 305> 666 20G<142 240 240 240 552 650 650 650> 720 41<377 408.5 377 418> 881 41<384 416>
VStem: 74 99<164.5 190.5> 294 45<801.5 835.5 801.5 846> 454 45<807 840.5>
LayerCount: 2
Fore
SplineSet
403 922 m 0
 459 922 499 883 499 828 c 0
 499 768 446 720 390 720 c 0
 334 720 294 758 294 814 c 0
 294 878 348 922 403 922 c 0
400 881 m 0
 368 881 339 854 339 817 c 0
 339 786 361 761 393 761 c 0
 424 761 454 789 454 825 c 0
 454 856 432 881 400 881 c 0
650 686 m 1
 585 219 l 2
 565 79 467 -10 305 -10 c 2
 292 -10 l 2
 156 -10 74 63 74 180 c 0
 74 201 78 218 142 686 c 1
 240 686 l 1
 208 450 190 333 182 272 c 2
 176 228 l 2
 173 209 173 205 173 200 c 0
 173 129 223 79 311 79 c 0
 408 79 475 137 487 221 c 2
 552 686 l 1
 650 686 l 1
EndSplineSet
EndChar

StartChar: V
Encoding: 86 86 92
Width: 602
GlyphClass: 2
Flags: MW
HStem: 0 133<278 284 278 310 205 284> 666 20G<59 163 163 163 556 651 651 651>
VStem: 59 592<686 686>
LayerCount: 2
Fore
SplineSet
310 0 m 1
 205 0 l 1
 59 686 l 1
 163 686 l 1
 278 133 l 1
 284 133 l 1
 556 686 l 1
 651 686 l 1
 310 0 l 1
EndSplineSet
Position2: "'cpsp' Capital Spacing lookup 0 subtable" dx=5 dy=0 dh=10 dv=0
EndChar

StartChar: W
Encoding: 87 87 93
Width: 914
GlyphClass: 2
Flags: MW
HStem: 0 169<243 249 243 265 165 249 635 641> 496 190<480 487 480 480> 666 20G<67 171 171 171 468 563 563 563 860 955 955 955>
VStem: 67 888<686 686>
LayerCount: 2
Fore
SplineSet
657 0 m 1xb0
 557 0 l 1
 487 496 l 1
 480 496 l 1xd0
 265 0 l 1
 165 0 l 1
 67 686 l 1
 171 686 l 1
 243 169 l 1
 249 169 l 1
 468 686 l 1
 563 686 l 1
 635 169 l 1
 641 169 l 1
 860 686 l 1
 955 686 l 1
 657 0 l 1xb0
EndSplineSet
Position2: "'cpsp' Capital Spacing lookup 0 subtable" dx=5 dy=0 dh=10 dv=0
EndChar

StartChar: X
Encoding: 88 88 94
Width: 628
GlyphClass: 2
Flags: MW
HStem: 665 20G
VStem: -32 686<0 685>
LayerCount: 2
Fore
SplineSet
654 685 m 1
 630 658 l 2
 583 605 486 484 381 361 c 1
 579 0 l 1
 461 0 l 1
 310 276 l 1
 207 157 135 67 76 0 c 1
 -32 0 l 1
 267 355 l 1
 88 685 l 1
 205 685 l 1
 338 440 l 1
 422 538 495 627 528 665 c 2
 545 685 l 1
 654 685 l 1
EndSplineSet
Position2: "'cpsp' Capital Spacing lookup 0 subtable" dx=5 dy=0 dh=10 dv=0
EndChar

StartChar: Y
Encoding: 89 89 95
Width: 570
GlyphClass: 2
Flags: MW
HStem: 666 20G<49 160 160 160 528 629 629 629>
VStem: 49 580<686 686>
LayerCount: 2
Fore
SplineSet
329 265 m 1
 291 0 l 1
 193 0 l 1
 231 265 l 1
 49 686 l 1
 160 686 l 1
 298 367 l 1
 302 367 l 1
 528 686 l 1
 629 686 l 1
 329 265 l 1
EndSplineSet
Position2: "'cpsp' Capital Spacing lookup 0 subtable" dx=5 dy=0 dh=10 dv=0
EndChar

StartChar: Yacute
Encoding: 221 221 96
Width: 570
GlyphClass: 2
Flags: MW
HStem: 666 20G<49 160 160 160 528 629 629 629> 750 145<305 510 305 510>
VStem: 49 580<686 686>
LayerCount: 2
Fore
SplineSet
510 891 m 1
 374 750 l 1
 305 750 l 1
 420 895 l 1
 510 895 l 1
 510 891 l 1
329 265 m 1
 291 0 l 1
 193 0 l 1
 231 265 l 1
 49 686 l 1
 160 686 l 1
 298 367 l 1
 302 367 l 1
 528 686 l 1
 629 686 l 1
 329 265 l 1
EndSplineSet
Position2: "'cpsp' Capital Spacing lookup 0 subtable" dx=5 dy=0 dh=10 dv=0
EndChar

StartChar: Ydieresis
Encoding: 376 376 97
Width: 570
GlyphClass: 2
Flags: MW
HStem: 666 20G<49 160 160 160 528 629 629 629> 749 98<226 303 213 316 226 401 414 492>
VStem: 49 580<686 686>
LayerCount: 2
Fore
SplineSet
303 749 m 1
 213 749 l 1
 226 847 l 1
 316 847 l 1
 303 749 l 1
492 749 m 1
 401 749 l 1
 414 847 l 1
 505 847 l 1
 492 749 l 1
329 265 m 1
 291 0 l 1
 193 0 l 1
 231 265 l 1
 49 686 l 1
 160 686 l 1
 298 367 l 1
 302 367 l 1
 528 686 l 1
 629 686 l 1
 329 265 l 1
EndSplineSet
Position2: "'cpsp' Capital Spacing lookup 0 subtable" dx=5 dy=0 dh=10 dv=0
EndChar

StartChar: Z
Encoding: 90 90 98
Width: 595
GlyphClass: 2
Flags: MW
HStem: 0 89<153 514> 597 89<112 440 99 603>
VStem: -9 612
LayerCount: 2
Fore
SplineSet
597 648 m 1
 153 89 l 1
 527 89 l 1
 514 0 l 1
 -9 0 l 1
 -3 38 l 1
 440 597 l 1
 99 597 l 1
 112 686 l 1
 603 686 l 1
 597 648 l 1
EndSplineSet
Position2: "'cpsp' Capital Spacing lookup 0 subtable" dx=5 dy=0 dh=10 dv=0
EndChar

StartChar: Zacute
Encoding: 377 377 99
Width: 595
GlyphClass: 2
Flags: MW
HStem: 0 89<153 514> 597 89<112 440 99 603> 750 145<295 500 295 500>
VStem: -9 612
LayerCount: 2
Fore
SplineSet
500 891 m 1
 364 750 l 1
 295 750 l 1
 410 895 l 1
 500 895 l 1
 500 891 l 1
597 648 m 1
 153 89 l 1
 527 89 l 1
 514 0 l 1
 -9 0 l 1
 -3 38 l 1
 440 597 l 1
 99 597 l 1
 112 686 l 1
 603 686 l 1
 597 648 l 1
EndSplineSet
EndChar

StartChar: Zcaron
Encoding: 381 381 100
Width: 595
GlyphClass: 2
Flags: MW
HStem: 0 89<153 514> 597 89<112 440 99 603> 750 145<202 395 202 317>
VStem: -9 612
LayerCount: 2
Fore
SplineSet
395 750 m 1
 317 750 l 1
 202 895 l 1
 282 895 l 1
 364 806 l 1
 471 895 l 1
 551 895 l 1
 395 750 l 1
597 648 m 1
 153 89 l 1
 527 89 l 1
 514 0 l 1
 -9 0 l 1
 -3 38 l 1
 440 597 l 1
 99 597 l 1
 112 686 l 1
 603 686 l 1
 597 648 l 1
EndSplineSet
Position2: "'cpsp' Capital Spacing lookup 0 subtable" dx=5 dy=0 dh=10 dv=0
EndChar

StartChar: Zdotaccent
Encoding: 379 379 101
Width: 595
GlyphClass: 2
Flags: MW
HStem: 0 89<153 514> 597 89<112 440 99 603> 779 132<362.5 388.5>
VStem: 311 133<832.5 854.5>
LayerCount: 2
Fore
SplineSet
386 911 m 0
 421 911 444 885 444 852 c 0
 444 813 411 779 366 779 c 0
 335 779 311 802 311 833 c 0
 311 876 339 911 386 911 c 0
597 648 m 1
 153 89 l 1
 527 89 l 1
 514 0 l 1
 -9 0 l 1
 -3 38 l 1
 440 597 l 1
 99 597 l 1
 112 686 l 1
 603 686 l 1
 597 648 l 1
EndSplineSet
EndChar

StartChar: a
Encoding: 97 97 102
Width: 607
GlyphClass: 2
Flags: MW
HStem: -10 75<210.5 250.5> 446 75<231.5 318.5 218.5 329.5> 491 20G<465 530 530 530>
VStem: 42 93<145 244 145 297.5>
LayerCount: 2
Fore
SplineSet
284 521 m 0xd0
 353 521 403 490 427 446 c 1
 434 446 l 1xd0
 465 511 l 1
 530 511 l 1xb0
 502 332 472 95 472 92 c 0
 472 73 483 65 496 65 c 0
 511 65 532 72 543 79 c 1
 534 10 l 1
 521 2 493 -10 457 -10 c 0
 398 -10 381 24 381 65 c 1
 338 18 285 -10 216 -10 c 0
 116 -10 42 52 42 190 c 0
 42 405 153 521 284 521 c 0xd0
297 446 m 0
 166 446 135 295 135 193 c 0
 135 97 177 65 244 65 c 0
 356 65 406 179 406 318 c 0
 406 414 362 446 297 446 c 0
EndSplineSet
Substitution2: "Single Substitution lookup 5 subtable" ordfeminine
Substitution2: "'aalt' Access All Alternates lookup 0 subtable" ordfeminine
EndChar

StartChar: aacute
Encoding: 225 225 103
Width: 607
GlyphClass: 2
Flags: MW
HStem: -10 75<210.5 250.5> 446 75<231.5 318.5 218.5 329.5> 491 20G<465 530 530 530> 575 145<262 467 262 467>
VStem: 42 93<145 244 145 297.5>
LayerCount: 2
Fore
SplineSet
467 716 m 1xd8
 331 575 l 1
 262 575 l 1
 377 720 l 1
 467 720 l 1
 467 716 l 1xd8
284 521 m 0
 353 521 403 490 427 446 c 1
 434 446 l 1xd8
 465 511 l 1
 530 511 l 1xb8
 502 332 472 95 472 92 c 0
 472 73 483 65 496 65 c 0
 511 65 532 72 543 79 c 1
 534 10 l 1
 521 2 493 -10 457 -10 c 0
 398 -10 381 24 381 65 c 1
 338 18 285 -10 216 -10 c 0
 116 -10 42 52 42 190 c 0
 42 405 153 521 284 521 c 0
297 446 m 0
 166 446 135 295 135 193 c 0
 135 97 177 65 244 65 c 0
 356 65 406 179 406 318 c 0
 406 414 362 446 297 446 c 0
EndSplineSet
EndChar

StartChar: abreve
Encoding: 259 259 104
Width: 607
GlyphClass: 2
Flags: MW
HStem: -10 75<210.5 250.5> 446 75<231.5 318.5 218.5 329.5> 491 20G<465 530 530 530> 613 62<285.5 347.5 285.5 361>
VStem: 42 93<145 244 145 297.5>
LayerCount: 2
Fore
SplineSet
449 737 m 1xd8
 517 737 l 1
 509 681 415 613 307 613 c 0
 207 613 131 674 131 729 c 0
 131 732 131 735 132 737 c 2
 199 737 l 1
 206 701 254 675 317 675 c 0
 378 675 433 701 449 737 c 1xd8
284 521 m 0
 353 521 403 490 427 446 c 1
 434 446 l 1xd8
 465 511 l 1
 530 511 l 1xb8
 502 332 472 95 472 92 c 0
 472 73 483 65 496 65 c 0
 511 65 532 72 543 79 c 1
 534 10 l 1
 521 2 493 -10 457 -10 c 0
 398 -10 381 24 381 65 c 1
 338 18 285 -10 216 -10 c 0
 116 -10 42 52 42 190 c 0
 42 405 153 521 284 521 c 0
297 446 m 0
 166 446 135 295 135 193 c 0
 135 97 177 65 244 65 c 0
 356 65 406 179 406 318 c 0
 406 414 362 446 297 446 c 0
EndSplineSet
EndChar

StartChar: acircumflex
Encoding: 226 226 105
Width: 607
GlyphClass: 2
Flags: MW
HStem: -10 75<210.5 250.5> 446 75<231.5 318.5 218.5 329.5> 491 20G<465 530 530 530> 575 145<145 380 302 494 302 414> 664 56<333 333>
VStem: 42 93<145 244 145 297.5>
LayerCount: 2
Fore
SplineSet
494 575 m 1xd4
 414 575 l 1xd4
 333 664 l 1xcc
 225 575 l 1
 145 575 l 1
 302 720 l 1
 380 720 l 1
 494 575 l 1xd4
284 521 m 0
 353 521 403 490 427 446 c 1
 434 446 l 1xd4
 465 511 l 1
 530 511 l 1xb4
 502 332 472 95 472 92 c 0
 472 73 483 65 496 65 c 0
 511 65 532 72 543 79 c 1
 534 10 l 1
 521 2 493 -10 457 -10 c 0
 398 -10 381 24 381 65 c 1
 338 18 285 -10 216 -10 c 0
 116 -10 42 52 42 190 c 0
 42 405 153 521 284 521 c 0
297 446 m 0
 166 446 135 295 135 193 c 0
 135 97 177 65 244 65 c 0
 356 65 406 179 406 318 c 0
 406 414 362 446 297 446 c 0
EndSplineSet
EndChar

StartChar: adieresis
Encoding: 228 228 106
Width: 607
GlyphClass: 2
Flags: MW
HStem: -10 75<210.5 250.5> 446 75<231.5 318.5 218.5 329.5> 491 20G<465 530 530 530> 622 98<193 270 180 283 193 368 381 459>
VStem: 42 93<145 244 145 297.5>
LayerCount: 2
Fore
SplineSet
270 622 m 1xd8
 180 622 l 1
 193 720 l 1
 283 720 l 1
 270 622 l 1xd8
459 622 m 1
 368 622 l 1
 381 720 l 1
 472 720 l 1
 459 622 l 1
284 521 m 0
 353 521 403 490 427 446 c 1
 434 446 l 1xd8
 465 511 l 1
 530 511 l 1xb8
 502 332 472 95 472 92 c 0
 472 73 483 65 496 65 c 0
 511 65 532 72 543 79 c 1
 534 10 l 1
 521 2 493 -10 457 -10 c 0
 398 -10 381 24 381 65 c 1
 338 18 285 -10 216 -10 c 0
 116 -10 42 52 42 190 c 0
 42 405 153 521 284 521 c 0
297 446 m 0
 166 446 135 295 135 193 c 0
 135 97 177 65 244 65 c 0
 356 65 406 179 406 318 c 0
 406 414 362 446 297 446 c 0
EndSplineSet
EndChar

StartChar: agrave
Encoding: 224 224 107
Width: 607
GlyphClass: 2
Flags: MW
HStem: -10 75<210.5 250.5> 446 75<231.5 318.5 218.5 329.5> 491 20G<465 530 530 530> 575 145<181 344 181 274>
VStem: 42 93<145 244 145 297.5>
LayerCount: 2
Fore
SplineSet
344 575 m 1xd8
 274 575 l 1
 179 717 l 1
 181 720 l 1
 270 720 l 1
 344 575 l 1xd8
284 521 m 0
 353 521 403 490 427 446 c 1
 434 446 l 1xd8
 465 511 l 1
 530 511 l 1xb8
 502 332 472 95 472 92 c 0
 472 73 483 65 496 65 c 0
 511 65 532 72 543 79 c 1
 534 10 l 1
 521 2 493 -10 457 -10 c 0
 398 -10 381 24 381 65 c 1
 338 18 285 -10 216 -10 c 0
 116 -10 42 52 42 190 c 0
 42 405 153 521 284 521 c 0
297 446 m 0
 166 446 135 295 135 193 c 0
 135 97 177 65 244 65 c 0
 356 65 406 179 406 318 c 0
 406 414 362 446 297 446 c 0
EndSplineSet
EndChar

StartChar: amacron
Encoding: 257 257 108
Width: 607
GlyphClass: 2
Flags: MW
HStem: -10 75<210.5 250.5> 446 75<231.5 318.5 218.5 329.5> 491 20G<465 530 530 530> 662 74<170 477 159 488>
VStem: 42 93<145 244 145 297.5>
LayerCount: 2
Fore
SplineSet
477 662 m 1xd8
 159 662 l 1
 170 736 l 1
 488 736 l 1
 477 662 l 1xd8
284 521 m 0
 353 521 403 490 427 446 c 1
 434 446 l 1xd8
 465 511 l 1
 530 511 l 1xb8
 502 332 472 95 472 92 c 0
 472 73 483 65 496 65 c 0
 511 65 532 72 543 79 c 1
 534 10 l 1
 521 2 493 -10 457 -10 c 0
 398 -10 381 24 381 65 c 1
 338 18 285 -10 216 -10 c 0
 116 -10 42 52 42 190 c 0
 42 405 153 521 284 521 c 0
297 446 m 0
 166 446 135 295 135 193 c 0
 135 97 177 65 244 65 c 0
 356 65 406 179 406 318 c 0
 406 414 362 446 297 446 c 0
EndSplineSet
EndChar

StartChar: aogonek
Encoding: 261 261 109
Width: 607
GlyphClass: 2
Flags: MW
HStem: -143 47<478.5 488.5> -10 75<210.5 250.5> 446 75<231.5 318.5 218.5 329.5> 491 20G<465 530 530 530>
VStem: 42 93<145 244 145 297.5> 385 63<-76.5 -66>
LayerCount: 2
Fore
SplineSet
557 -82 m 1xec
 565 -119 l 1
 536 -135 505 -143 472 -143 c 0
 429 -143 385 -128 385 -83 c 0
 385 -49 409 -26 437 -8 c 1
 394 -1 381 29 381 65 c 1
 338 18 285 -10 216 -10 c 0
 116 -10 42 52 42 190 c 0
 42 405 153 521 284 521 c 0
 353 521 403 490 427 446 c 1
 434 446 l 1xec
 465 511 l 1
 530 511 l 1xdc
 502 332 472 95 472 92 c 0
 472 73 483 65 496 65 c 0
 511 65 532 72 543 79 c 1
 534 10 l 1
 526 5 511 -2 493 -6 c 1
 470 -20 448 -44 448 -65 c 0
 448 -88 469 -96 488 -96 c 0
 512 -96 534 -89 557 -82 c 1xec
244 65 m 0
 356 65 406 179 406 318 c 0
 406 414 362 446 297 446 c 0
 166 446 135 295 135 193 c 0
 135 97 177 65 244 65 c 0
EndSplineSet
EndChar

StartChar: aring
Encoding: 229 229 110
Width: 607
GlyphClass: 2
Flags: MW
HStem: -10 75<210.5 250.5> 446 75<231.5 318.5 218.5 329.5> 491 20G<465 530 530 530> 548 41<308 339.5 308 349> 709 41<315 347>
VStem: 42 93<145 244 145 297.5> 225 45<629.5 663.5 629.5 674> 385 45<635 668.5>
LayerCount: 2
Fore
SplineSet
334 750 m 0xcf
 390 750 430 711 430 656 c 0
 430 596 377 548 321 548 c 0xdf
 265 548 225 586 225 642 c 0
 225 706 279 750 334 750 c 0xcf
331 709 m 0
 299 709 270 682 270 645 c 0
 270 614 292 589 324 589 c 0xdf
 355 589 385 617 385 653 c 0
 385 684 363 709 331 709 c 0
284 521 m 0
 353 521 403 490 427 446 c 1
 434 446 l 1xcf
 465 511 l 1
 530 511 l 1xaf
 502 332 472 95 472 92 c 0
 472 73 483 65 496 65 c 0
 511 65 532 72 543 79 c 1
 534 10 l 1
 521 2 493 -10 457 -10 c 0
 398 -10 381 24 381 65 c 1
 338 18 285 -10 216 -10 c 0
 116 -10 42 52 42 190 c 0
 42 405 153 521 284 521 c 0
297 446 m 0
 166 446 135 295 135 193 c 0
 135 97 177 65 244 65 c 0
 356 65 406 179 406 318 c 0
 406 414 362 446 297 446 c 0
EndSplineSet
EndChar

StartChar: atilde
Encoding: 227 227 111
Width: 607
GlyphClass: 2
Flags: MW
HStem: -10 75<210.5 250.5> 446 75<231.5 318.5 218.5 329.5> 491 20G<465 530 530 530> 616 69<391.5 433 391.5 440> 650 70<222 264>
VStem: 42 93<145 244 145 297.5>
LayerCount: 2
Fore
SplineSet
478 720 m 1xcc
 528 720 l 1
 520 672 479 616 401 616 c 0
 337 616 291 650 237 650 c 0xcc
 207 650 187 639 177 616 c 1
 129 616 l 1
 137 661 177 720 255 720 c 0
 319 720 365 685 418 685 c 0xd4
 448 685 468 697 478 720 c 1xcc
284 521 m 0
 353 521 403 490 427 446 c 1
 434 446 l 1xd4
 465 511 l 1
 530 511 l 1xb4
 502 332 472 95 472 92 c 0
 472 73 483 65 496 65 c 0
 511 65 532 72 543 79 c 1
 534 10 l 1
 521 2 493 -10 457 -10 c 0
 398 -10 381 24 381 65 c 1
 338 18 285 -10 216 -10 c 0
 116 -10 42 52 42 190 c 0
 42 405 153 521 284 521 c 0
297 446 m 0
 166 446 135 295 135 193 c 0
 135 97 177 65 244 65 c 0
 356 65 406 179 406 318 c 0
 406 414 362 446 297 446 c 0
EndSplineSet
EndChar

StartChar: ae
Encoding: 230 230 112
Width: 895
GlyphClass: 2
Flags: MW
HStem: -10 75<182.5 225 551 581 581 585> 234 73<304 382 489 751> 446 75<308 317 317 340 653 660 660 676.5>
VStem: 25 95<107 176.5 107 201> 76 93 381 93 754 92<339 377>
LayerCount: 2
Fore
SplineSet
653 521 m 2xf6
 660 521 l 2
 773 521 846 455 846 344 c 0
 846 332 845 297 833 234 c 1
 476 234 l 1
 475 223 474 213 474 202 c 0
 474 123 507 65 595 65 c 0
 708 65 732 157 738 190 c 1
 827 190 l 1
 811 67 708 -10 585 -10 c 2
 581 -10 l 2
 492 -10 428 29 397 101 c 1
 341 29 277 -10 173 -10 c 0
 94 -10 25 21 25 117 c 0xf6
 25 285 186 307 393 307 c 1
 399 346 400 362 400 368 c 2
 400 374 l 2
 400 408 385 446 295 446 c 0
 185 446 173 380 170 366 c 2
 168 354 l 1
 76 354 l 1xee
 76 454 176 521 308 521 c 2
 317 521 l 2
 402 521 456 498 481 457 c 1
 528 500 586 521 653 521 c 2xf6
645 446 m 0
 569 446 512 400 489 307 c 1
 751 307 l 1
 754 327 754 335 754 343 c 0
 754 411 708 446 645 446 c 0
380 214 m 2
 382 234 l 1
 226 234 120 218 120 135 c 0
 120 79 149 65 216 65 c 0
 287 65 367 120 380 214 c 2
EndSplineSet
EndChar

StartChar: b
Encoding: 98 98 113
Width: 582
GlyphClass: 2
Flags: MW
HStem: -10 75<243 324 240.5 373.5> 446 75<327 359.5> 700 20G<143 237 237 237>
VStem: 436 95<254.5 366>
LayerCount: 2
Fore
SplineSet
237 720 m 1
 198 446 l 1
 233 487 291 521 363 521 c 0
 460 521 531 454 531 325 c 0
 531 184 466 -10 281 -10 c 0
 205 -10 152 20 122 81 c 1
 78 0 l 1
 42 0 l 1
 143 720 l 1
 237 720 l 1
327 446 m 0
 204 446 165 313 165 193 c 0
 165 97 207 65 274 65 c 0
 374 65 436 151 436 318 c 0
 436 414 392 446 327 446 c 0
EndSplineSet
EndChar

StartChar: c
Encoding: 99 99 114
Width: 546
GlyphClass: 2
Flags: MW
HStem: -10 75<216 235 235 243> 446 75<309 317 317 337.5>
VStem: 42 93<148 247.5 148 278.5> 408 94<340.5 368.5>
AnchorPoint: "Bottom" 273 0 basechar 0
LayerCount: 2
Fore
SplineSet
309 521 m 2
 317 521 l 2
 429 521 502 454 502 346 c 0
 502 335 501 323 499 310 c 1
 406 310 l 1
 407 319 408 328 408 337 c 0
 408 400 374 446 301 446 c 0
 168 446 135 303 135 192 c 0
 135 104 180 65 252 65 c 0
 337 65 383 121 394 200 c 1
 484 200 l 1
 465 64 376 -10 243 -10 c 2
 235 -10 l 2
 120 -10 42 63 42 191 c 0
 42 366 124 521 309 521 c 2
EndSplineSet
EndChar

StartChar: cacute
Encoding: 263 263 115
Width: 546
GlyphClass: 2
Flags: MW
HStem: -10 75<216 235 235 243> 446 75<309 317 317 337.5> 575 145<240 445 240 445>
VStem: 42 93<148 247.5 148 278.5> 408 94<340.5 368.5>
AnchorPoint: "Bottom" 273 0 basechar 0
LayerCount: 2
Fore
SplineSet
445 716 m 1
 309 575 l 1
 240 575 l 1
 355 720 l 1
 445 720 l 1
 445 716 l 1
309 521 m 2
 317 521 l 2
 429 521 502 454 502 346 c 0
 502 335 501 323 499 310 c 1
 406 310 l 1
 407 319 408 328 408 337 c 0
 408 400 374 446 301 446 c 0
 168 446 135 303 135 192 c 0
 135 104 180 65 252 65 c 0
 337 65 383 121 394 200 c 1
 484 200 l 1
 465 64 376 -10 243 -10 c 2
 235 -10 l 2
 120 -10 42 63 42 191 c 0
 42 366 124 521 309 521 c 2
EndSplineSet
EndChar

StartChar: ccaron
Encoding: 269 269 116
Width: 546
GlyphClass: 2
Flags: MW
HStem: -10 75<216 235 235 243> 446 75<309 317 317 337.5> 575 145<148 341 148 263>
VStem: 42 93<148 247.5 148 278.5> 408 94<340.5 368.5>
AnchorPoint: "Bottom" 273 0 basechar 0
LayerCount: 2
Fore
SplineSet
341 575 m 1
 263 575 l 1
 148 720 l 1
 228 720 l 1
 310 631 l 1
 417 720 l 1
 497 720 l 1
 341 575 l 1
309 521 m 2
 317 521 l 2
 429 521 502 454 502 346 c 0
 502 335 501 323 499 310 c 1
 406 310 l 1
 407 319 408 328 408 337 c 0
 408 400 374 446 301 446 c 0
 168 446 135 303 135 192 c 0
 135 104 180 65 252 65 c 0
 337 65 383 121 394 200 c 1
 484 200 l 1
 465 64 376 -10 243 -10 c 2
 235 -10 l 2
 120 -10 42 63 42 191 c 0
 42 366 124 521 309 521 c 2
EndSplineSet
EndChar

StartChar: ccedilla
Encoding: 231 231 117
Width: 546
GlyphClass: 2
Flags: MW
HStem: -197 51<183 218 180.5 222> -60 43<204 219 198 228> -10 75<216 235 235 243> 446 75<309 317 317 337.5>
VStem: 42 93<148 247.5 148 278.5> 265 63<-113 -83.5> 408 94<340.5 368.5>
LayerCount: 2
Fore
SplineSet
309 521 m 2
 317 521 l 2
 429 521 502 454 502 346 c 0
 502 335 501 323 499 310 c 1
 406 310 l 1
 407 319 408 328 408 337 c 0
 408 400 374 446 301 446 c 0
 168 446 135 303 135 192 c 0
 135 104 180 65 252 65 c 0
 337 65 383 121 394 200 c 1
 484 200 l 1
 465 64 376 -10 243 -10 c 2
 235 -10 l 2
 120 -10 42 63 42 191 c 0
 42 366 124 521 309 521 c 2
204 -17 m 1xde
 228 -17 l 2
 279 -17 328 -32 328 -90 c 0
 328 -176 245 -197 199 -197 c 0
 167 -197 132 -190 107 -175 c 1
 123 -126 l 1
 132 -131 159 -146 202 -146 c 0
 234 -146 265 -131 265 -95 c 0
 265 -72 246 -60 219 -60 c 2
 198 -60 l 1
 204 -17 l 1xde
EndSplineSet
EndChar

StartChar: d
Encoding: 100 100 118
Width: 612
GlyphClass: 2
Flags: MW
HStem: -10 75<210.5 250.5> 446 75<231.5 318.5 218.5 329.5> 700 20G<466 560 560 560>
VStem: 42 93<145 244 145 297.5> 381 91<44.5 106.5>
LayerCount: 2
Fore
SplineSet
466 720 m 1
 560 720 l 1
 517 424 472 121 472 92 c 0
 472 73 483 65 496 65 c 0
 511 65 532 72 543 79 c 1
 534 10 l 1
 521 2 493 -10 457 -10 c 0
 398 -10 381 24 381 65 c 1
 338 18 285 -10 216 -10 c 0
 116 -10 42 52 42 190 c 0
 42 405 153 521 284 521 c 0
 353 521 403 490 427 446 c 1
 466 720 l 1
297 446 m 0
 166 446 135 295 135 193 c 0
 135 97 177 65 244 65 c 0
 356 65 406 179 406 318 c 0
 406 414 362 446 297 446 c 0
EndSplineSet
EndChar

StartChar: eth
Encoding: 240 240 119
Width: 576
GlyphClass: 2
Flags: MW
HStem: -10 75<221 317 221 342> 446 75<245 324 221 343> 498 20G 709 20G
VStem: 40 96<150.5 254 150.5 270> 427 95<253 359>
LayerCount: 2
Fore
SplineSet
234 729 m 1xdc
 264 712 293 694 322 673 c 1
 422 717 l 1
 431 705 441 695 449 683 c 1
 356 643 l 1
 444 563 522 453 522 322 c 0
 522 132 439 -10 245 -10 c 0
 128 -10 40 54 40 188 c 0
 40 352 123 521 319 521 c 0xdc
 329 521 340 520 351 518 c 1
 331 547 307 577 280 605 c 1
 248 590 215 577 183 562 c 1
 152 595 l 1xbc
 252 639 l 1
 224 666 190 685 171 700 c 1
 194 711 214 718 234 729 c 1xdc
309 446 m 0
 181 446 136 310 136 198 c 0
 136 103 187 65 255 65 c 0
 379 65 427 195 427 311 c 0
 427 407 377 446 309 446 c 0
EndSplineSet
EndChar

StartChar: dcaron
Encoding: 271 271 120
Width: 612
GlyphClass: 2
Flags: MW
HStem: -10 75<210.5 250.5> 446 75<231.5 318.5 218.5 329.5> 575 111<606 631 590 707> 575 145<466 631 466 590>
VStem: 42 93<145 244 145 297.5> 381 91<44.5 106.5>
LayerCount: 2
Fore
SplineSet
466 720 m 1xdc
 560 720 l 1
 517 424 472 121 472 92 c 0
 472 73 483 65 496 65 c 0
 511 65 532 72 543 79 c 1
 534 10 l 1
 521 2 493 -10 457 -10 c 0
 398 -10 381 24 381 65 c 1
 338 18 285 -10 216 -10 c 0
 116 -10 42 52 42 190 c 0
 42 405 153 521 284 521 c 0
 353 521 403 490 427 446 c 1
 466 720 l 1xdc
695 601 m 1xe8
 639 451 l 1
 587 451 l 1
 631 575 l 1
 590 575 l 1
 606 686 l 1
 707 686 l 1
 695 601 l 1xe8
297 446 m 0
 166 446 135 295 135 193 c 0
 135 97 177 65 244 65 c 0
 356 65 406 179 406 318 c 0
 406 414 362 446 297 446 c 0
EndSplineSet
EndChar

StartChar: dcroat
Encoding: 273 273 121
Width: 612
GlyphClass: 2
Flags: MW
HStem: -10 75<210.5 250.5> 446 75<231.5 318.5 218.5 329.5> 590 74<260 447 247 458 552 628> 590 130<247 560 541 560 466 628 541 541>
VStem: 42 93<145 244 145 297.5> 381 91<44.5 104.5> 462 94
LayerCount: 2
Fore
SplineSet
628 590 m 1xda
 541 590 l 1
 505 341 472 117 472 92 c 0
 472 73 483 65 496 65 c 0
 511 65 532 72 543 79 c 1
 534 10 l 1
 521 2 493 -10 457 -10 c 0
 398 -10 381 24 381 65 c 1
 338 18 285 -10 216 -10 c 0
 116 -10 42 52 42 190 c 0
 42 405 153 521 284 521 c 0
 353 521 403 490 427 446 c 1
 447 590 l 1
 247 590 l 1xdc
 260 664 l 1
 458 664 l 1xea
 466 720 l 1
 560 720 l 1xda
 552 664 l 1
 642 664 l 1xea
 628 590 l 1xda
244 65 m 0
 356 65 406 179 406 318 c 0
 406 414 362 446 297 446 c 0
 166 446 135 295 135 193 c 0
 135 97 177 65 244 65 c 0
EndSplineSet
EndChar

StartChar: e
Encoding: 101 101 122
Width: 556
GlyphClass: 2
Flags: MW
HStem: -10 75<212 242 242 246> 234 73<150 412 150 494 137 412> 446 75<314 321 321 337.5>
VStem: 41 94<162.5 207.5 162.5 279.5> 415 92<339 344 327 377>
AnchorPoint: "Bottom" 278 0 basechar 0
LayerCount: 2
Fore
SplineSet
314 521 m 2
 321 521 l 2
 434 521 507 455 507 344 c 2
 507 333 l 2
 507 321 504 294 494 234 c 1
 137 234 l 1
 136 223 135 213 135 202 c 0
 135 123 168 65 256 65 c 0
 369 65 393 157 399 190 c 1
 488 190 l 1
 471 66 383 -10 246 -10 c 2
 242 -10 l 2
 121 -10 41 62 41 193 c 0
 41 366 129 521 314 521 c 2
306 446 m 0
 230 446 173 400 150 307 c 1
 412 307 l 1
 415 327 415 335 415 343 c 0
 415 411 369 446 306 446 c 0
EndSplineSet
EndChar

StartChar: eacute
Encoding: 233 233 123
Width: 556
GlyphClass: 2
Flags: MW
HStem: -10 75<212 242 242 246> 234 73<150 412 150 494 137 412> 446 75<314 321 321 337.5> 575 145<275 480 275 480>
VStem: 41 94<162.5 207.5 162.5 279.5> 415 92<339 344 327 377>
LayerCount: 2
Fore
SplineSet
480 716 m 1
 344 575 l 1
 275 575 l 1
 390 720 l 1
 480 720 l 1
 480 716 l 1
314 521 m 2
 321 521 l 2
 434 521 507 455 507 344 c 2
 507 333 l 2
 507 321 504 294 494 234 c 1
 137 234 l 1
 136 223 135 213 135 202 c 0
 135 123 168 65 256 65 c 0
 369 65 393 157 399 190 c 1
 488 190 l 1
 471 66 383 -10 246 -10 c 2
 242 -10 l 2
 121 -10 41 62 41 193 c 0
 41 366 129 521 314 521 c 2
306 446 m 0
 230 446 173 400 150 307 c 1
 412 307 l 1
 415 327 415 335 415 343 c 0
 415 411 369 446 306 446 c 0
EndSplineSet
EndChar

StartChar: ecaron
Encoding: 283 283 124
Width: 556
GlyphClass: 2
Flags: MW
HStem: -10 75<212 242 242 246> 234 73<150 412 150 494 137 412> 446 75<314 321 321 337.5> 575 145<153 346 153 268>
VStem: 41 94<162.5 207.5 162.5 279.5> 415 92<339 344 327 377>
AnchorPoint: "Bottom" 278 0 basechar 0
LayerCount: 2
Fore
SplineSet
346 575 m 1
 268 575 l 1
 153 720 l 1
 233 720 l 1
 315 631 l 1
 422 720 l 1
 502 720 l 1
 346 575 l 1
314 521 m 2
 321 521 l 2
 434 521 507 455 507 344 c 2
 507 333 l 2
 507 321 504 294 494 234 c 1
 137 234 l 1
 136 223 135 213 135 202 c 0
 135 123 168 65 256 65 c 0
 369 65 393 157 399 190 c 1
 488 190 l 1
 471 66 383 -10 246 -10 c 2
 242 -10 l 2
 121 -10 41 62 41 193 c 0
 41 366 129 521 314 521 c 2
306 446 m 0
 230 446 173 400 150 307 c 1
 412 307 l 1
 415 327 415 335 415 343 c 0
 415 411 369 446 306 446 c 0
EndSplineSet
EndChar

StartChar: ecircumflex
Encoding: 234 234 125
Width: 556
GlyphClass: 2
Flags: MW
HStem: -10 75<212 242 242 246> 234 73<150 412 150 494 137 412> 446 75<314 321 321 337.5> 575 145<142 377 299 491 299 411> 664 56<330 330>
VStem: 41 94<162.5 207.5 162.5 279.5> 415 92<339 344 327 377>
LayerCount: 2
Fore
SplineSet
491 575 m 1xf6
 411 575 l 1xf6
 330 664 l 1xee
 222 575 l 1
 142 575 l 1
 299 720 l 1
 377 720 l 1
 491 575 l 1xf6
314 521 m 2
 321 521 l 2
 434 521 507 455 507 344 c 2
 507 333 l 2
 507 321 504 294 494 234 c 1
 137 234 l 1
 136 223 135 213 135 202 c 0
 135 123 168 65 256 65 c 0
 369 65 393 157 399 190 c 1
 488 190 l 1
 471 66 383 -10 246 -10 c 2
 242 -10 l 2
 121 -10 41 62 41 193 c 0
 41 366 129 521 314 521 c 2
306 446 m 0
 230 446 173 400 150 307 c 1
 412 307 l 1
 415 327 415 335 415 343 c 0
 415 411 369 446 306 446 c 0
EndSplineSet
EndChar

StartChar: edieresis
Encoding: 235 235 126
Width: 556
GlyphClass: 2
Flags: MW
HStem: -10 75<212 242 242 246> 234 73<150 412 150 494 137 412> 446 75<314 321 321 337.5> 622 98<196 273 183 286 196 371 384 462>
VStem: 41 94<162.5 207.5 162.5 279.5> 415 92<339 344 327 377>
LayerCount: 2
Fore
SplineSet
273 622 m 1
 183 622 l 1
 196 720 l 1
 286 720 l 1
 273 622 l 1
462 622 m 1
 371 622 l 1
 384 720 l 1
 475 720 l 1
 462 622 l 1
314 521 m 2
 321 521 l 2
 434 521 507 455 507 344 c 2
 507 333 l 2
 507 321 504 294 494 234 c 1
 137 234 l 1
 136 223 135 213 135 202 c 0
 135 123 168 65 256 65 c 0
 369 65 393 157 399 190 c 1
 488 190 l 1
 471 66 383 -10 246 -10 c 2
 242 -10 l 2
 121 -10 41 62 41 193 c 0
 41 366 129 521 314 521 c 2
306 446 m 0
 230 446 173 400 150 307 c 1
 412 307 l 1
 415 327 415 335 415 343 c 0
 415 411 369 446 306 446 c 0
EndSplineSet
EndChar

StartChar: edotaccent
Encoding: 279 279 127
Width: 556
GlyphClass: 2
Flags: MW
HStem: -10 75<212 242 242 246> 234 73<150 412 150 494 137 412> 446 75<314 321 321 337.5> 604 132<312.5 338.5>
VStem: 41 94<162.5 207.5 162.5 279.5> 261 133<657.5 679.5> 415 92<339 344 327 377>
AnchorPoint: "Bottom" 278 0 basechar 0
LayerCount: 2
Fore
SplineSet
336 736 m 0
 371 736 394 710 394 677 c 0
 394 638 361 604 316 604 c 0
 285 604 261 627 261 658 c 0
 261 701 289 736 336 736 c 0
314 521 m 2
 321 521 l 2
 434 521 507 455 507 344 c 2
 507 333 l 2
 507 321 504 294 494 234 c 1xea
 137 234 l 1
 136 223 135 213 135 202 c 0
 135 123 168 65 256 65 c 0
 369 65 393 157 399 190 c 1
 488 190 l 1
 471 66 383 -10 246 -10 c 2
 242 -10 l 2
 121 -10 41 62 41 193 c 0
 41 366 129 521 314 521 c 2
306 446 m 0
 230 446 173 400 150 307 c 1
 412 307 l 1
 415 327 415 335 415 343 c 0
 415 411 369 446 306 446 c 0
EndSplineSet
EndChar

StartChar: egrave
Encoding: 232 232 128
Width: 556
GlyphClass: 2
Flags: MW
HStem: -10 75<212 242 242 246> 234 73<150 412 150 494 137 412> 446 75<314 321 321 337.5> 575 145<193 356 193 286>
VStem: 41 94<162.5 207.5 162.5 279.5> 415 92<339 344 327 377>
LayerCount: 2
Fore
SplineSet
356 575 m 1
 286 575 l 1
 191 717 l 1
 193 720 l 1
 282 720 l 1
 356 575 l 1
314 521 m 2
 321 521 l 2
 434 521 507 455 507 344 c 2
 507 333 l 2
 507 321 504 294 494 234 c 1
 137 234 l 1
 136 223 135 213 135 202 c 0
 135 123 168 65 256 65 c 0
 369 65 393 157 399 190 c 1
 488 190 l 1
 471 66 383 -10 246 -10 c 2
 242 -10 l 2
 121 -10 41 62 41 193 c 0
 41 366 129 521 314 521 c 2
306 446 m 0
 230 446 173 400 150 307 c 1
 412 307 l 1
 415 327 415 335 415 343 c 0
 415 411 369 446 306 446 c 0
EndSplineSet
EndChar

StartChar: emacron
Encoding: 275 275 129
Width: 556
GlyphClass: 2
Flags: MW
HStem: -10 75<212 242 242 246> 234 73<150 412 150 494 137 412> 446 75<314 321 321 337.5> 662 74<174 481 163 492>
VStem: 41 94<162.5 207.5 162.5 279.5> 415 92<339 344 327 377>
AnchorPoint: "Bottom" 278 0 basechar 0
LayerCount: 2
Fore
SplineSet
481 662 m 1
 163 662 l 1
 174 736 l 1
 492 736 l 1
 481 662 l 1
314 521 m 2
 321 521 l 2
 434 521 507 455 507 344 c 2
 507 333 l 2
 507 321 504 294 494 234 c 1
 137 234 l 1
 136 223 135 213 135 202 c 0
 135 123 168 65 256 65 c 0
 369 65 393 157 399 190 c 1
 488 190 l 1
 471 66 383 -10 246 -10 c 2
 242 -10 l 2
 121 -10 41 62 41 193 c 0
 41 366 129 521 314 521 c 2
306 446 m 0
 230 446 173 400 150 307 c 1
 412 307 l 1
 415 327 415 335 415 343 c 0
 415 411 369 446 306 446 c 0
EndSplineSet
EndChar

StartChar: eogonek
Encoding: 281 281 130
Width: 556
GlyphClass: 2
Flags: MW
HStem: -143 47<322.5 332.5> -20 20G<326 348 348 348> -10 75<212 242 242 246> 234 73<150 412 150 494 137 412> 446 75<314 321 321 337.5>
VStem: 41 94<162.5 207.5 162.5 279.5> 229 63<-76.5 -66> 415 92<339 344 327 377>
AnchorPoint: "Bottom" 278 0 basechar 0
LayerCount: 2
Fore
SplineSet
314 521 m 2xbf
 321 521 l 2
 434 521 507 455 507 344 c 2
 507 333 l 2
 507 321 504 294 494 234 c 1
 137 234 l 1
 136 223 135 213 135 202 c 0
 135 123 168 65 256 65 c 0xbf
 369 65 393 157 399 190 c 1
 488 190 l 1
 475 92 417 24 326 0 c 1
 348 0 l 1xdf
 323 -11 292 -40 292 -65 c 0
 292 -88 313 -96 332 -96 c 0
 356 -96 378 -89 401 -82 c 1
 409 -119 l 1
 380 -135 349 -143 316 -143 c 0
 273 -143 229 -128 229 -83 c 0
 229 -49 253 -26 281 -8 c 1
 270 -9 258 -10 246 -10 c 2
 242 -10 l 2
 121 -10 41 62 41 193 c 0
 41 366 129 521 314 521 c 2xbf
150 307 m 1
 412 307 l 1
 415 327 415 335 415 343 c 0
 415 411 369 446 306 446 c 0
 230 446 173 400 150 307 c 1
EndSplineSet
EndChar

StartChar: f
Encoding: 102 102 131
Width: 340
GlyphClass: 2
Flags: MW
HStem: -184 74<-10 2 -18.5 40.5> 436 75<76 125 66 134 227 338> 654 74<290.5 304 252 312.5> 708 20G<252 304>
VStem: -80 454
LayerCount: 2
Fore
SplineSet
290 728 m 0xe8
 318 728 354 721 374 709 c 1xd8
 365 640 l 1
 350 647 320 654 305 654 c 0
 276 654 248 648 239 590 c 2
 227 511 l 1
 347 511 l 1
 338 436 l 1
 218 436 l 1
 147 -58 l 2
 134 -147 77 -184 4 -184 c 0
 -24 -184 -61 -177 -80 -165 c 1
 -72 -96 l 1
 -57 -103 -26 -110 -11 -110 c 0
 15 -110 45 -104 54 -46 c 2
 125 436 l 1
 66 436 l 1
 76 511 l 1
 134 511 l 1
 147 602 l 2
 160 691 214 728 290 728 c 0xe8
EndSplineSet
EndChar

StartChar: g
Encoding: 103 103 132
Width: 583
GlyphClass: 2
Flags: MW
HStem: -186 75<188.5 264 188.5 294> 20 75<217 251> 446 75<259.5 330.5 208 333> 491 20G<496 532 532 532>
VStem: 21 93<-47 -19 -47 -19> 44 96<172 288>
LayerCount: 2
Fore
SplineSet
292 521 m 0xe4
 369 521 422 491 451 430 c 1xe4
 496 511 l 1
 532 511 l 1
 465 34 l 2
 449 -89 375 -186 213 -186 c 0
 81 -186 21 -111 21 -19 c 1
 114 -19 l 1xd8
 114 -75 154 -111 223 -111 c 0
 305 -111 358 -54 368 15 c 2
 379 95 l 1
 344 52 287 20 215 20 c 0
 117 20 44 85 44 208 c 0
 44 368 124 521 292 521 c 0xe4
300 446 m 0
 219 446 140 394 140 217 c 0
 140 127 184 95 250 95 c 0
 367 95 409 219 409 326 c 0
 409 417 366 446 300 446 c 0
EndSplineSet
EndChar

StartChar: gbreve
Encoding: 287 287 133
Width: 583
GlyphClass: 2
Flags: MW
HStem: -186 75<188.5 264 188.5 294> 20 75<217 251> 446 75<259.5 330.5 208 333> 491 20G<496 532 532 532> 613 62<273.5 335.5 273.5 349>
VStem: 21 93<-47 -19 -47 -19> 44 96<172 288>
LayerCount: 2
Fore
SplineSet
437 737 m 1xea
 505 737 l 1
 497 681 403 613 295 613 c 0
 195 613 119 674 119 729 c 0
 119 732 119 735 120 737 c 2
 187 737 l 1
 194 701 242 675 305 675 c 0
 366 675 421 701 437 737 c 1xea
292 521 m 0
 369 521 422 491 451 430 c 1xea
 496 511 l 1
 532 511 l 1
 465 34 l 2
 449 -89 375 -186 213 -186 c 0
 81 -186 21 -111 21 -19 c 1
 114 -19 l 1xdc
 114 -75 154 -111 223 -111 c 0
 305 -111 358 -54 368 15 c 2
 379 95 l 1
 344 52 287 20 215 20 c 0
 117 20 44 85 44 208 c 0
 44 368 124 521 292 521 c 0
300 446 m 0
 219 446 140 394 140 217 c 0
 140 127 184 95 250 95 c 0
 367 95 409 219 409 326 c 0
 409 417 366 446 300 446 c 0
EndSplineSet
EndChar

StartChar: gcommaaccent
Encoding: 291 291 134
Width: 583
GlyphClass: 2
Flags: MW
HStem: -186 75<188.5 264 188.5 294> 20 75<217 251> 446 75<259.5 330.5 208 333> 491 20G<496 532 532 532> 581 111<344 369 268 385>
VStem: 21 93<-47 -19 -47 -19> 44 96<172 288>
LayerCount: 2
Fore
SplineSet
280 666 m 1xea
 327 791 l 1
 380 791 l 1
 344 692 l 1
 385 692 l 1
 369 581 l 1
 268 581 l 1
 280 666 l 1xea
292 521 m 0
 369 521 422 491 451 430 c 1xea
 496 511 l 1
 532 511 l 1
 465 34 l 2
 449 -89 375 -186 213 -186 c 0
 81 -186 21 -111 21 -19 c 1
 114 -19 l 1xdc
 114 -75 154 -111 223 -111 c 0
 305 -111 358 -54 368 15 c 2
 379 95 l 1
 344 52 287 20 215 20 c 0
 117 20 44 85 44 208 c 0
 44 368 124 521 292 521 c 0
300 446 m 0
 219 446 140 394 140 217 c 0
 140 127 184 95 250 95 c 0
 367 95 409 219 409 326 c 0
 409 417 366 446 300 446 c 0
EndSplineSet
EndChar

StartChar: h
Encoding: 104 104 135
Width: 593
GlyphClass: 2
Flags: MW
HStem: 446 75<338.5 363> 700 20G<143 237 237 237>
VStem: 428 97<371 388>
LayerCount: 2
Fore
SplineSet
237 720 m 1
 199 447 l 1
 251 500 310 521 367 521 c 0
 458 521 525 478 525 380 c 0
 525 362 512 268 499 177 c 2
 474 0 l 1
 380 0 l 1
 404 167 l 2
 416 252 427 342 428 356 c 0
 428 420 391 446 335 446 c 0
 264 446 190 384 179 304 c 2
 136 0 l 1
 42 0 l 1
 143 720 l 1
 237 720 l 1
EndSplineSet
EndChar

StartChar: i
Encoding: 105 105 136
Width: 260
GlyphClass: 2
Flags: MW
HStem: 491 20G<114 208 208 208> 633 87<141 227 129 239>
VStem: 42 197
LayerCount: 2
Fore
SplineSet
227 633 m 1
 129 633 l 1
 141 720 l 1
 239 720 l 1
 227 633 l 1
136 0 m 1
 42 0 l 1
 114 511 l 1
 208 511 l 1
 136 0 l 1
EndSplineSet
EndChar

StartChar: dotlessi
Encoding: 305 305 137
Width: 261
GlyphClass: 2
Flags: MW
HStem: 491 20G<114 208 208 208>
VStem: 43 165
LayerCount: 2
Fore
SplineSet
137 0 m 1
 43 0 l 1
 114 511 l 1
 208 511 l 1
 137 0 l 1
EndSplineSet
EndChar

StartChar: iacute
Encoding: 237 237 138
Width: 261
GlyphClass: 2
Flags: MW
HStem: 491 20G<114 208 208 208> 575 145<117 322 117 322>
VStem: 43 279
LayerCount: 2
Fore
SplineSet
322 716 m 1
 186 575 l 1
 117 575 l 1
 232 720 l 1
 322 720 l 1
 322 716 l 1
137 0 m 1
 43 0 l 1
 114 511 l 1
 208 511 l 1
 137 0 l 1
EndSplineSet
EndChar

StartChar: icircumflex
Encoding: 238 238 139
Width: 261
GlyphClass: 2
Flags: MW
HStem: 491 20G<114 208 208 208> 575 145<-10 225 147 339 147 259> 664 56<178 178>
VStem: -10 349<575 575>
LayerCount: 2
Fore
SplineSet
339 575 m 1xd0
 259 575 l 1xd0
 178 664 l 1xb0
 70 575 l 1
 -10 575 l 1
 147 720 l 1
 225 720 l 1
 339 575 l 1xd0
137 0 m 1
 43 0 l 1
 114 511 l 1
 208 511 l 1
 137 0 l 1
EndSplineSet
EndChar

StartChar: idieresis
Encoding: 239 239 140
Width: 261
GlyphClass: 2
Flags: MW
HStem: 491 20G<114 208 208 208> 621 98<46 123 33 136 46 221 234 312>
VStem: 33 292<621 719>
LayerCount: 2
Fore
SplineSet
123 621 m 1
 33 621 l 1
 46 719 l 1
 136 719 l 1
 123 621 l 1
312 621 m 1
 221 621 l 1
 234 719 l 1
 325 719 l 1
 312 621 l 1
137 0 m 1
 43 0 l 1
 114 511 l 1
 208 511 l 1
 137 0 l 1
EndSplineSet
EndChar

StartChar: igrave
Encoding: 236 236 141
Width: 261
GlyphClass: 2
Flags: MW
HStem: 491 20G<114 208 208 208> 575 145<37 200 37 130>
VStem: 35 173
LayerCount: 2
Fore
SplineSet
200 575 m 1
 130 575 l 1
 35 717 l 1
 37 720 l 1
 126 720 l 1
 200 575 l 1
137 0 m 1
 43 0 l 1
 114 511 l 1
 208 511 l 1
 137 0 l 1
EndSplineSet
EndChar

StartChar: imacron
Encoding: 299 299 142
Width: 261
GlyphClass: 2
Flags: MW
HStem: 491 20G<114 208 208 208> 662 74<27 334 16 345>
VStem: 16 329<662 736>
LayerCount: 2
Fore
SplineSet
334 662 m 1
 16 662 l 1
 27 736 l 1
 345 736 l 1
 334 662 l 1
137 0 m 1
 43 0 l 1
 114 511 l 1
 208 511 l 1
 137 0 l 1
EndSplineSet
EndChar

StartChar: iogonek
Encoding: 303 303 143
Width: 261
GlyphClass: 2
Flags: MW
HStem: -143 47<107.5 117.5> 491 20G<114 208 208 208> 633 87<141 227 129 239>
VStem: 14 63<-76.5 -63.5>
LayerCount: 2
Fore
SplineSet
239 720 m 1
 227 633 l 1
 129 633 l 1
 141 720 l 1
 239 720 l 1
137 0 m 1
 133 0 l 1
 108 -11 77 -40 77 -65 c 0
 77 -88 98 -96 117 -96 c 0
 141 -96 163 -89 186 -82 c 1
 194 -119 l 1
 165 -135 134 -143 101 -143 c 0
 58 -143 14 -128 14 -83 c 0
 14 -44 47 -19 79 0 c 1
 43 0 l 1
 114 511 l 1
 208 511 l 1
 137 0 l 1
EndSplineSet
EndChar

StartChar: j
Encoding: 106 106 144
Width: 260
GlyphClass: 2
Flags: MW
HStem: -186 74<-28 -16 -36.5 32> 491 20G<114 208 208 208> 633 87<141 227 129 239>
VStem: -96 335
LayerCount: 2
Fore
SplineSet
227 633 m 1
 129 633 l 1
 141 720 l 1
 239 720 l 1
 227 633 l 1
208 511 m 1
 134 -15 l 2
 117 -134 78 -186 -14 -186 c 0
 -42 -186 -77 -179 -96 -167 c 1
 -87 -97 l 1
 -72 -104 -44 -112 -29 -112 c 0
 -3 -112 28 -103 36 -44 c 2
 114 511 l 1
 208 511 l 1
EndSplineSet
EndChar

StartChar: k
Encoding: 107 107 145
Width: 534
GlyphClass: 2
Flags: MW
HStem: 491 20G<436 539 539 539> 700 20G<143 237 237 237>
VStem: 42 497
AnchorPoint: "Bottom" 267 0 basechar 0
LayerCount: 2
Fore
SplineSet
168 226 m 1
 436 511 l 1
 539 511 l 1
 307 263 l 1
 480 0 l 1
 366 0 l 1
 240 190 l 1
 151 110 l 1
 136 0 l 1
 42 0 l 1
 143 720 l 1
 237 720 l 1
 168 226 l 1
EndSplineSet
EndChar

StartChar: kcommaaccent
Encoding: 311 311 146
Width: 534
GlyphClass: 2
Flags: MW
HStem: -151 111<210 235 194 311> 491 20G<436 539 539 539> 700 20G<143 237 237 237>
VStem: 42 497
AnchorPoint: "Bottom" 267 0 basechar 0
LayerCount: 2
Fore
SplineSet
168 226 m 1
 436 511 l 1
 539 511 l 1
 307 263 l 1
 480 0 l 1
 366 0 l 1
 240 190 l 1
 151 110 l 1
 136 0 l 1
 42 0 l 1
 143 720 l 1
 237 720 l 1
 168 226 l 1
299 -125 m 1
 252 -250 l 1
 199 -250 l 1
 235 -151 l 1
 194 -151 l 1
 210 -40 l 1
 311 -40 l 1
 299 -125 l 1
EndSplineSet
EndChar

StartChar: l
Encoding: 108 108 147
Width: 268
GlyphClass: 2
Flags: MW
HStem: 700 20G<147 241 241 241>
VStem: 46 195
AnchorPoint: "Bottom" 93 0 basechar 0
LayerCount: 2
Fore
SplineSet
140 0 m 1
 46 0 l 1
 147 720 l 1
 241 720 l 1
 140 0 l 1
EndSplineSet
EndChar

StartChar: lacute
Encoding: 314 314 148
Width: 268
GlyphClass: 2
Flags: MW
HStem: 700 20G<147 241 241 241> 750 145<134 339 134 339>
VStem: 46 293
AnchorPoint: "Bottom" 93 0 basechar 0
LayerCount: 2
Fore
SplineSet
339 891 m 1
 203 750 l 1
 134 750 l 1
 249 895 l 1
 339 895 l 1
 339 891 l 1
140 0 m 1
 46 0 l 1
 147 720 l 1
 241 720 l 1xa0
 140 0 l 1
EndSplineSet
EndChar

StartChar: lcaron
Encoding: 318 318 149
Width: 268
GlyphClass: 2
Flags: MW
HStem: 575 111<292 317 276 393> 575 145<147 317 147 276>
VStem: 46 347
AnchorPoint: "Bottom" 93 0 basechar 0
LayerCount: 2
Fore
SplineSet
140 0 m 1xa0
 46 0 l 1
 147 720 l 1
 241 720 l 1x60
 140 0 l 1xa0
381 601 m 1xa0
 325 451 l 1
 273 451 l 1
 317 575 l 1
 276 575 l 1
 292 686 l 1
 393 686 l 1
 381 601 l 1xa0
EndSplineSet
EndChar

StartChar: lcommaaccent
Encoding: 316 316 150
Width: 268
GlyphClass: 2
Flags: MW
HStem: -151 111<36 61 20 137> 700 20G<147 241 241 241>
VStem: 20 221
AnchorPoint: "Bottom" 93 0 basechar 0
LayerCount: 2
Fore
SplineSet
140 0 m 1
 46 0 l 1
 147 720 l 1
 241 720 l 1
 140 0 l 1
125 -125 m 1
 78 -250 l 1
 25 -250 l 1
 61 -151 l 1
 20 -151 l 1
 36 -40 l 1
 137 -40 l 1
 125 -125 l 1
EndSplineSet
EndChar

StartChar: lslash
Encoding: 322 322 151
Width: 297
GlyphClass: 2
Flags: MW
HStem: 700 20G<161 255 255 255>
VStem: 18 286<281 481>
LayerCount: 2
Fore
SplineSet
216 440 m 1
 304 481 l 1
 294 411 l 1
 206 370 l 1
 154 0 l 1
 60 0 l 1
 105 322 l 1
 18 281 l 1
 27 351 l 1
 115 392 l 1
 161 720 l 1
 255 720 l 1
 216 440 l 1
EndSplineSet
EndChar

StartChar: m
Encoding: 109 109 152
Width: 867
GlyphClass: 2
Flags: MW
HStem: 446 75<322.5 343 629 649> 491 20G<114 184 184 184>
VStem: 702 97<374 394.5>
LayerCount: 2
Fore
SplineSet
657 521 m 0xa0
 740 521 799 479 799 384 c 0
 799 364 786 268 773 177 c 2
 748 0 l 1
 654 0 l 1
 678 170 l 2
 689 258 702 346 702 361 c 0
 702 428 673 446 625 446 c 0
 561 446 496 384 485 304 c 2
 442 0 l 1
 348 0 l 1
 372 171 l 2
 384 258 396 348 397 361 c 0
 397 422 367 446 319 446 c 0xa0
 255 446 190 384 179 304 c 2
 136 0 l 1
 42 0 l 1
 114 511 l 1
 184 511 l 1x60
 184 436 l 1
 236 497 294 521 351 521 c 0
 418 521 466 495 485 436 c 1
 544 505 601 521 657 521 c 0xa0
EndSplineSet
EndChar

StartChar: n
Encoding: 110 110 153
Width: 593
GlyphClass: 2
Flags: MW
HStem: 446 75<335.5 363> 491 20G<114 184 184 184>
VStem: 428 97<372 388>
AnchorPoint: "Bottom" 258 0 basechar 0
LayerCount: 2
Fore
SplineSet
367 521 m 0xa0
 458 521 525 478 525 380 c 0
 525 364 512 268 499 178 c 2
 474 0 l 1
 380 0 l 1
 404 167 l 2
 415 253 428 340 428 356 c 0
 428 420 391 446 335 446 c 0xa0
 264 446 190 384 179 304 c 2
 136 0 l 1
 42 0 l 1
 114 511 l 1
 184 511 l 1x60
 184 436 l 1
 240 497 304 521 367 521 c 0xa0
EndSplineSet
EndChar

StartChar: nacute
Encoding: 324 324 154
Width: 593
GlyphClass: 2
Flags: MW
HStem: 446 75<335.5 363> 491 20G<114 184 184 184> 575 145<274 479 274 479>
VStem: 428 97<372 388>
AnchorPoint: "Bottom" 258 0 basechar 0
LayerCount: 2
Fore
SplineSet
479 716 m 1xb0
 343 575 l 1
 274 575 l 1
 389 720 l 1
 479 720 l 1
 479 716 l 1xb0
367 521 m 0
 458 521 525 478 525 380 c 0
 525 364 512 268 499 178 c 2
 474 0 l 1
 380 0 l 1
 404 167 l 2
 415 253 428 340 428 356 c 0
 428 420 391 446 335 446 c 0xb0
 264 446 190 384 179 304 c 2
 136 0 l 1
 42 0 l 1
 114 511 l 1
 184 511 l 1x70
 184 436 l 1
 240 497 304 521 367 521 c 0
EndSplineSet
EndChar

StartChar: ncaron
Encoding: 328 328 155
Width: 593
GlyphClass: 2
Flags: MW
HStem: 446 75<335.5 363> 491 20G<114 184 184 184> 575 145<182 375 182 297>
VStem: 428 97<372 388>
AnchorPoint: "Bottom" 258 0 basechar 0
LayerCount: 2
Fore
SplineSet
375 575 m 1xb0
 297 575 l 1
 182 720 l 1
 262 720 l 1
 344 631 l 1
 451 720 l 1
 531 720 l 1
 375 575 l 1xb0
367 521 m 0
 458 521 525 478 525 380 c 0
 525 364 512 268 499 178 c 2
 474 0 l 1
 380 0 l 1
 404 167 l 2
 415 253 428 340 428 356 c 0
 428 420 391 446 335 446 c 0xb0
 264 446 190 384 179 304 c 2
 136 0 l 1
 42 0 l 1
 114 511 l 1
 184 511 l 1x70
 184 436 l 1
 240 497 304 521 367 521 c 0
EndSplineSet
EndChar

StartChar: ncommaaccent
Encoding: 326 326 156
Width: 593
GlyphClass: 2
Flags: MW
HStem: -151 111<201 226 185 302> 446 75<335.5 363> 491 20G<114 184 184 184>
VStem: 428 97<372 388>
AnchorPoint: "Bottom" 258 0 basechar 0
LayerCount: 2
Fore
SplineSet
367 521 m 0xd0
 458 521 525 478 525 380 c 0
 525 364 512 268 499 178 c 2
 474 0 l 1
 380 0 l 1
 404 167 l 2
 415 253 428 340 428 356 c 0
 428 420 391 446 335 446 c 0xd0
 264 446 190 384 179 304 c 2
 136 0 l 1
 42 0 l 1
 114 511 l 1
 184 511 l 1xb0
 184 436 l 1
 240 497 304 521 367 521 c 0xd0
290 -125 m 1
 243 -250 l 1
 190 -250 l 1
 226 -151 l 1
 185 -151 l 1
 201 -40 l 1
 302 -40 l 1
 290 -125 l 1
EndSplineSet
EndChar

StartChar: ntilde
Encoding: 241 241 157
Width: 593
GlyphClass: 2
Flags: MW
HStem: 446 75<335.5 363> 491 20G<114 184 184 184> 616 69<416.5 458 416.5 465> 650 70<247 289>
VStem: 428 97<372 388>
LayerCount: 2
Fore
SplineSet
503 720 m 1x98
 553 720 l 1
 545 672 504 616 426 616 c 0
 362 616 316 650 262 650 c 0x98
 232 650 212 639 202 616 c 1
 154 616 l 1
 162 661 202 720 280 720 c 0
 344 720 390 685 443 685 c 0xa8
 473 685 493 697 503 720 c 1x98
367 521 m 0
 458 521 525 478 525 380 c 0
 525 364 512 268 499 178 c 2
 474 0 l 1
 380 0 l 1
 404 167 l 2
 415 253 428 340 428 356 c 0
 428 420 391 446 335 446 c 0xa8
 264 446 190 384 179 304 c 2
 136 0 l 1
 42 0 l 1
 114 511 l 1
 184 511 l 1x68
 184 436 l 1
 240 497 304 521 367 521 c 0
EndSplineSet
EndChar

StartChar: o
Encoding: 111 111 158
Width: 576
GlyphClass: 2
Flags: MW
HStem: -10 75<222 321.5 222 350.5> 446 75<241 343>
VStem: 41 95<152.5 254.5 152.5 269> 428 96<255.5 358>
LayerCount: 2
Fore
SplineSet
320 521 m 0
 436 521 524 457 524 324 c 0
 524 159 456 -10 245 -10 c 0
 129 -10 41 54 41 187 c 0
 41 351 109 521 320 521 c 0
309 446 m 0
 173 446 136 309 136 200 c 0
 136 105 188 65 256 65 c 0
 387 65 428 201 428 310 c 0
 428 406 377 446 309 446 c 0
EndSplineSet
Substitution2: "Single Substitution lookup 5 subtable" ordmasculine
Substitution2: "'aalt' Access All Alternates lookup 0 subtable" ordmasculine
EndChar

StartChar: oacute
Encoding: 243 243 159
Width: 576
GlyphClass: 2
Flags: MW
HStem: -10 75<222 321.5 222 350.5> 446 75<241 343> 575 145<294 499 294 499>
VStem: 41 95<152.5 254.5 152.5 269> 428 96<255.5 358>
LayerCount: 2
Fore
SplineSet
499 716 m 1
 363 575 l 1
 294 575 l 1
 409 720 l 1
 499 720 l 1
 499 716 l 1
320 521 m 0
 436 521 524 457 524 324 c 0
 524 159 456 -10 245 -10 c 0
 129 -10 41 54 41 187 c 0
 41 351 109 521 320 521 c 0
309 446 m 0
 173 446 136 309 136 200 c 0
 136 105 188 65 256 65 c 0
 387 65 428 201 428 310 c 0
 428 406 377 446 309 446 c 0
EndSplineSet
EndChar

StartChar: ocircumflex
Encoding: 244 244 160
Width: 576
GlyphClass: 2
Flags: MW
HStem: -10 75<222 321.5 222 350.5> 446 75<241 343> 575 145<161 396 318 510 318 430> 664 56<349 349>
VStem: 41 95<152.5 254.5 152.5 269> 428 96<255.5 358>
LayerCount: 2
Fore
SplineSet
510 575 m 1xec
 430 575 l 1xec
 349 664 l 1xdc
 241 575 l 1
 161 575 l 1
 318 720 l 1
 396 720 l 1
 510 575 l 1xec
320 521 m 0
 436 521 524 457 524 324 c 0
 524 159 456 -10 245 -10 c 0
 129 -10 41 54 41 187 c 0
 41 351 109 521 320 521 c 0
309 446 m 0
 173 446 136 309 136 200 c 0
 136 105 188 65 256 65 c 0
 387 65 428 201 428 310 c 0
 428 406 377 446 309 446 c 0
EndSplineSet
EndChar

StartChar: odieresis
Encoding: 246 246 161
Width: 576
GlyphClass: 2
Flags: MW
HStem: -10 75<222 321.5 222 350.5> 446 75<241 343> 621 98<205 282 192 295 205 380 393 471>
VStem: 41 95<152.5 254.5 152.5 269> 428 96<255.5 358>
LayerCount: 2
Fore
SplineSet
282 621 m 1
 192 621 l 1
 205 719 l 1
 295 719 l 1
 282 621 l 1
471 621 m 1
 380 621 l 1
 393 719 l 1
 484 719 l 1
 471 621 l 1
320 521 m 0
 436 521 524 457 524 324 c 0
 524 159 456 -10 245 -10 c 0
 129 -10 41 54 41 187 c 0
 41 351 109 521 320 521 c 0
309 446 m 0
 173 446 136 309 136 200 c 0
 136 105 188 65 256 65 c 0
 387 65 428 201 428 310 c 0
 428 406 377 446 309 446 c 0
EndSplineSet
EndChar

StartChar: ograve
Encoding: 242 242 162
Width: 576
GlyphClass: 2
Flags: MW
HStem: -10 75<222 321.5 222 350.5> 446 75<241 343> 575 145<203 366 203 296>
VStem: 41 95<152.5 254.5 152.5 269> 428 96<255.5 358>
LayerCount: 2
Fore
SplineSet
366 575 m 1
 296 575 l 1
 201 717 l 1
 203 720 l 1
 292 720 l 1
 366 575 l 1
320 521 m 0
 436 521 524 457 524 324 c 0
 524 159 456 -10 245 -10 c 0
 129 -10 41 54 41 187 c 0
 41 351 109 521 320 521 c 0
309 446 m 0
 173 446 136 309 136 200 c 0
 136 105 188 65 256 65 c 0
 387 65 428 201 428 310 c 0
 428 406 377 446 309 446 c 0
EndSplineSet
EndChar

StartChar: ohungarumlaut
Encoding: 337 337 163
Width: 576
GlyphClass: 2
Flags: MW
HStem: -10 75<222 321.5 222 350.5> 446 75<241 343> 575 145<208 413 208 413 363 363 363 413 324 433>
VStem: 41 95<152.5 254.5 152.5 269> 428 96<255.5 358>
LayerCount: 2
Fore
SplineSet
413 715 m 1
 278 575 l 1
 208 575 l 1
 324 720 l 1
 413 720 l 1
 413 715 l 1
568 715 m 1
 433 575 l 1
 363 575 l 1
 478 720 l 1
 568 720 l 1
 568 715 l 1
320 521 m 0
 436 521 524 457 524 324 c 0
 524 159 456 -10 245 -10 c 0
 129 -10 41 54 41 187 c 0
 41 351 109 521 320 521 c 0
309 446 m 0
 173 446 136 309 136 200 c 0
 136 105 188 65 256 65 c 0
 387 65 428 201 428 310 c 0
 428 406 377 446 309 446 c 0
EndSplineSet
EndChar

StartChar: omacron
Encoding: 333 333 164
Width: 576
GlyphClass: 2
Flags: MW
HStem: -10 75<222 321.5 222 350.5> 446 75<241 343> 662 74<204 511 193 522>
VStem: 41 95<152.5 254.5 152.5 269> 428 96<255.5 358>
LayerCount: 2
Fore
SplineSet
511 662 m 1
 193 662 l 1
 204 736 l 1
 522 736 l 1
 511 662 l 1
320 521 m 0
 436 521 524 457 524 324 c 0
 524 159 456 -10 245 -10 c 0
 129 -10 41 54 41 187 c 0
 41 351 109 521 320 521 c 0
309 446 m 0
 173 446 136 309 136 200 c 0
 136 105 188 65 256 65 c 0
 387 65 428 201 428 310 c 0
 428 406 377 446 309 446 c 0
EndSplineSet
EndChar

StartChar: oslash
Encoding: 248 248 165
Width: 576
GlyphClass: 2
Flags: MW
HStem: -10 75<240.5 321.5 240.5 350.5> 446 75<240.5 323>
VStem: 41 95<184.5 200 184.5 269> 428 96<255.5 325.5>
LayerCount: 2
Fore
SplineSet
550 568 m 1
 472 466 l 1
 504 433 524 387 524 324 c 0
 524 159 456 -10 245 -10 c 0
 200 -10 161 -1 129 17 c 1
 74 -55 l 1
 15 -55 l 1
 92 45 l 1
 60 78 41 123 41 187 c 0
 41 351 109 521 320 521 c 0
 364 521 402 512 434 494 c 1
 491 568 l 1
 550 568 l 1
309 446 m 0
 172 446 144 309 136 200 c 0
 136 169 141 143 151 123 c 1
 381 425 l 1
 361 439 337 446 309 446 c 0
412 388 m 1
 182 86 l 1
 201 72 225 65 256 65 c 0
 387 65 428 201 428 310 c 0
 428 341 423 367 412 388 c 1
EndSplineSet
EndChar

StartChar: otilde
Encoding: 245 245 166
Width: 576
GlyphClass: 2
Flags: MW
HStem: -10 75<222 321.5 222 350.5> 446 75<241 343> 615 69<395.5 437 395.5 444> 649 70<226 268>
VStem: 41 95<152.5 254.5 152.5 269> 428 96<255.5 358>
LayerCount: 2
Fore
SplineSet
482 719 m 1xdc
 532 719 l 1
 524 671 483 615 405 615 c 0
 341 615 295 649 241 649 c 0
 211 649 191 638 181 615 c 1
 133 615 l 1xdc
 141 660 181 719 259 719 c 0
 323 719 369 684 422 684 c 0xec
 452 684 472 696 482 719 c 1xdc
320 521 m 0
 436 521 524 457 524 324 c 0
 524 159 456 -10 245 -10 c 0
 129 -10 41 54 41 187 c 0
 41 351 109 521 320 521 c 0
309 446 m 0
 173 446 136 309 136 200 c 0
 136 105 188 65 256 65 c 0
 387 65 428 201 428 310 c 0
 428 406 377 446 309 446 c 0
EndSplineSet
EndChar

StartChar: oe
Encoding: 339 339 167
Width: 933
GlyphClass: 2
Flags: MW
HStem: -10 75<222 291.5 589 619 619 623> 234 73<527 789 527 871 514 789> 446 75<240.5 343 691 698 698 714.5>
VStem: 41 95<152.5 200 152.5 269> 428 84<162.5 358> 792 92<339 344 327 377>
LayerCount: 2
Fore
SplineSet
691 521 m 2
 698 521 l 2
 811 521 884 455 884 344 c 2
 884 333 l 2
 884 321 881 294 871 234 c 1
 514 234 l 1
 513 223 512 213 512 202 c 0
 512 123 545 65 633 65 c 0
 746 65 770 157 776 190 c 1
 865 190 l 1
 848 66 760 -10 623 -10 c 2
 619 -10 l 2
 540 -10 481 19 448 75 c 1
 404 23 338 -10 245 -10 c 0
 129 -10 41 54 41 187 c 0
 41 351 109 521 320 521 c 0
 397 521 461 493 496 436 c 1
 541 488 606 521 691 521 c 2
309 446 m 0
 172 446 144 309 136 200 c 1
 136 105 188 65 256 65 c 0
 387 65 428 201 428 310 c 0
 428 406 377 446 309 446 c 0
683 446 m 0
 607 446 550 400 527 307 c 1
 789 307 l 1
 792 327 792 335 792 343 c 0
 792 411 746 446 683 446 c 0
EndSplineSet
EndChar

StartChar: p
Encoding: 112 112 168
Width: 583
GlyphClass: 2
Flags: MW
HStem: -10 75<253 342.5> 446 75<321 361.5> 491 20G<114 188 188 188>
VStem: 438 93<263.5 365.5>
LayerCount: 2
Fore
SplineSet
357 521 m 0xd0
 456 521 531 459 531 320 c 0
 531 181 469 -10 289 -10 c 0
 217 -10 170 21 146 65 c 1
 111 -181 l 1
 17 -181 l 1
 114 511 l 1
 188 511 l 1xb0
 188 441 l 1
 231 492 285 521 357 521 c 0xd0
329 446 m 0
 248 446 167 388 167 193 c 0
 167 97 209 65 276 65 c 0
 409 65 438 210 438 317 c 0
 438 414 394 446 329 446 c 0
EndSplineSet
EndChar

StartChar: thorn
Encoding: 254 254 169
Width: 582
GlyphClass: 2
Flags: MW
HStem: -10 75<253 339> 446 75<325 361.5> 700 20G<144 238 238 238>
VStem: 438 93<263.5 365.5>
LayerCount: 2
Fore
SplineSet
238 720 m 1
 201 455 l 1
 241 498 293 521 357 521 c 0
 456 521 531 459 531 320 c 0
 531 184 469 -10 289 -10 c 0
 217 -10 170 21 146 65 c 1
 111 -181 l 1
 17 -181 l 1
 144 720 l 1
 238 720 l 1
329 446 m 0
 241 446 167 376 167 193 c 0
 167 97 209 65 276 65 c 0
 402 65 438 210 438 317 c 0
 438 414 394 446 329 446 c 0
EndSplineSet
EndChar

StartChar: q
Encoding: 113 113 170
Width: 582
GlyphClass: 2
Flags: MW
HStem: -10 75<211.5 245> 446 75<250.5 328.5 197.5 330.5> 491 20G<494 530 530 530>
VStem: 40 96<145 256.5>
LayerCount: 2
Fore
SplineSet
291 521 m 0xd0
 366 521 419 491 450 430 c 1xd0
 494 511 l 1
 530 511 l 1xb0
 433 -180 l 1
 339 -180 l 1
 374 65 l 1
 339 24 281 -10 209 -10 c 0
 113 -10 40 57 40 185 c 0
 40 328 104 521 291 521 c 0xd0
298 446 m 0
 203 446 136 364 136 193 c 0
 136 97 178 65 245 65 c 0
 374 65 407 210 407 317 c 0
 407 414 363 446 298 446 c 0
EndSplineSet
EndChar

StartChar: r
Encoding: 114 114 171
Width: 489
GlyphClass: 2
Flags: MW
HStem: 446 75<290 332> 491 20G<114 184 184 184>
VStem: 386 90<355.5 427>
AnchorPoint: "Bottom" 89 0 basechar 0
LayerCount: 2
Fore
SplineSet
348 521 m 0xa0
 432 521 476 465 476 389 c 0
 476 368 468 328 465 323 c 1
 382 323 l 1
 386 350 386 353 386 358 c 0
 386 395 363 446 301 446 c 0xa0
 223 446 188 369 179 305 c 2
 136 0 l 1
 42 0 l 1
 114 511 l 1
 184 511 l 1x60
 184 435 l 2
 187 443 232 521 348 521 c 0xa0
EndSplineSet
EndChar

StartChar: racute
Encoding: 341 341 172
Width: 489
GlyphClass: 2
Flags: MW
HStem: 446 75<290 332> 491 20G<114 184 184 184> 575 145<122 327 122 327>
VStem: 386 90<355.5 427>
AnchorPoint: "Bottom" 89 0 basechar 0
LayerCount: 2
Fore
SplineSet
327 716 m 1xb0
 191 575 l 1
 122 575 l 1
 237 720 l 1
 327 720 l 1
 327 716 l 1xb0
348 521 m 0
 432 521 476 465 476 389 c 0
 476 368 468 328 465 323 c 1
 382 323 l 1
 386 350 386 353 386 358 c 0
 386 395 363 446 301 446 c 0xb0
 223 446 188 369 179 305 c 2
 136 0 l 1
 42 0 l 1
 114 511 l 1
 184 511 l 1x70
 184 435 l 2
 187 443 232 521 348 521 c 0
EndSplineSet
EndChar

StartChar: rcaron
Encoding: 345 345 173
Width: 489
GlyphClass: 2
Flags: MW
HStem: 446 75<290 332> 491 20G<114 184 184 184> 575 145<30 223 30 145>
VStem: 386 90<355.5 427>
AnchorPoint: "Bottom" 89 0 basechar 0
LayerCount: 2
Fore
SplineSet
223 575 m 1xb0
 145 575 l 1
 30 720 l 1
 110 720 l 1
 192 631 l 1
 299 720 l 1
 379 720 l 1
 223 575 l 1xb0
348 521 m 0
 432 521 476 465 476 389 c 0
 476 368 468 328 465 323 c 1
 382 323 l 1
 386 350 386 353 386 358 c 0
 386 395 363 446 301 446 c 0xb0
 223 446 188 369 179 305 c 2
 136 0 l 1
 42 0 l 1
 114 511 l 1
 184 511 l 1x70
 184 435 l 2
 187 443 232 521 348 521 c 0
EndSplineSet
EndChar

StartChar: rcommaaccent
Encoding: 343 343 174
Width: 489
GlyphClass: 2
Flags: MW
HStem: -151 111<32 57 16 133> 446 75<290 332> 491 20G<114 184 184 184>
VStem: 386 90<355.5 427>
AnchorPoint: "Bottom" 89 0 basechar 0
LayerCount: 2
Fore
SplineSet
348 521 m 0xd0
 432 521 476 465 476 389 c 0
 476 368 468 328 465 323 c 1
 382 323 l 1
 386 350 386 353 386 358 c 0
 386 395 363 446 301 446 c 0xd0
 223 446 188 369 179 305 c 2
 136 0 l 1
 42 0 l 1
 114 511 l 1
 184 511 l 1xb0
 184 435 l 2
 187 443 232 521 348 521 c 0xd0
121 -125 m 1
 74 -250 l 1
 21 -250 l 1
 57 -151 l 1
 16 -151 l 1
 32 -40 l 1
 133 -40 l 1
 121 -125 l 1
EndSplineSet
EndChar

StartChar: s
Encoding: 115 115 175
Width: 536
GlyphClass: 2
Flags: MW
HStem: -10 75<205 211 211 226> 222.54 79.6 446 75<302 311 311 327.5>
VStem: 23 96<111.5 132.5> 69 97<320 384.5 320 406.5> 371 97<120 204> 392 95<392.5 399.5>
AnchorPoint: "Bottom" 268 0 basechar 0
LayerCount: 2
Fore
SplineSet
302 521 m 2xea
 311 521 l 2
 423 521 487 466 487 398 c 0
 487 387 486 373 483 364 c 1
 390 364 l 1
 390 370 392 378 392 383 c 0xea
 392 416 367 446 288 446 c 0
 186 446 166 398 166 371 c 0xec
 166 269 468 343 468 168 c 0
 468 35 359 -10 226 -10 c 2
 211 -10 l 2
 79 -10 23 53 23 121 c 0
 23 144 28 157 28 160 c 2
 121 160 l 1
 120 152 119 147 119 144 c 2
 119 137 l 2xf4
 119 86 171 65 239 65 c 0
 311 65 371 93 371 147 c 0xec
 371 261 69 180 69 355 c 0
 69 458 153 521 302 521 c 2xea
EndSplineSet
EndChar

StartChar: sacute
Encoding: 347 347 176
Width: 536
GlyphClass: 2
Flags: MW
HStem: -10 75<205 211 211 226> 222.54 79.6 446 75<302 311 311 327.5> 575 145<215 420 215 420>
VStem: 23 96<111.5 132.5> 69 97<320 384.5 320 406.5> 371 97<120 204> 392 95<392.5 399.5>
AnchorPoint: "Bottom" 268 0 basechar 0
LayerCount: 2
Fore
SplineSet
420 716 m 1xf5
 284 575 l 1
 215 575 l 1
 330 720 l 1
 420 720 l 1
 420 716 l 1xf5
302 521 m 2
 311 521 l 2
 423 521 487 466 487 398 c 0
 487 387 486 373 483 364 c 1
 390 364 l 1
 390 370 392 378 392 383 c 0xf5
 392 416 367 446 288 446 c 0
 186 446 166 398 166 371 c 0xf6
 166 269 468 343 468 168 c 0
 468 35 359 -10 226 -10 c 2
 211 -10 l 2
 79 -10 23 53 23 121 c 0
 23 144 28 157 28 160 c 2
 121 160 l 1
 120 152 119 147 119 144 c 2
 119 137 l 2xfa
 119 86 171 65 239 65 c 0
 311 65 371 93 371 147 c 0xf6
 371 261 69 180 69 355 c 0
 69 458 153 521 302 521 c 2
EndSplineSet
EndChar

StartChar: scaron
Encoding: 353 353 177
Width: 536
GlyphClass: 2
Flags: MW
HStem: -10 75<205 211 211 226> 222.54 79.6 446 75<302 311 311 327.5> 575 145<153 346 153 268>
VStem: 23 96<111.5 132.5> 69 97<320 384.5 320 406.5> 371 97<120 204> 392 95<392.5 399.5>
LayerCount: 2
Fore
SplineSet
346 575 m 1xf5
 268 575 l 1
 153 720 l 1
 233 720 l 1
 315 631 l 1
 422 720 l 1
 502 720 l 1
 346 575 l 1xf5
302 521 m 2
 311 521 l 2
 423 521 487 466 487 398 c 0
 487 387 486 373 483 364 c 1
 390 364 l 1
 390 370 392 378 392 383 c 0xf5
 392 416 367 446 288 446 c 0
 186 446 166 398 166 371 c 0xf6
 166 269 468 343 468 168 c 0
 468 35 359 -10 226 -10 c 2
 211 -10 l 2
 79 -10 23 53 23 121 c 0
 23 144 28 157 28 160 c 2
 121 160 l 1
 120 153 119 147 119 144 c 2
 119 137 l 2xfa
 119 86 171 65 239 65 c 0
 311 65 371 93 371 147 c 0xf6
 371 261 69 180 69 355 c 0
 69 458 153 521 302 521 c 2
EndSplineSet
EndChar

StartChar: scedilla
Encoding: 351 351 178
Width: 536
GlyphClass: 2
Flags: MW
HStem: -197 51<234 269 231.5 273> -60 43<255 270 249 279> -10 75<205 211 211 226> 222.54 79.6 446 75<302 311 311 327.5>
VStem: 23 96<111.5 132.5> 69 97<320 384.5 320 406.5> 316 63<-113 -83.5> 371 97<120 204> 392 95<392.5 399.5>
AnchorPoint: "Bottom" 268 0 basechar 0
LayerCount: 2
Fore
SplineSet
302 521 m 2xba40
 311 521 l 2
 423 521 487 466 487 398 c 0
 487 387 486 373 483 364 c 1
 390 364 l 1
 390 370 392 378 392 383 c 0xba40
 392 416 367 446 288 446 c 0
 186 446 166 398 166 371 c 0xba80
 166 269 468 343 468 168 c 0
 468 35 359 -10 226 -10 c 2
 211 -10 l 2
 79 -10 23 53 23 121 c 0
 23 144 28 157 28 160 c 2
 121 160 l 1
 120 152 119 147 119 144 c 2
 119 137 l 2xbc80
 119 86 171 65 239 65 c 0
 311 65 371 93 371 147 c 0xba80
 371 261 69 180 69 355 c 0
 69 458 153 521 302 521 c 2xba40
255 -17 m 1xdb40
 279 -17 l 2
 330 -17 379 -32 379 -90 c 0
 379 -176 296 -197 250 -197 c 0
 218 -197 183 -190 158 -175 c 1
 174 -126 l 1
 183 -131 210 -146 253 -146 c 0
 285 -146 316 -131 316 -95 c 0
 316 -72 297 -60 270 -60 c 2
 249 -60 l 1
 255 -17 l 1xdb40
EndSplineSet
EndChar

StartChar: scommaaccent
Encoding: 537 537 179
Width: 536
GlyphClass: 2
Flags: MW
HStem: -151 111<211 236 195 312> -10 75<205 211 211 226> 222.54 79.6 446 75<302 311 311 327.5>
VStem: 23 96<111.5 132.5> 69 97<320 384.5 320 406.5> 371 97<120 204> 392 95<392.5 399.5>
AnchorPoint: "Bottom" 268 0 basechar 0
LayerCount: 2
Fore
SplineSet
302 521 m 2x75
 311 521 l 2
 423 521 487 466 487 398 c 0
 487 387 486 373 483 364 c 1
 390 364 l 1
 390 370 392 378 392 383 c 0xf5
 392 416 367 446 288 446 c 0
 186 446 166 398 166 371 c 0x76
 166 269 468 343 468 168 c 0
 468 35 359 -10 226 -10 c 2
 211 -10 l 2
 79 -10 23 53 23 121 c 0
 23 144 28 157 28 160 c 2
 121 160 l 1
 120 152 119 147 119 144 c 2
 119 137 l 2x7a
 119 86 171 65 239 65 c 0
 311 65 371 93 371 147 c 0x76
 371 261 69 180 69 355 c 0
 69 458 153 521 302 521 c 2x75
300 -125 m 1
 253 -250 l 1
 200 -250 l 1
 236 -151 l 1
 195 -151 l 1
 211 -40 l 1
 312 -40 l 1
 300 -125 l 1
EndSplineSet
EndChar

StartChar: germandbls
Encoding: 223 223 180
Width: 614
GlyphClass: 2
Flags: MW
HStem: 0 75<229 301 218 302> 346 74<277 340 267 342> 436 75<77 124 66 135> 653 75<341 414>
VStem: 461 94<188.5 264> 483 96<526.5 587>
LayerCount: 2
Fore
SplineSet
392 728 m 0xb4
 497 728 579 670 579 571 c 0xf4
 579 482 528 418 456 391 c 1
 457 387 l 1
 517 364 555 303 555 235 c 0
 555 91 437 0 301 0 c 2
 218 0 l 1
 229 75 l 1
 302 75 l 2
 384 75 461 145 461 232 c 0xf8
 461 296 411 346 340 346 c 2
 267 346 l 1
 277 420 l 1
 342 420 l 2xf4
 419 420 483 484 483 557 c 0
 483 617 446 653 382 653 c 0
 300 653 241 597 229 513 c 2
 148 -66 l 1
 54 -66 l 1
 124 436 l 1
 66 436 l 1
 77 511 l 1
 135 511 l 1
 156 647 251 728 392 728 c 0xb4
EndSplineSet
EndChar

StartChar: t
Encoding: 116 116 181
Width: 344
GlyphClass: 2
Flags: MW
HStem: -10 73<145.5 224.5> 436 75<73 118 62 128 223 331>
VStem: 73 94<90.5 101> 91 94
AnchorPoint: "Bottom" 172 0 basechar 0
LayerCount: 2
Fore
SplineSet
223 511 m 1x60
 342 511 l 1
 331 436 l 1
 212 436 l 1
 203 380 195 329 189 283 c 2x50
 181 225 l 2
 173 169 167 120 167 112 c 0
 167 69 193 63 217 63 c 0
 232 63 264 71 281 78 c 1
 271 8 l 1
 248 -3 212 -10 183 -10 c 0
 108 -10 73 20 73 93 c 0xe0
 73 109 79 162 87 221 c 2
 95 281 l 2
 101 328 109 379 118 436 c 1
 62 436 l 1
 73 511 l 1
 128 511 l 1
 150 674 l 1x50
 253 674 l 1
 223 511 l 1x60
EndSplineSet
EndChar

StartChar: tcaron
Encoding: 357 357 182
Width: 344
GlyphClass: 2
Flags: MW
HStem: -10 73<145.5 224.5> 436 75<73 118 62 128 223 331> 451 60 575 111<383 408 367 484>
VStem: 73 94<90.5 101> 91 94
AnchorPoint: "Bottom" 172 0 basechar 0
LayerCount: 2
Fore
SplineSet
472 601 m 1xd8
 416 451 l 1
 364 451 l 1xb8
 408 575 l 1
 367 575 l 1
 383 686 l 1
 484 686 l 1
 472 601 l 1xd8
223 511 m 1xd4
 342 511 l 1
 331 436 l 1
 212 436 l 1
 203 380 195 329 189 283 c 2xd4
 181 225 l 2
 173 169 167 120 167 112 c 0
 167 69 193 63 217 63 c 0
 232 63 264 71 281 78 c 1
 271 8 l 1
 248 -3 212 -10 183 -10 c 0
 108 -10 73 20 73 93 c 0xd8
 73 109 79 162 87 221 c 2
 95 281 l 2
 101 328 109 379 118 436 c 1
 62 436 l 1
 73 511 l 1
 128 511 l 1
 150 674 l 1
 253 674 l 1
 223 511 l 1xd4
EndSplineSet
EndChar

StartChar: tcedilla
Encoding: 355 355 183
Width: 344
GlyphClass: 2
Flags: MW
HStem: -197 51<138 173 135.5 177> -60 43<159 174 153 183> -10 73<145.5 224.5> 436 75<73 118 62 128 223 331>
VStem: 73 94<90.5 101> 91 94 220 63<-113 -83.5>
AnchorPoint: "Bottom" 172 0 basechar 0
LayerCount: 2
Fore
SplineSet
223 511 m 1xda
 342 511 l 1
 331 436 l 1
 212 436 l 1
 203 380 195 329 189 283 c 2xd6
 181 225 l 2
 173 169 167 120 167 112 c 0
 167 69 193 63 217 63 c 0
 232 63 264 71 281 78 c 1
 271 8 l 1
 248 -3 212 -10 183 -10 c 0
 108 -10 73 20 73 93 c 0xba
 73 109 79 162 87 221 c 2
 95 281 l 2
 101 328 109 379 118 436 c 1
 62 436 l 1
 73 511 l 1
 128 511 l 1
 150 674 l 1xd6
 253 674 l 1
 223 511 l 1xda
159 -17 m 1
 183 -17 l 2
 234 -17 283 -32 283 -90 c 0
 283 -176 200 -197 154 -197 c 0
 122 -197 87 -190 62 -175 c 1
 78 -126 l 1
 87 -131 114 -146 157 -146 c 0
 189 -146 220 -131 220 -95 c 0
 220 -72 201 -60 174 -60 c 2
 153 -60 l 1
 159 -17 l 1
EndSplineSet
EndChar

StartChar: tcommaaccent
Encoding: 539 539 184
Width: 344
GlyphClass: 2
Flags: MW
HStem: -151 111<115 140 99 216> -10 73<145.5 224.5> 436 75<73 118 62 128 223 331>
VStem: 73 94<90.5 101> 91 94
AnchorPoint: "Bottom" 172 0 basechar 0
LayerCount: 2
Fore
SplineSet
223 511 m 1xb0
 342 511 l 1
 331 436 l 1
 212 436 l 1
 203 380 195 329 189 283 c 2xa8
 181 225 l 2
 173 169 167 120 167 112 c 0
 167 69 193 63 217 63 c 0
 232 63 264 71 281 78 c 1
 271 8 l 1
 248 -3 212 -10 183 -10 c 0
 108 -10 73 20 73 93 c 0xf0
 73 109 79 162 87 221 c 2
 95 281 l 2
 101 328 109 379 118 436 c 1
 62 436 l 1
 73 511 l 1
 128 511 l 1
 150 674 l 1xa8
 253 674 l 1
 223 511 l 1xb0
204 -125 m 1
 157 -250 l 1
 104 -250 l 1
 140 -151 l 1
 99 -151 l 1
 115 -40 l 1
 216 -40 l 1
 204 -125 l 1
EndSplineSet
EndChar

StartChar: u
Encoding: 117 117 185
Width: 617
GlyphClass: 2
Flags: MW
HStem: -10 75<220 253.5> 491 20G<109 203 203 203 447 541 541 541>
VStem: 58 97<122.5 148> 391 91<64 92 74 92>
LayerCount: 2
Fore
SplineSet
541 511 m 1
 511 304 l 2
 496 200 481 95 482 92 c 0
 482 73 493 65 506 65 c 0
 521 65 542 72 553 79 c 1
 544 10 l 1
 531 2 503 -10 467 -10 c 0
 408 -10 391 24 391 64 c 2
 391 74 l 1
 354 32 290 -10 217 -10 c 0
 125 -10 58 32 58 131 c 0
 58 165 83 337 109 511 c 1
 203 511 l 1
 179 346 l 2
 166 261 154 172 155 155 c 0
 155 90 192 65 248 65 c 0
 318 65 391 127 404 207 c 2
 447 511 l 1
 541 511 l 1
EndSplineSet
EndChar

StartChar: uacute
Encoding: 250 250 186
Width: 617
GlyphClass: 2
Flags: MW
HStem: -10 75<220 253.5> 491 20G<109 203 203 203 447 541 541 541> 575 145<292 497 292 497>
VStem: 58 97<122.5 148> 391 91<64 92 74 92>
LayerCount: 2
Fore
SplineSet
497 716 m 1
 361 575 l 1
 292 575 l 1
 407 720 l 1
 497 720 l 1
 497 716 l 1
541 511 m 1
 511 304 l 2
 496 200 481 95 482 92 c 0
 482 73 493 65 506 65 c 0
 521 65 542 72 553 79 c 1
 544 10 l 1
 531 2 503 -10 467 -10 c 0
 408 -10 391 24 391 64 c 2
 391 74 l 1
 354 32 290 -10 217 -10 c 0
 125 -10 58 32 58 131 c 0
 58 165 83 337 109 511 c 1
 203 511 l 1
 179 346 l 2
 166 261 154 172 155 155 c 0
 155 90 192 65 248 65 c 0
 318 65 391 127 404 207 c 2
 447 511 l 1
 541 511 l 1
EndSplineSet
EndChar

StartChar: ucircumflex
Encoding: 251 251 187
Width: 617
GlyphClass: 2
Flags: MW
HStem: -10 75<220 253.5> 491 20G<109 203 203 203 447 541 541 541> 575 145<158 393 315 507 315 427> 664 56<346 346>
VStem: 58 97<122.5 148> 391 91<64 92 74 92>
LayerCount: 2
Fore
SplineSet
507 575 m 1xec
 427 575 l 1xec
 346 664 l 1xdc
 238 575 l 1
 158 575 l 1
 315 720 l 1
 393 720 l 1
 507 575 l 1xec
541 511 m 1
 511 304 l 2
 496 200 481 95 482 92 c 0
 482 73 493 65 506 65 c 0
 521 65 542 72 553 79 c 1
 544 10 l 1
 531 2 503 -10 467 -10 c 0
 408 -10 391 24 391 64 c 2
 391 74 l 1
 354 32 290 -10 217 -10 c 0
 125 -10 58 32 58 131 c 0
 58 165 83 337 109 511 c 1
 203 511 l 1
 179 346 l 2
 166 261 154 172 155 155 c 0
 155 90 192 65 248 65 c 0
 318 65 391 127 404 207 c 2
 447 511 l 1
 541 511 l 1
EndSplineSet
EndChar

StartChar: udieresis
Encoding: 252 252 188
Width: 617
GlyphClass: 2
Flags: MW
HStem: -10 75<220 253.5> 491 20G<109 203 203 203 447 541 541 541> 622 98<208 285 195 298 208 383 396 474>
VStem: 58 97<122.5 148> 391 91<64 92 74 92>
LayerCount: 2
Fore
SplineSet
285 622 m 1
 195 622 l 1
 208 720 l 1
 298 720 l 1
 285 622 l 1
474 622 m 1
 383 622 l 1
 396 720 l 1
 487 720 l 1
 474 622 l 1
541 511 m 1
 511 304 l 2
 496 200 481 95 482 92 c 0
 482 73 493 65 506 65 c 0
 521 65 542 72 553 79 c 1
 544 10 l 1
 531 2 503 -10 467 -10 c 0
 408 -10 391 24 391 64 c 2
 391 74 l 1
 354 32 290 -10 217 -10 c 0
 125 -10 58 32 58 131 c 0
 58 165 83 337 109 511 c 1
 203 511 l 1
 179 346 l 2
 166 261 154 172 155 155 c 0
 155 90 192 65 248 65 c 0
 318 65 391 127 404 207 c 2
 447 511 l 1
 541 511 l 1
EndSplineSet
EndChar

StartChar: ugrave
Encoding: 249 249 189
Width: 617
GlyphClass: 2
Flags: MW
HStem: -10 75<220 253.5> 491 20G<109 203 203 203 447 541 541 541> 575 145<205 368 205 298>
VStem: 58 97<122.5 148> 391 91<64 92 74 92>
LayerCount: 2
Fore
SplineSet
368 575 m 1
 298 575 l 1
 203 717 l 1
 205 720 l 1
 294 720 l 1
 368 575 l 1
541 511 m 1
 511 304 l 2
 496 200 481 95 482 92 c 0
 482 73 493 65 506 65 c 0
 521 65 542 72 553 79 c 1
 544 10 l 1
 531 2 503 -10 467 -10 c 0
 408 -10 391 24 391 64 c 2
 391 74 l 1
 354 32 290 -10 217 -10 c 0
 125 -10 58 32 58 131 c 0
 58 165 83 337 109 511 c 1
 203 511 l 1
 179 346 l 2
 166 261 154 172 155 155 c 0
 155 90 192 65 248 65 c 0
 318 65 391 127 404 207 c 2
 447 511 l 1
 541 511 l 1
EndSplineSet
EndChar

StartChar: uhungarumlaut
Encoding: 369 369 190
Width: 617
GlyphClass: 2
Flags: MW
HStem: -10 75<220 253.5> 491 20G<109 203 203 203 447 541 541 541> 575 145<219 424 219 424 374 374 374 424 335 444>
VStem: 58 97<122.5 148> 391 91<64 92 74 92>
LayerCount: 2
Fore
SplineSet
424 715 m 1
 289 575 l 1
 219 575 l 1
 335 720 l 1
 424 720 l 1
 424 715 l 1
579 715 m 1
 444 575 l 1
 374 575 l 1
 489 720 l 1
 579 720 l 1
 579 715 l 1
541 511 m 1
 511 304 l 2
 496 200 481 95 482 92 c 0
 482 73 493 65 506 65 c 0
 521 65 542 72 553 79 c 1
 544 10 l 1
 531 2 503 -10 467 -10 c 0
 408 -10 391 24 391 64 c 2
 391 74 l 1
 354 32 290 -10 217 -10 c 0
 125 -10 58 32 58 131 c 0
 58 165 83 337 109 511 c 1
 203 511 l 1
 179 346 l 2
 166 261 154 172 155 155 c 0
 155 90 192 65 248 65 c 0
 318 65 391 127 404 207 c 2
 447 511 l 1
 541 511 l 1
EndSplineSet
EndChar

StartChar: umacron
Encoding: 363 363 191
Width: 617
GlyphClass: 2
Flags: MW
HStem: -10 75<220 253.5> 491 20G<109 203 203 203 447 541 541 541> 662 74<215 522 204 533>
VStem: 58 97<122.5 148> 391 91<64 92 74 92>
LayerCount: 2
Fore
SplineSet
522 662 m 1
 204 662 l 1
 215 736 l 1
 533 736 l 1
 522 662 l 1
541 511 m 1
 511 304 l 2
 496 200 481 95 482 92 c 0
 482 73 493 65 506 65 c 0
 521 65 542 72 553 79 c 1
 544 10 l 1
 531 2 503 -10 467 -10 c 0
 408 -10 391 24 391 64 c 2
 391 74 l 1
 354 32 290 -10 217 -10 c 0
 125 -10 58 32 58 131 c 0
 58 165 83 337 109 511 c 1
 203 511 l 1
 179 346 l 2
 166 261 154 172 155 155 c 0
 155 90 192 65 248 65 c 0
 318 65 391 127 404 207 c 2
 447 511 l 1
 541 511 l 1
EndSplineSet
EndChar

StartChar: uogonek
Encoding: 371 371 192
Width: 617
GlyphClass: 2
Flags: MW
HStem: -143 47<497.5 507.5> -10 75<220 253.5> 491 20G<109 203 203 203 447 541 541 541>
VStem: 58 97<122.5 148> 391 91<64 92 74 92> 404 63<-76.5 -66.5>
LayerCount: 2
Fore
SplineSet
576 -82 m 1xf4
 584 -119 l 1
 555 -135 524 -143 491 -143 c 0
 448 -143 404 -128 404 -83 c 0xf4
 404 -50 427 -27 454 -9 c 1
 405 -5 391 27 391 64 c 2
 391 74 l 1
 354 32 290 -10 217 -10 c 0
 125 -10 58 32 58 131 c 0
 58 165 83 337 109 511 c 1
 203 511 l 1
 179 346 l 2
 166 261 154 172 155 155 c 0
 155 90 192 65 248 65 c 0
 318 65 391 127 404 207 c 2
 447 511 l 1
 541 511 l 1
 511 304 l 2
 496 200 481 95 482 92 c 0
 482 73 493 65 506 65 c 0
 521 65 542 72 553 79 c 1
 544 10 l 1xf8
 539 7 532 3 523 0 c 0
 498 -11 467 -40 467 -65 c 0
 467 -88 488 -96 507 -96 c 0
 531 -96 553 -89 576 -82 c 1xf4
EndSplineSet
EndChar

StartChar: uring
Encoding: 367 367 193
Width: 617
GlyphClass: 2
Flags: MW
HStem: -10 75<220 253.5> 491 20G<109 203 203 203 447 541 541 541> 545 41<330 361.5 330 371> 706 41<337 369>
VStem: 58 97<122.5 148> 247 45<626.5 660.5 626.5 671> 391 91<64 92 74 92> 407 45<632 665.5>
LayerCount: 2
Fore
SplineSet
356 747 m 0xfd
 412 747 452 708 452 653 c 0
 452 593 399 545 343 545 c 0
 287 545 247 583 247 639 c 0
 247 703 301 747 356 747 c 0xfd
353 706 m 0
 321 706 292 679 292 642 c 0
 292 611 314 586 346 586 c 0
 377 586 407 614 407 650 c 0
 407 681 385 706 353 706 c 0
541 511 m 1
 511 304 l 2
 496 200 481 95 482 92 c 0
 482 73 493 65 506 65 c 0
 521 65 542 72 553 79 c 1
 544 10 l 1
 531 2 503 -10 467 -10 c 0
 408 -10 391 24 391 64 c 2
 391 74 l 1xfe
 354 32 290 -10 217 -10 c 0
 125 -10 58 32 58 131 c 0
 58 165 83 337 109 511 c 1
 203 511 l 1
 179 346 l 2
 166 261 154 172 155 155 c 0
 155 90 192 65 248 65 c 0
 318 65 391 127 404 207 c 2
 447 511 l 1
 541 511 l 1
EndSplineSet
EndChar

StartChar: v
Encoding: 118 118 194
Width: 512
GlyphClass: 2
Flags: MW
HStem: 0 120<233 237 233 265 165 237> 491 20G<43 142 142 142 438 530 530 530>
VStem: 43 487<511 511>
LayerCount: 2
Fore
SplineSet
265 0 m 1
 165 0 l 1
 43 511 l 1
 142 511 l 1
 233 120 l 1
 237 120 l 1
 438 511 l 1
 530 511 l 1
 265 0 l 1
EndSplineSet
EndChar

StartChar: w
Encoding: 119 119 195
Width: 809
GlyphClass: 2
Flags: MW
HStem: 0 137<213 217 213 244 146 217 549 553> 357 154<410 414 410 410> 491 20G<50 146 146 146 390 482 482 482 726 818 818 818>
VStem: 50 768<511 511>
LayerCount: 2
Fore
SplineSet
580 0 m 1xb0
 482 0 l 1
 414 357 l 1
 410 357 l 1xd0
 244 0 l 1
 146 0 l 1
 50 511 l 1
 146 511 l 1
 213 137 l 1
 217 137 l 1
 390 511 l 1
 482 511 l 1
 549 137 l 1
 553 137 l 1
 726 511 l 1
 818 511 l 1
 580 0 l 1xb0
EndSplineSet
EndChar

StartChar: x
Encoding: 120 120 196
Width: 517
GlyphClass: 2
Flags: MW
HStem: 491 20G<58 169 169 169 418 521 521 521>
VStem: -23 544<0 511>
LayerCount: 2
Fore
SplineSet
308 265 m 1
 459 0 l 1
 347 0 l 1
 240 187 l 1
 79 0 l 1
 -23 0 l 1
 200 259 l 1
 58 511 l 1
 169 511 l 1
 268 337 l 1
 418 511 l 1
 521 511 l 1
 308 265 l 1
EndSplineSet
EndChar

StartChar: y
Encoding: 121 121 197
Width: 510
GlyphClass: 2
Flags: MW
HStem: -186 77<38.5 61 38.5 98.5> 491 20G<42 141 141 141 437 529 529 529>
VStem: -19 548
LayerCount: 2
Fore
SplineSet
529 511 m 1
 269 20 l 2
 210 -92 145 -186 52 -186 c 0
 23 -186 0 -181 -19 -172 c 1
 -9 -95 l 1
 4 -102 28 -109 49 -109 c 0
 73 -109 124 -96 169 5 c 1
 42 511 l 1
 141 511 l 1
 235 134 l 1
 239 134 l 1
 437 511 l 1
 529 511 l 1
EndSplineSet
EndChar

StartChar: yacute
Encoding: 253 253 198
Width: 510
GlyphClass: 2
Flags: MW
HStem: -186 77<38.5 61 38.5 98.5> 491 20G<42 141 141 141 437 529 529 529> 575 145<254 459 254 459>
VStem: -19 548
LayerCount: 2
Fore
SplineSet
459 716 m 1
 323 575 l 1
 254 575 l 1
 369 720 l 1
 459 720 l 1
 459 716 l 1
529 511 m 1
 269 20 l 2
 210 -92 145 -186 52 -186 c 0
 23 -186 0 -181 -19 -172 c 1
 -9 -95 l 1
 4 -102 28 -109 49 -109 c 0
 73 -109 124 -96 169 5 c 1
 42 511 l 1
 141 511 l 1
 235 134 l 1
 239 134 l 1
 437 511 l 1
 529 511 l 1
EndSplineSet
EndChar

StartChar: ydieresis
Encoding: 255 255 199
Width: 510
GlyphClass: 2
Flags: MW
HStem: -186 77<38.5 61 38.5 98.5> 491 20G<42 141 141 141 437 529 529 529> 621 98<170 247 157 260 170 345 358 436>
VStem: -19 548
LayerCount: 2
Fore
SplineSet
247 621 m 1
 157 621 l 1
 170 719 l 1
 260 719 l 1
 247 621 l 1
436 621 m 1
 345 621 l 1
 358 719 l 1
 449 719 l 1
 436 621 l 1
529 511 m 1
 269 20 l 2
 210 -92 145 -186 52 -186 c 0
 23 -186 0 -181 -19 -172 c 1
 -9 -95 l 1
 4 -102 28 -109 49 -109 c 0
 73 -109 124 -96 169 5 c 1
 42 511 l 1
 141 511 l 1
 235 134 l 1
 239 134 l 1
 437 511 l 1
 529 511 l 1
EndSplineSet
EndChar

StartChar: z
Encoding: 122 122 200
Width: 463
GlyphClass: 2
Flags: MW
HStem: 0 75<135 383> 436 75<82 306 72 446>
VStem: -4 450
LayerCount: 2
Fore
SplineSet
441 474 m 1
 135 75 l 1
 393 75 l 1
 383 0 l 1
 -4 0 l 1
 1 38 l 1
 306 436 l 1
 72 436 l 1
 82 511 l 1
 446 511 l 1
 441 474 l 1
EndSplineSet
EndChar

StartChar: zacute
Encoding: 378 378 201
Width: 463
GlyphClass: 2
Flags: MW
HStem: 0 75<135 383> 436 75<82 306 72 446> 575 145<199 404 199 404>
VStem: -4 450
LayerCount: 2
Fore
SplineSet
404 716 m 1
 268 575 l 1
 199 575 l 1
 314 720 l 1
 404 720 l 1
 404 716 l 1
441 474 m 1
 135 75 l 1
 393 75 l 1
 383 0 l 1
 -4 0 l 1
 1 38 l 1
 306 436 l 1
 72 436 l 1
 82 511 l 1
 446 511 l 1
 441 474 l 1
EndSplineSet
EndChar

StartChar: zcaron
Encoding: 382 382 202
Width: 463
GlyphClass: 2
Flags: MW
HStem: 0 75<135 383> 436 75<82 306 72 446> 575 145<102 295 102 217>
VStem: -4 455
LayerCount: 2
Fore
SplineSet
295 575 m 1
 217 575 l 1
 102 720 l 1
 182 720 l 1
 264 631 l 1
 371 720 l 1
 451 720 l 1
 295 575 l 1
441 474 m 1
 135 75 l 1
 393 75 l 1
 383 0 l 1
 -4 0 l 1
 1 38 l 1
 306 436 l 1
 72 436 l 1
 82 511 l 1
 446 511 l 1
 441 474 l 1
EndSplineSet
EndChar

StartChar: zdotaccent
Encoding: 380 380 203
Width: 463
GlyphClass: 2
Flags: MW
HStem: 0 75<135 383> 436 75<82 306 72 446> 604 132<266.5 292.5>
VStem: 215 133<657.5 679.5>
LayerCount: 2
Fore
SplineSet
290 736 m 0
 325 736 348 710 348 677 c 0
 348 638 315 604 270 604 c 0
 239 604 215 627 215 658 c 0
 215 701 243 736 290 736 c 0
441 474 m 1
 135 75 l 1
 393 75 l 1
 383 0 l 1
 -4 0 l 1
 1 38 l 1
 306 436 l 1
 72 436 l 1
 82 511 l 1
 446 511 l 1
 441 474 l 1
EndSplineSet
EndChar

StartChar: fi
Encoding: 64257 64257 204
Width: 602
GlyphClass: 3
Flags: MW
HStem: -184 74<-10 2 -18.5 40.5> 436 75<76 125 66 134 227 338> 633 87<485 571 473 583> 654 74<290.5 304 252 312.5> 708 20G<252 304>
VStem: -80 663
LayerCount: 2
Fore
SplineSet
290 728 m 0xd4
 318 728 354 721 374 709 c 1x4c
 365 640 l 1
 350 647 320 654 305 654 c 0
 276 654 248 648 239 590 c 2
 227 511 l 1
 347 511 l 1
 338 436 l 1
 218 436 l 1
 147 -58 l 2
 134 -147 77 -184 4 -184 c 0
 -24 -184 -61 -177 -80 -165 c 1
 -72 -96 l 1
 -57 -103 -26 -110 -11 -110 c 0
 15 -110 45 -104 54 -46 c 2
 125 436 l 1
 66 436 l 1
 76 511 l 1
 134 511 l 1
 147 602 l 2
 160 691 214 728 290 728 c 0xd4
571 633 m 1x64
 473 633 l 1
 485 720 l 1
 583 720 l 1
 571 633 l 1x64
480 0 m 1
 386 0 l 1
 458 511 l 1
 552 511 l 1
 480 0 l 1
EndSplineSet
Ligature2: "'liga' Standard Ligatures lookup 4 subtable" f i
EndChar

StartChar: fl
Encoding: 64258 64258 205
Width: 608
GlyphClass: 3
Flags: MW
HStem: -184 74<-10 2 -18.5 40.5> 436 75<76 125 66 134 227 338> 654 74<290.5 304 252 312.5> 700 20G<487 581 581 581> 708 20G<252 304>
VStem: -80 661
LayerCount: 2
Fore
SplineSet
290 728 m 0xe4
 318 728 354 721 374 709 c 1xcc
 365 640 l 1
 350 647 320 654 305 654 c 0
 276 654 248 648 239 590 c 2
 227 511 l 1
 347 511 l 1
 338 436 l 1
 218 436 l 1
 147 -58 l 2
 134 -147 77 -184 4 -184 c 0
 -24 -184 -61 -177 -80 -165 c 1
 -72 -96 l 1
 -57 -103 -26 -110 -11 -110 c 0
 15 -110 45 -104 54 -46 c 2
 125 436 l 1
 66 436 l 1
 76 511 l 1
 134 511 l 1
 147 602 l 2
 160 691 214 728 290 728 c 0xe4
480 0 m 1
 386 0 l 1
 487 720 l 1
 581 720 l 1xd4
 480 0 l 1
EndSplineSet
Ligature2: "'liga' Standard Ligatures lookup 4 subtable" f l
EndChar

StartChar: ordfeminine
Encoding: 170 170 206
Width: 419
GlyphClass: 2
Flags: MW
HStem: 373 45<186 210.5> 650 46<198 251.5 190.5 258> 670 20G<341 380 380 380>
VStem: 83 57<466.5 526.5 466.5 560> 289 96.5
LayerCount: 2
Fore
SplineSet
230 696 m 0xd8
 273 696 302 677 317 650 c 1
 322 650 l 1xd8
 341 690 l 1
 380 690 l 1xb8
 364 581 345 437 345 435 c 0
 345 424 350 418 359 418 c 0
 368 418 381 423 388 427 c 1
 383 385 l 1
 375 380 359 373 336 373 c 0
 300 373 289 393 289 418 c 1
 262 390 232 373 189 373 c 0
 128 373 83 410 83 494 c 0
 83 626 151 696 230 696 c 0xd8
238 650 m 0
 158 650 140 557 140 496 c 0
 140 437 166 418 206 418 c 0
 274 418 305 487 305 572 c 0
 305 632 278 650 238 650 c 0
EndSplineSet
EndChar

StartChar: ordmasculine
Encoding: 186 186 207
Width: 392
GlyphClass: 2
Flags: MW
HStem: 373 46<191.5 253 191.5 270> 650 46<203.5 265.5>
VStem: 82 58<471.5 501 471.5 543> 317 59<534.5 597.5>
LayerCount: 2
Fore
SplineSet
252 696 m 0
 322 696 376 659 376 576 c 0
 376 476 334 373 206 373 c 0
 136 373 82 410 82 493 c 0
 82 593 124 696 252 696 c 0
245 650 m 0
 162 650 143 567 140 501 c 0
 140 442 170 419 213 419 c 0
 293 419 317 501 317 568 c 0
 317 627 286 650 245 650 c 0
EndSplineSet
EndChar

StartChar: Delta
Encoding: 916 916 208
Width: 624
GlyphClass: 2
Flags: MW
HStem: 0 75<85 481 85 558> 597 89<356 356> 666 20G<317 420 420 420>
VStem: -14 581<0 65>
LayerCount: 2
Fore
SplineSet
567 65 m 1xb0
 558 0 l 1
 -14 0 l 1
 -5 65 l 1
 317 686 l 1
 420 686 l 1
 567 65 l 1xb0
85 75 m 1
 481 75 l 1
 356 597 l 1xd0
 85 75 l 1
EndSplineSet
EndChar

StartChar: Omega
Encoding: 937 937 209
Width: 699
GlyphClass: 2
Flags: MW
HStem: 0 90<16 51 16 268 4 51 591 614> 608 87<398 415 415 440.5>
VStem: 68 96<223 225 161.5 421.5> 548 104<436.5 508>
LayerCount: 2
Fore
SplineSet
398 695 m 2
 415 695 l 2
 549 695 652 623 652 447 c 0
 652 277 590 145 506 80 c 1
 539 84 564 86 591 90 c 1
 626 90 l 1
 614 0 l 1
 350 0 l 1
 357 49 l 1
 453 66 507 134 531 297 c 0
 546 400 548 426 548 447 c 0
 548 569 487 608 394 608 c 0
 279 608 206 546 182 375 c 0
 166 266 164 237 164 213 c 0
 164 110 200 64 275 49 c 1
 268 0 l 1
 4 0 l 1
 16 90 l 1
 51 90 l 1
 78 86 102 84 135 80 c 1
 92 121 68 179 68 267 c 0
 68 576 231 695 398 695 c 2
EndSplineSet
EndChar

StartChar: mu
Encoding: 956 956 210
Width: 613
GlyphClass: 2
Flags: MW
HStem: -10 75<224 257.5> 491 20G<113 207 207 207 451 545 545 545>
VStem: 18 539<-161 79> 395 91<64 92 74 92>
LayerCount: 2
Fore
SplineSet
545 511 m 1xe0
 515 304 l 2
 500 200 485 95 486 92 c 0
 486 73 497 65 510 65 c 0
 525 65 546 72 557 79 c 1
 548 10 l 1
 535 2 507 -10 471 -10 c 0
 412 -10 395 24 395 64 c 2
 395 74 l 1xd0
 358 32 294 -10 221 -10 c 0
 185 -10 155 -4 130 9 c 1
 130 -32 l 1
 112 -161 l 1
 18 -161 l 1
 113 511 l 1
 207 511 l 1
 183 346 l 2
 170 261 158 172 159 155 c 0
 159 90 196 65 252 65 c 0
 322 65 395 127 408 207 c 2
 451 511 l 1
 545 511 l 1xe0
EndSplineSet
EndChar

StartChar: pi
Encoding: 960 960 211
Width: 627
GlyphClass: 2
Flags: MW
HStem: 437 74<139.5 633 262 436 262 262 527 614 527 527>
VStem: 386 92<34.5 55.5>
LayerCount: 2
Fore
SplineSet
614 437 m 1
 527 437 l 1
 487 152 l 2
 480 104 478 70 478 43 c 0
 478 26 479 12 481 0 c 1
 392 0 l 1
 388 7 386 21 386 43 c 0
 386 68 389 101 395 143 c 2
 436 437 l 1
 262 437 l 1
 238 312 177 86 129 0 c 1
 39 0 l 1
 90 104 150 312 171 437 c 1
 108 437 75 433 50 425 c 1
 46 482 l 1
 74 501 122 511 210 511 c 2
 633 511 l 1
 614 437 l 1
EndSplineSet
EndChar

StartChar: zero
Encoding: 48 48 212
Width: 615
Flags: MW
HStem: -10 89<239.5 258 258 271> 607 89<357 370 370 388.5>
VStem: 58 99<160 189.5> 472 98<483.5 484 484 499 472 525>
LayerCount: 2
Fore
SplineSet
357 696 m 2
 370 696 l 2
 488 696 570 615 570 499 c 2
 570 484 l 2
 570 460 563 434 533 221 c 0
 514 86 415 -10 271 -10 c 2
 258 -10 l 2
 140 -10 58 68 58 184 c 0
 58 195 58 209 95 464 c 0
 114 599 214 696 357 696 c 2
352 607 m 0
 263 607 206 549 195 472 c 0
 158 214 157 210 157 194 c 0
 157 126 202 79 277 79 c 0
 368 79 423 137 434 214 c 0
 471 472 472 476 472 491 c 0
 472 559 425 607 352 607 c 0
EndSplineSet
EndChar

StartChar: one
Encoding: 49 49 213
Width: 615
Flags: MW
HStem: 0 89<71 251 349 516 58 251> 555 64<143 143 143 316 134 143> 666 20G<395 433 433 433>
VStem: 58 471<0 89>
LayerCount: 2
Fore
SplineSet
349 89 m 1
 529 89 l 1
 516 0 l 1
 58 0 l 1
 71 89 l 1
 251 89 l 1
 316 555 l 1
 134 555 l 1
 143 619 l 1
 210 626 300 647 395 686 c 1
 433 686 l 1
 349 89 l 1
EndSplineSet
Substitution2: "'sups' Superscript lookup 1 subtable" onesuperior
Substitution2: "'aalt' Access All Alternates lookup 0 subtable" onesuperior
EndChar

StartChar: two
Encoding: 50 50 214
Width: 615
Flags: MW
HStem: 0 89<156 502> 607 89<308 400.5>
VStem: 95 98<449 494.5 449 510.5> 471 99<482.5 527>
LayerCount: 2
Fore
SplineSet
362 696 m 0
 513 696 570 600 570 522 c 0
 570 438 538 361 416 279 c 2
 205 136 l 2
 184 122 157 100 156 89 c 1
 514 89 l 1
 502 0 l 1
 31 0 l 1
 34 24 l 2
 46 120 121 181 152 201 c 2
 372 351 l 2
 449 404 471 458 471 507 c 0
 471 547 450 607 351 607 c 0
 265 607 193 540 193 449 c 1
 95 449 l 1
 95 572 197 696 362 696 c 0
EndSplineSet
Substitution2: "'sups' Superscript lookup 1 subtable" twosuperior
Substitution2: "'aalt' Access All Alternates lookup 0 subtable" twosuperior
EndChar

StartChar: three
Encoding: 51 51 215
Width: 615
Flags: MW
HStem: -10 89<226.5 254 254 266> 304 90<235 297 222 312> 607 89<356 365 365 376.5>
VStem: 42 99<141.5 165.5> 437 97<166.5 247.5> 464 100<487.5 550.5>
LayerCount: 2
Fore
SplineSet
356 696 m 2xf8
 365 696 l 2
 481 696 564 635 564 536 c 0xf4
 564 439 502 388 431 356 c 1
 432 353 l 1
 493 333 534 288 534 215 c 0
 534 82 415 -10 266 -10 c 2
 254 -10 l 2
 114 -10 42 57 42 160 c 0
 42 171 43 182 46 202 c 1
 144 202 l 1
 141 183 141 179 141 172 c 0
 141 111 185 79 268 79 c 0
 364 79 437 121 437 212 c 0xf8
 437 283 371 304 297 304 c 2
 222 304 l 1
 235 394 l 1
 312 394 l 2
 389 394 464 436 464 519 c 0xf4
 464 582 409 607 344 607 c 0
 274 607 211 571 200 492 c 1
 102 492 l 1
 118 625 225 696 356 696 c 2xf8
EndSplineSet
Substitution2: "'sups' Superscript lookup 1 subtable" threesuperior
Substitution2: "'aalt' Access All Alternates lookup 0 subtable" threesuperior
EndChar

StartChar: four
Encoding: 52 52 216
Width: 615
Flags: MW
HStem: 169 89<139 356 467 541 139 454> 676 20G<320 425 425 425>
VStem: 33 521<169 258>
LayerCount: 2
Fore
SplineSet
320 696 m 1
 425 696 l 1
 350 512 195 314 139 258 c 1
 369 258 l 1
 397 457 l 1
 429 506 449 541 470 594 c 1
 514 594 l 1
 467 258 l 1
 554 258 l 1
 541 169 l 1
 454 169 l 1
 431 0 l 1
 333 0 l 1
 356 169 l 1
 33 169 l 1
 46 259 l 1
 151 391 245 539 320 696 c 1
EndSplineSet
EndChar

StartChar: five
Encoding: 53 53 217
Width: 615
Flags: MW
HStem: -10 89<241.5 322.5 241.5 352> 363 84<322.5 357.5> 597 89<247 551 247 247>
VStem: 57 99<161.5 189.5> 438 99<191 279.5>
LayerCount: 2
Fore
SplineSet
551 597 m 1
 247 597 l 1
 204 396 l 1
 247 427 296 447 349 447 c 0
 481 447 537 364 537 265 c 0
 537 105 439 -10 265 -10 c 0
 134 -10 57 75 57 184 c 0
 57 195 58 203 59 214 c 1
 157 214 l 2
 156 211 156 208 156 206 c 2
 156 198 l 2
 156 125 206 79 277 79 c 0
 368 79 438 136 438 246 c 0
 438 313 394 363 321 363 c 0
 264 363 215 337 182 294 c 1
 96 307 l 1
 177 686 l 1
 563 686 l 1
 551 597 l 1
EndSplineSet
EndChar

StartChar: six
Encoding: 54 54 218
Width: 615
Flags: MW
HStem: -10 89<249.5 333.5 249.5 350.5> 343 89<319 359.5> 607 89<318 390>
VStem: 66 97<184 191 191 199> 443 100<186 266> 469 99<489 492 492 496 496 510 489 530.5>
LayerCount: 2
Fore
SplineSet
366 696 m 0xf4
 487 696 568 625 568 510 c 2
 568 492 l 2
 568 486 567 480 566 473 c 1
 468 473 l 1
 469 477 469 481 469 485 c 2
 469 496 l 2xf4
 469 565 426 607 354 607 c 0
 282 607 212 547 202 474 c 2
 187 366 l 1
 230 407 287 432 351 432 c 0
 461 432 543 359 543 254 c 0xf8
 543 89 428 -10 273 -10 c 0
 154 -10 66 64 66 184 c 2
 66 191 l 2
 66 207 72 252 103 465 c 0
 121 593 238 696 366 696 c 0xf4
324 343 m 0
 241 343 163 282 163 191 c 0
 163 122 214 79 285 79 c 0
 382 79 443 140 443 232 c 0xf8
 443 300 395 343 324 343 c 0
EndSplineSet
EndChar

StartChar: seven
Encoding: 55 55 219
Width: 615
Flags: MW
HStem: 597 89<128 472 115 610>
VStem: 115 495<597 686>
LayerCount: 2
Fore
SplineSet
610 686 m 1
 602 633 l 1
 463 491 290 273 258 51 c 0
 255 32 255 24 252 0 c 1
 138 0 l 1
 170 236 339 453 472 597 c 1
 115 597 l 1
 128 686 l 1
 610 686 l 1
EndSplineSet
EndChar

StartChar: eight
Encoding: 56 56 220
Width: 615
Flags: MW
HStem: -10 89<241 319 241 347> 306 89<288.5 345> 607 89<319.5 386>
VStem: 50 100<143 206.5> 118 99<459 525.5 459 544.5> 436 98<166 242> 457 99<484 542>
LayerCount: 2
Fore
SplineSet
364 696 m 0xea
 480 696 556 639 556 536 c 0xea
 556 432 503 388 440 354 c 1
 439 350 l 1
 496 322 534 285 534 216 c 0
 534 77 429 -10 265 -10 c 0
 136 -10 50 46 50 153 c 0xf4
 50 260 112 318 191 350 c 1
 192 354 l 1
 148 381 118 412 118 475 c 0
 118 614 229 696 364 696 c 0xea
352 607 m 0
 287 607 217 566 217 485 c 0
 217 433 255 395 322 395 c 0
 400 395 457 449 457 516 c 0
 457 568 420 607 352 607 c 0
309 306 m 0xf4
 237 306 150 267 150 175 c 0
 150 111 205 79 277 79 c 0
 361 79 436 122 436 210 c 0
 436 274 381 306 309 306 c 0xf4
EndSplineSet
EndChar

StartChar: nine
Encoding: 57 57 221
Width: 615
Flags: MW
HStem: -10 89<238 315.5 238 334.5> 254 89<271 309> 607 89<302 378.5>
VStem: 59 99<154.5 181.5> 85 99<420.5 502 420.5 518> 464 98<494.5 529.5>
LayerCount: 2
Fore
SplineSet
355 696 m 0xec
 474 696 562 622 562 502 c 0
 562 487 550 404 525 221 c 0
 506 89 407 -10 262 -10 c 0
 141 -10 59 59 59 176 c 0
 59 187 60 200 62 213 c 1
 160 213 l 1
 159 205 158 197 158 189 c 0xf4
 158 120 202 79 274 79 c 0
 357 79 416 139 426 212 c 2
 441 320 l 1
 398 279 341 254 277 254 c 0
 166 254 85 329 85 436 c 0
 85 600 208 696 355 696 c 0xec
343 607 m 0
 261 607 184 549 184 455 c 0
 184 386 235 343 307 343 c 0
 389 343 464 404 464 495 c 0
 464 564 414 607 343 607 c 0
EndSplineSet
EndChar

StartChar: fraction
Encoding: 8260 8260 222
Width: 479
Flags: MW
HStem: 666 20G<478 534 534 534>
VStem: -36 570
LayerCount: 2
Fore
SplineSet
22 0 m 1
 -36 0 l 1
 478 686 l 1
 534 686 l 1
 22 0 l 1
EndSplineSet
EndChar

StartChar: onehalf
Encoding: 189 189 223
Width: 727
Flags: MW
HStem: 0 49<466 656> 310 49<43 142 196 270 36 142> 333 49<549.5 600> 612 35<84 84 84 177 78 84> 666 20G<599 651 651 651>
VStem: 432 54<246 271.5 246 280> 639 54<264.5 288.5>
LayerCount: 2
Fore
SplineSet
137 0 m 1xde
 82 0 l 1
 599 686 l 1
 651 686 l 1
 137 0 l 1xde
196 359 m 1
 277 359 l 1
 270 310 l 1
 36 310 l 1
 43 359 l 1
 142 359 l 1
 177 612 l 1
 78 612 l 1
 84 647 l 1
 121 650 167 663 220 684 c 1
 241 684 l 1
 196 359 l 1
579 382 m 0xbe
 663 382 693 329 693 286 c 0
 693 238 674 199 608 153 c 2
 480 64 l 2
 473 59 466 52 466 49 c 2
 662 49 l 1
 656 0 l 1
 397 0 l 1
 399 13 l 2
 407 65 443 96 463 110 c 2
 584 193 l 2
 627 222 639 251 639 278 c 0
 639 299 627 333 573 333 c 0
 526 333 486 297 486 246 c 1
 432 246 l 1
 432 314 487 382 579 382 c 0xbe
EndSplineSet
Ligature2: "'frac' Diagonal Fractions lookup 2 subtable" one slash two
EndChar

StartChar: onequarter
Encoding: 188 188 224
Width: 701
Flags: MW
HStem: 91 49<430 546 607 646 430 600> 310 49<45 144 198 272 38 144> 612 35<86 86 86 179 80 86> 666 20G<618 670 670 670>
VStem: 38 632<310 686>
LayerCount: 2
Fore
SplineSet
156 0 m 1
 101 0 l 1
 618 686 l 1
 670 686 l 1
 156 0 l 1
198 359 m 1
 279 359 l 1
 272 310 l 1
 38 310 l 1
 45 359 l 1
 144 359 l 1
 179 612 l 1
 80 612 l 1
 86 647 l 1
 123 650 169 663 222 684 c 1
 243 684 l 1
 198 359 l 1
528 374 m 1
 583 374 l 1
 543 276 459 169 430 140 c 1
 553 140 l 1
 568 245 l 1
 585 272 595 291 607 319 c 1
 632 319 l 1
 607 140 l 1
 653 140 l 1
 646 91 l 1
 600 91 l 1
 587 0 l 1
 533 0 l 1
 546 91 l 1
 373 91 l 1
 380 141 l 1
 437 212 488 290 528 374 c 1
EndSplineSet
Ligature2: "'frac' Diagonal Fractions lookup 2 subtable" one slash four
EndChar

StartChar: threequarters
Encoding: 190 190 225
Width: 698
Flags: MW
HStem: 91 49<426 542 603 642 426 596> 298 49<146.5 163 163 169> 471 49<152 186 145 194> 500 20 637 49<219 224 224 230>
VStem: 46 54<381 394.5> 263 53<395.5 439.5> 278 55<571.5 606.5>
LayerCount: 2
Fore
SplineSet
219 686 m 2xed
 224 686 l 2xed
 288 686 333 653 333 598 c 0xdd
 333 545 299 517 260 500 c 1
 260 496 l 1xde
 295 485 316 462 316 422 c 0
 316 348 251 298 169 298 c 2
 163 298 l 2
 86 298 46 335 46 391 c 0
 46 398 47 404 48 415 c 1
 102 415 l 1
 101 410 100 406 100 404 c 2
 100 398 l 2
 100 364 123 347 170 347 c 0
 223 347 263 371 263 420 c 0
 263 459 227 471 186 471 c 2xee
 145 471 l 1
 152 520 l 1
 194 520 l 2
 237 520 278 542 278 589 c 0
 278 624 248 637 212 637 c 0
 173 637 140 617 133 574 c 1
 79 574 l 1
 87 647 147 686 219 686 c 2xed
157 0 m 1
 102 0 l 1
 619 686 l 1
 671 686 l 1
 157 0 l 1
524 374 m 1
 579 374 l 1
 539 276 455 169 426 140 c 1
 549 140 l 1
 564 245 l 1
 581 272 591 291 603 319 c 1
 628 319 l 1
 603 140 l 1
 649 140 l 1
 642 91 l 1
 596 91 l 1
 583 0 l 1
 529 0 l 1
 542 91 l 1
 369 91 l 1
 376 141 l 1xee
 433 212 484 290 524 374 c 1
EndSplineSet
Ligature2: "'frac' Diagonal Fractions lookup 2 subtable" three slash four
EndChar

StartChar: onesuperior
Encoding: 185 185 226
Width: 332
Flags: MW
HStem: 422 49<75 174 228 302 68 174> 724 35<116 116 116 210 111 116>
VStem: 68 241<422 471>
LayerCount: 2
Fore
SplineSet
228 471 m 1
 309 471 l 1
 302 422 l 1
 68 422 l 1
 75 471 l 1
 174 471 l 1
 210 724 l 1
 111 724 l 1
 116 759 l 1
 152 762 201 775 253 796 c 1
 274 796 l 1
 228 471 l 1
EndSplineSet
EndChar

StartChar: twosuperior
Encoding: 178 178 227
Width: 381
Flags: MW
HStem: 418 49<145 335> 751 49<228.5 279>
VStem: 111 54<664 689.5 664 698> 318 54<682.5 706.5>
LayerCount: 2
Fore
SplineSet
258 800 m 0
 342 800 372 747 372 704 c 0
 372 656 353 617 287 571 c 2
 159 482 l 2
 152 477 145 470 145 467 c 2
 341 467 l 1
 335 418 l 1
 76 418 l 1
 78 431 l 2
 86 483 122 514 142 528 c 2
 263 611 l 2
 306 640 318 669 318 696 c 0
 318 717 306 751 252 751 c 0
 205 751 165 715 165 664 c 1
 111 664 l 1
 111 732 166 800 258 800 c 0
EndSplineSet
EndChar

StartChar: threesuperior
Encoding: 179 179 228
Width: 361
Flags: MW
HStem: 412 49<172.5 189 189 195> 585 49<178 212 171 220> 751 49<245 250 250 256>
VStem: 72 54<495 508.5> 289 53<509.5 553.5> 304 55<685.5 720.5>
LayerCount: 2
Fore
SplineSet
245 800 m 2xf4
 250 800 l 2
 314 800 359 767 359 712 c 0xf4
 359 659 325 631 286 614 c 1
 286 610 l 1
 321 599 342 576 342 536 c 0
 342 462 277 412 195 412 c 2
 189 412 l 2
 112 412 72 449 72 505 c 0
 72 512 73 518 74 529 c 1
 128 529 l 1
 127 524 126 520 126 518 c 2
 126 512 l 2
 126 478 149 461 196 461 c 0
 249 461 289 485 289 534 c 0
 289 573 253 585 212 585 c 2xf8
 171 585 l 1
 178 634 l 1
 220 634 l 2
 263 634 304 656 304 703 c 0
 304 738 274 751 238 751 c 0
 199 751 166 731 159 688 c 1
 105 688 l 1
 113 761 173 800 245 800 c 2xf4
EndSplineSet
EndChar

StartChar: asterisk
Encoding: 42 42 229
Width: 469
Flags: MW
HStem: 499 20G<291 291> 500 20G<241 241> 666 20G<251 330 330 330>
VStem: 59 411<506 509>
LayerCount: 2
Fore
SplineSet
291 519 m 1xb0
 458 584 l 1
 470 506 l 1
 299 468 l 1xb0
 391 343 l 1
 320 294 l 1
 252 438 l 1
 145 296 l 1
 88 344 l 1
 217 469 l 1
 59 509 l 1
 95 586 l 1
 241 520 l 1x70
 251 686 l 1
 330 686 l 1
 291 519 l 1xb0
EndSplineSet
EndChar

StartChar: backslash
Encoding: 92 92 230
Width: 593
Flags: MW
HStem: 666 20G<68 147 147 147>
VStem: 68 447
LayerCount: 2
Fore
SplineSet
515 -171 m 1
 434 -171 l 1
 68 686 l 1
 147 686 l 1
 515 -171 l 1
EndSplineSet
EndChar

StartChar: periodcentered
Encoding: 183 183 231
Width: 238
Flags: MW
HStem: 232 112<75 161 60 176>
VStem: 60 116<232 344>
LayerCount: 2
Fore
SplineSet
161 232 m 1
 60 232 l 1
 75 344 l 1
 176 344 l 1
 161 232 l 1
EndSplineSet
EndChar

StartChar: bullet
Encoding: 8226 8226 232
Width: 600
Flags: MW
HStem: 191 305<277 339>
VStem: 155 303<321.5 368.5>
LayerCount: 2
Fore
SplineSet
327 496 m 0
 403 496 458 439 458 364 c 0
 458 279 394 191 284 191 c 0
 209 191 155 247 155 322 c 0
 155 415 227 496 327 496 c 0
EndSplineSet
EndChar

StartChar: colon
Encoding: 58 58 233
Width: 238
Flags: MW
HStem: 0 111<43 129 28 144> 399 112<99 185 84 200>
VStem: 28 172
LayerCount: 2
Fore
SplineSet
185 399 m 1
 84 399 l 1
 99 511 l 1
 200 511 l 1
 185 399 l 1
129 0 m 1
 28 0 l 1
 43 111 l 1
 144 111 l 1
 129 0 l 1
EndSplineSet
EndChar

StartChar: comma
Encoding: 44 44 234
Width: 237
Flags: MW
HStem: 0 111<43 68 27 144>
VStem: 24 120
LayerCount: 2
Fore
SplineSet
132 26 m 1
 76 -124 l 1
 24 -124 l 1
 68 0 l 1
 27 0 l 1
 43 111 l 1
 144 111 l 1
 132 26 l 1
EndSplineSet
EndChar

StartChar: ellipsis
Encoding: 8230 8230 235
Width: 734
Flags: MW
HStem: 0 111<44 131 29 146 292 379 539 626>
VStem: 29 612<0 111>
LayerCount: 2
Fore
SplineSet
131 0 m 1
 29 0 l 1
 44 111 l 1
 146 111 l 1
 131 0 l 1
379 0 m 1
 277 0 l 1
 292 111 l 1
 394 111 l 1
 379 0 l 1
626 0 m 1
 524 0 l 1
 539 111 l 1
 641 111 l 1
 626 0 l 1
EndSplineSet
EndChar

StartChar: exclam
Encoding: 33 33 236
Width: 269
Flags: MW
HStem: 0 111<59 144 43 160> 666 20G<133 248 248 248>
VStem: 43 205
LayerCount: 2
Fore
SplineSet
133 686 m 1
 248 686 l 1
 232 630 183 354 151 174 c 1
 85 174 l 1
 101 346 118 514 133 686 c 1
144 0 m 1
 43 0 l 1
 59 111 l 1
 160 111 l 1
 144 0 l 1
EndSplineSet
EndChar

StartChar: exclamdown
Encoding: 161 161 237
Width: 254
Flags: MW
HStem: 399 111<107 192 91 208>
VStem: 3 205
LayerCount: 2
Fore
SplineSet
192 399 m 1
 91 399 l 1
 107 510 l 1
 208 510 l 1
 192 399 l 1
100 335 m 1
 166 335 l 1
 151 163 134 -4 118 -176 c 1
 3 -176 l 1
 100 335 l 1
EndSplineSet
EndChar

StartChar: numbersign
Encoding: 35 35 238
Width: 644
Flags: MW
HStem: 179 76<24 123 14 150 226 349 24 199 452 558> 410 76<96 206 85 234 310 432 96 282 536 630> 676 20G<310 386 386 386 536 612 612 612>
VStem: 14 627<179 486>
LayerCount: 2
Fore
SplineSet
536 486 m 1
 641 486 l 1
 630 410 l 1
 508 410 l 1
 452 255 l 1
 568 255 l 1
 558 179 l 1
 425 179 l 1
 360 0 l 1
 284 0 l 1
 349 179 l 1
 199 179 l 1
 134 0 l 1
 58 0 l 1
 123 179 l 1
 14 179 l 1
 24 255 l 1
 150 255 l 1
 206 410 l 1
 85 410 l 1
 96 486 l 1
 234 486 l 1
 310 696 l 1
 386 696 l 1
 310 486 l 1
 460 486 l 1
 536 696 l 1
 612 696 l 1
 536 486 l 1
282 410 m 1
 226 255 l 1
 376 255 l 1
 432 410 l 1
 282 410 l 1
EndSplineSet
EndChar

StartChar: period
Encoding: 46 46 239
Width: 238
Flags: MW
HStem: 0 111<44 130 29 145>
VStem: 29 116<0 111>
LayerCount: 2
Fore
SplineSet
130 0 m 1
 29 0 l 1
 44 111 l 1
 145 111 l 1
 130 0 l 1
EndSplineSet
EndChar

StartChar: question
Encoding: 63 63 240
Width: 502
Flags: MW
HStem: 0 111<180 269 165 284> 607 89<303 309 309 330>
VStem: 53 98<458 496 458 529> 197.5 98.5 394 99<446 531>
LayerCount: 2
Fore
SplineSet
303 696 m 2
 309 696 l 2
 460 696 493 589 493 524 c 0
 493 346 310 327 299 234 c 2
 293 185 l 1
 193 185 l 1
 202 249 l 2
 218 365 394 382 394 510 c 0
 394 552 370 607 290 607 c 0
 186 607 151 534 151 458 c 1
 53 458 l 1
 53 600 148 696 303 696 c 2
269 0 m 1
 165 0 l 1
 180 111 l 1
 284 111 l 1
 269 0 l 1
EndSplineSet
EndChar

StartChar: questiondown
Encoding: 191 191 241
Width: 494
Flags: MW
HStem: -185 89<157 178 178 184> 400 111<218 307 203 322>
VStem: -7 100<-20.5 -13> 333 101
LayerCount: 2
Fore
SplineSet
307 400 m 1
 203 400 l 1
 218 511 l 1
 322 511 l 1
 307 400 l 1
294 326 m 1
 285 262 l 2
 269 146 93 129 93 1 c 0
 93 -42 117 -96 197 -96 c 0
 301 -96 327 -16 333 16 c 0
 335 29 335 46 336 53 c 1
 434 53 l 1
 434 -74 346 -185 184 -185 c 2
 178 -185 l 2
 26 -185 -7 -78 -7 -13 c 0
 -8 164 177 186 188 277 c 2
 194 326 l 1
 294 326 l 1
EndSplineSet
EndChar

StartChar: quotedbl
Encoding: 34 34 242
Width: 363
Flags: MW
HStem: 666 20G<119 201 201 201 273 355 355 355>
VStem: 98 41<407 539> 252 40<407 539>
LayerCount: 2
Fore
SplineSet
201 686 m 1
 180 539 l 1
 167 494 152 451 139 407 c 1
 98 407 l 1
 98 539 l 1
 119 686 l 1
 201 686 l 1
355 686 m 1
 334 539 l 1
 319 494 305 451 292 407 c 1
 252 407 l 1
 252 539 l 1
 273 686 l 1
 355 686 l 1
EndSplineSet
EndChar

StartChar: quotesingle
Encoding: 39 39 243
Width: 209
Flags: MW
HStem: 666 20G<119 201 201 201>
VStem: 98 40<407 539>
LayerCount: 2
Fore
SplineSet
201 686 m 1
 180 539 l 1
 165 494 153 451 138 407 c 1
 98 407 l 1
 98 539 l 1
 119 686 l 1
 201 686 l 1
EndSplineSet
EndChar

StartChar: semicolon
Encoding: 59 59 244
Width: 238
Flags: MW
HStem: 0 111<43 68 27 144> 399 112<99 184 83 200>
VStem: 24 176
LayerCount: 2
Fore
SplineSet
184 399 m 1
 83 399 l 1
 99 511 l 1
 200 511 l 1
 184 399 l 1
132 26 m 1
 76 -124 l 1
 24 -124 l 1
 68 0 l 1
 27 0 l 1
 43 111 l 1
 144 111 l 1
 132 26 l 1
EndSplineSet
EndChar

StartChar: slash
Encoding: 47 47 245
Width: 489
Flags: MW
HStem: 666 20G<445 525 525 525>
VStem: -45 570
LayerCount: 2
Fore
SplineSet
36 -171 m 1
 -45 -171 l 1
 445 686 l 1
 525 686 l 1
 36 -171 l 1
EndSplineSet
EndChar

StartChar: underscore
Encoding: 95 95 246
Width: 687
Flags: MW
HStem: -124 60<43 533 35 542>
VStem: 35 507<-124 -64>
LayerCount: 2
Fore
SplineSet
533 -124 m 1
 35 -124 l 1
 43 -64 l 1
 542 -64 l 1
 533 -124 l 1
EndSplineSet
EndChar

StartChar: braceleft
Encoding: 123 123 247
Width: 314
Flags: MW
HStem: -159 50<202 211> 224 35 268 35 636 50<305 323>
VStem: 70 78<-74.5 -52 -74.5 -20.5> 99 71<162.5 193>
LayerCount: 2
Fore
SplineSet
330 686 m 1xb8
 323 636 l 1
 287 636 242 623 234 565 c 0
 225 500 212 436 200 371 c 0xb4
 188 306 160 268 96 268 c 1
 95 259 l 1
 151 259 170 231 170 182 c 0
 170 143 164 98 159 55 c 2xf4
 152 -5 l 2
 150 -24 147 -39 148 -52 c 0
 148 -97 186 -109 218 -109 c 1
 211 -159 l 1
 136 -159 70 -143 70 -52 c 0xb8
 70 11 99 128 99 175 c 0
 99 211 63 224 30 224 c 1xf4
 41 303 l 1
 78 303 120 317 126 360 c 2
 152 546 l 2xb4
 169 666 246 686 330 686 c 1xb8
EndSplineSet
EndChar

StartChar: braceright
Encoding: 125 125 248
Width: 314
Flags: MW
HStem: -159 50<-16 1.5 -16 18> 224 35 268 35 636 50<96 105>
VStem: 135 71<334 352 334 365.5> 158 77<573.5 601.5>
LayerCount: 2
Fore
SplineSet
89 636 m 1xd4
 96 686 l 1
 170 686 235 670 235 579 c 0xd4
 235 568 235 558 206 352 c 1
 206 316 241 303 276 303 c 1xf8
 265 224 l 1
 228 224 186 209 180 167 c 2
 154 -19 l 2
 137 -139 59 -159 -23 -159 c 1
 -16 -109 l 1
 19 -109 62 -96 72 -38 c 0
 83 29 94 91 106 156 c 0xd8
 118 221 146 259 210 259 c 1
 211 268 l 1
 155 268 135 296 135 345 c 0xf8
 135 386 158 565 158 579 c 0
 158 624 121 636 89 636 c 1xd4
EndSplineSet
EndChar

StartChar: bracketleft
Encoding: 91 91 249
Width: 294
Flags: MW
HStem: -161 55<111 191> 631 55<214 302 214 214>
VStem: 22 288
LayerCount: 2
Fore
SplineSet
302 631 m 1
 214 631 l 1
 111 -106 l 1
 199 -106 l 1
 191 -161 l 1
 22 -161 l 1
 141 686 l 1
 310 686 l 1
 302 631 l 1
EndSplineSet
EndChar

StartChar: bracketright
Encoding: 93 93 250
Width: 294
Flags: MW
HStem: -161 55<-16 72 -16 145 -24 72> 631 55<95 175 87 264>
VStem: -24 288
LayerCount: 2
Fore
SplineSet
145 -161 m 1
 -24 -161 l 1
 -16 -106 l 1
 72 -106 l 1
 175 631 l 1
 87 631 l 1
 95 686 l 1
 264 686 l 1
 145 -161 l 1
EndSplineSet
EndChar

StartChar: parenleft
Encoding: 40 40 251
Width: 289
Flags: MW
HStem: 666 20G<264 316 316 316>
VStem: 39 82<115.5 265 110 277.5>
LayerCount: 2
Fore
SplineSet
264 686 m 1
 316 686 l 1
 205 543 121 360 121 170 c 0
 121 50 152 -65 197 -157 c 1
 145 -157 l 1
 76 -62 39 53 39 178 c 0
 39 377 125 545 264 686 c 1
EndSplineSet
EndChar

StartChar: parenright
Encoding: 41 41 252
Width: 289
Flags: MW
HStem: 666 20G<86 137 137 137>
VStem: 160 83<260 413 256.5 415>
LayerCount: 2
Fore
SplineSet
86 686 m 1
 137 686 l 1
 206 591 243 475 243 351 c 0
 243 162 157 -16 18 -157 c 1
 -33 -157 l 1
 74 -18 160 165 160 355 c 0
 160 475 130 594 86 686 c 1
EndSplineSet
EndChar

StartChar: emdash
Encoding: 8212 8212 253
Width: 1056
Flags: MW
HStem: 223 94<75 971 63 984>
VStem: 63 921<223 317>
LayerCount: 2
Fore
SplineSet
971 223 m 1
 63 223 l 1
 75 317 l 1
 984 317 l 1
 971 223 l 1
EndSplineSet
EndChar

StartChar: endash
Encoding: 8211 8211 254
Width: 637
Flags: MW
HStem: 223 95<72 558 60 571>
VStem: 60 511<223 318>
LayerCount: 2
Fore
SplineSet
558 223 m 1
 60 223 l 1
 72 318 l 1
 571 318 l 1
 558 223 l 1
EndSplineSet
EndChar

StartChar: hyphen
Encoding: 45 45 255
Width: 390
Flags: MW
HStem: 221 98<72 311 60 324>
VStem: 60 264<221 319>
LayerCount: 2
Fore
SplineSet
311 221 m 1
 60 221 l 1
 72 319 l 1
 324 319 l 1
 311 221 l 1
EndSplineSet
EndChar

StartChar: softhyphen
Encoding: 173 173 256
Width: 390
Flags: MW
HStem: 221 98<72 311 60 324>
VStem: 60 264<221 319>
LayerCount: 2
Fore
SplineSet
311 221 m 1
 60 221 l 1
 72 319 l 1
 324 319 l 1
 311 221 l 1
EndSplineSet
EndChar

StartChar: guillemetleft
Encoding: 171 171 257
Width: 458
Flags: MW
HStem: 337 174<55 251 134 251 237 237 200 317>
VStem: 55 378<337 511>
LayerCount: 2
Fore
SplineSet
134 337 m 1
 202 163 l 1
 151 163 l 1
 55 337 l 1
 200 511 l 1
 251 511 l 1
 134 337 l 1
317 337 m 1
 384 163 l 1
 334 163 l 1
 237 337 l 1
 383 511 l 1
 433 511 l 1
 317 337 l 1
EndSplineSet
EndChar

StartChar: guillemetright
Encoding: 187 187 258
Width: 460
Flags: MW
HStem: 337 174<86 157 86 237>
VStem: 37 381<163 337>
LayerCount: 2
Fore
SplineSet
237 337 m 1
 88 163 l 1
 37 163 l 1
 157 337 l 1
 86 511 l 1
 137 511 l 1
 237 337 l 1
418 337 m 1
 270 163 l 1
 220 163 l 1
 339 337 l 1
 269 511 l 1
 319 511 l 1
 418 337 l 1
EndSplineSet
EndChar

StartChar: guilsinglleft
Encoding: 8249 8249 259
Width: 276
Flags: MW
HStem: 491 20G<200 251 251 251>
VStem: 55 196<337 511>
LayerCount: 2
Fore
SplineSet
134 337 m 1
 202 163 l 1
 151 163 l 1
 55 337 l 1
 200 511 l 1
 251 511 l 1
 134 337 l 1
EndSplineSet
EndChar

StartChar: guilsinglright
Encoding: 8250 8250 260
Width: 278
Flags: MW
HStem: 491 20G<86 137 137 137>
VStem: 37 199<163 337>
LayerCount: 2
Fore
SplineSet
236 337 m 1
 88 163 l 1
 37 163 l 1
 157 337 l 1
 86 511 l 1
 137 511 l 1
 236 337 l 1
EndSplineSet
EndChar

StartChar: quotedblbase
Encoding: 8222 8222 261
Width: 379
Flags: MW
HStem: 0 111<43 68 27 144 43 169 185 210>
VStem: 24 262<-124 111>
LayerCount: 2
Fore
SplineSet
132 26 m 1
 76 -124 l 1
 24 -124 l 1
 68 0 l 1
 27 0 l 1
 43 111 l 1
 144 111 l 1
 132 26 l 1
274 26 m 1
 218 -124 l 1
 166 -124 l 1
 210 0 l 1
 169 0 l 1
 185 111 l 1
 286 111 l 1
 274 26 l 1
EndSplineSet
EndChar

StartChar: quotedblleft
Encoding: 8220 8220 262
Width: 366
Flags: MW
HStem: 451 111<159 184 83 200 159 225 301 326> 666 20G<151 203 203 203 293 345 345 345>
VStem: 83 262<451 686>
LayerCount: 2
Fore
SplineSet
159 562 m 1
 200 562 l 1
 184 451 l 1
 83 451 l 1
 95 536 l 1
 151 686 l 1
 203 686 l 1
 159 562 l 1
301 562 m 1
 342 562 l 1
 326 451 l 1
 225 451 l 1
 237 536 l 1
 293 686 l 1
 345 686 l 1
 301 562 l 1
EndSplineSet
EndChar

StartChar: quotedblright
Encoding: 8221 8221 263
Width: 360
Flags: MW
HStem: 575 111<115 140 99 216 115 241 257 282>
VStem: 96 262<451 686>
LayerCount: 2
Fore
SplineSet
204 601 m 1
 148 451 l 1
 96 451 l 1
 140 575 l 1
 99 575 l 1
 115 686 l 1
 216 686 l 1
 204 601 l 1
346 601 m 1
 290 451 l 1
 238 451 l 1
 282 575 l 1
 241 575 l 1
 257 686 l 1
 358 686 l 1
 346 601 l 1
EndSplineSet
EndChar

StartChar: quoteleft
Encoding: 8216 8216 264
Width: 224
Flags: MW
HStem: 451 111<159 184 83 200> 666 20G<151 203 203 203>
VStem: 83 120
LayerCount: 2
Fore
SplineSet
159 562 m 1
 200 562 l 1
 184 451 l 1
 83 451 l 1
 95 536 l 1
 151 686 l 1
 203 686 l 1
 159 562 l 1
EndSplineSet
EndChar

StartChar: quoteright
Encoding: 8217 8217 265
Width: 218
Flags: MW
HStem: 575 111<115 140 99 216>
VStem: 96 120
LayerCount: 2
Fore
SplineSet
204 601 m 1
 148 451 l 1
 96 451 l 1
 140 575 l 1
 99 575 l 1
 115 686 l 1
 216 686 l 1
 204 601 l 1
EndSplineSet
EndChar

StartChar: quotesinglbase
Encoding: 8218 8218 266
Width: 237
Flags: MW
HStem: 0 111<43 68 27 144>
VStem: 24 120
LayerCount: 2
Fore
SplineSet
132 26 m 1
 76 -124 l 1
 24 -124 l 1
 68 0 l 1
 27 0 l 1
 43 111 l 1
 144 111 l 1
 132 26 l 1
EndSplineSet
EndChar

StartChar: cent
Encoding: 162 162 269
Width: 527
Flags: MW
HStem: 78 75<272 272> 534 74<296 296 296 345.5> 534 159<296 345.5>
VStem: 50 93<236 335.5 236 363.5> 218 54<-7 79> 296 54<608 693> 416 94<428.5 456.5>
LayerCount: 2
Fore
SplineSet
371 693 m 1xb6
 350 608 l 1xd6
 449 597 510 534 510 434 c 0
 510 423 509 411 507 398 c 1
 414 398 l 1
 415 407 416 416 416 425 c 0
 416 488 382 534 309 534 c 0
 176 534 143 391 143 280 c 0
 143 192 188 153 260 153 c 0
 345 153 391 209 402 288 c 1
 492 288 l 1
 473 159 393 86 272 78 c 1
 272 -7 l 1
 199 -7 l 1
 218 79 l 1xbe
 117 88 50 158 50 279 c 0
 50 448 125 595 296 608 c 1
 296 693 l 1
 371 693 l 1xb6
EndSplineSet
EndChar

StartChar: currency
Encoding: 164 164 270
Width: 624
Flags: MW
HStem: 89 69<256 312> 516 69<325 381.5 325 389.5>
VStem: 68 70<279.5 345.5> 500 69<335 390 335 405.5>
LayerCount: 2
Fore
SplineSet
600 539 m 1
 538 485 l 1
 559 450 569 411 569 369 c 0
 569 301 539 238 495 187 c 1
 542 133 l 1
 487 85 l 1
 440 139 l 1
 393 108 340 89 284 89 c 0
 228 89 179 107 142 138 c 1
 81 85 l 1
 40 133 l 1
 100 186 l 1
 79 219 68 258 68 301 c 0
 68 390 109 452 142 487 c 1
 98 539 l 1
 153 587 l 1
 196 535 l 1
 243 566 297 585 353 585 c 0
 410 585 460 565 497 533 c 1
 559 587 l 1
 600 539 l 1
344 516 m 0
 246 516 138 428 138 311 c 0
 138 226 202 158 293 158 c 0
 400 158 500 253 500 362 c 0
 500 449 435 516 344 516 c 0
EndSplineSet
EndChar

StartChar: dollar
Encoding: 36 36 271
Width: 546
Flags: MW
HStem: 19 86<256 292.5 203 316> 586 85<276.5 298 244.5 349 244.5 351>
VStem: 17 96<162 184.5> 73 97<431.5 526 431.5 543> 206 50<-66 20> 298 51<671 760> 408 97<178 284> 433 95<519.5 534.5>
LayerCount: 2
Fore
SplineSet
373 760 m 1xd5
 349 671 l 1
 451 666 528 621 528 524 c 0
 528 515 528 506 525 483 c 1
 430 483 l 1
 430 491 433 502 433 509 c 0xd5
 433 560 385 586 317 586 c 0
 236 586 170 558 170 494 c 0xd6
 170 369 505 435 505 243 c 0
 505 74 376 19 256 19 c 1
 256 -66 l 1
 183 -66 l 1
 206 20 l 1
 99 25 17 71 17 177 c 0
 17 192 19 214 23 227 c 1
 118 227 l 1
 114 223 113 199 113 192 c 0xee
 113 132 165 105 241 105 c 0
 344 105 408 142 408 214 c 0xd6
 408 354 73 274 73 471 c 0
 73 615 191 671 298 671 c 1
 298 760 l 1
 373 760 l 1xd5
EndSplineSet
EndChar

StartChar: euro
Encoding: 8364 8364 272
Width: 562
Flags: MW
HStem: -8 88<370 405.5> 238 65<32 122 32 123 23 122 223 419 223 223> 377 64<51 132 42 150 249 438> 604 89<436 504> 665 20G<581 581>
VStem: 23 558<238 685> 122 96<303 314.5>
LayerCount: 2
Fore
SplineSet
494 693 m 0xf4
 525 693 554 689 581 685 c 1xec
 568 594 l 1
 545 601 518 604 490 604 c 0
 382 604 278 537 249 441 c 1
 447 441 l 1
 438 377 l 1
 228 377 l 1
 221 352 218 326 218 303 c 1
 428 303 l 1
 419 238 l 1
 223 238 l 1
 242 139 316 80 424 80 c 0
 451 80 474 86 497 93 c 1
 485 2 l 1
 454 -5 422 -8 389 -8 c 0
 248 -8 136 82 123 238 c 1
 23 238 l 1
 32 303 l 1
 122 303 l 1
 125 326 128 352 132 377 c 1
 42 377 l 1
 51 441 l 1
 150 441 l 1xf2
 190 587 326 693 494 693 c 0xf4
EndSplineSet
EndChar

StartChar: florin
Encoding: 402 402 273
Width: 340
Flags: MW
HStem: -184 74<-10 2 -18.5 40.5> 436 75<75 125 66 134 227 338> 654 74<290.5 304 252 312.5> 708 20G<252 304>
VStem: -80 454
LayerCount: 2
Fore
SplineSet
290 728 m 0xe8
 318 728 354 721 374 709 c 1xd8
 365 640 l 1
 350 647 320 654 305 654 c 0
 276 654 248 648 239 590 c 2
 227 511 l 1
 347 511 l 1
 338 436 l 1
 218 436 l 1
 147 -58 l 2
 134 -147 77 -184 4 -184 c 0
 -24 -184 -61 -177 -80 -165 c 1
 -72 -96 l 1
 -57 -103 -26 -110 -11 -110 c 0
 15 -110 45 -104 54 -46 c 2
 125 436 l 1
 66 436 l 1
 75 511 l 1
 134 511 l 1
 147 602 l 2
 160 691 214 728 290 728 c 0xe8
EndSplineSet
EndChar

StartChar: sterling
Encoding: 163 163 274
Width: 597
Flags: MW
HStem: 0 89<37 127 208 499 26 127> 293 89<42 156 30 168 266 441 42 254> 607 89<415 424 424 434>
VStem: 499 99<530.5 546>
LayerCount: 2
Fore
SplineSet
415 696 m 2
 424 696 l 2
 527 696 598 641 598 536 c 0
 598 525 597 513 593 490 c 1
 495 490 l 1
 499 510 499 515 499 520 c 0
 499 572 460 607 408 607 c 0
 335 607 293 568 284 505 c 2
 266 382 l 1
 453 382 l 1
 441 293 l 1
 254 293 l 1
 208 89 l 1
 511 89 l 1
 499 0 l 1
 26 0 l 1
 37 89 l 1
 127 89 l 1
 156 293 l 1
 30 293 l 1
 42 382 l 1
 168 382 l 1
 185 499 l 2
 204 631 288 696 415 696 c 2
EndSplineSet
EndChar

StartChar: yen
Encoding: 165 165 275
Width: 635
Flags: MW
HStem: 239 64<59 246 59 259 50 246 388 568> 376 64<78 186 78 214 69 186 485 587> 666 20G<81 192 192 192 560 661 661 661>
VStem: 50 611<239 686>
LayerCount: 2
Fore
SplineSet
485 440 m 1
 596 440 l 1
 587 376 l 1
 439 376 l 1
 388 303 l 1
 577 303 l 1
 568 239 l 1
 357 239 l 1
 323 0 l 1
 225 0 l 1
 259 239 l 1
 50 239 l 1
 59 303 l 1
 246 303 l 1
 214 376 l 1
 69 376 l 1
 78 440 l 1
 186 440 l 1
 81 686 l 1
 192 686 l 1
 330 367 l 1
 334 367 l 1
 560 686 l 1
 661 686 l 1
 485 440 l 1
EndSplineSet
EndChar

StartChar: Ohm
Encoding: 8486 8486 276
Width: 699
Flags: MW
HStem: 0 90<16 51 16 268 4 51 591 614> 608 87<398 415 415 440.5>
VStem: 68 96<223 225 161.5 421.5> 548 104<436.5 508>
LayerCount: 2
Fore
SplineSet
398 695 m 2
 415 695 l 2
 549 695 652 623 652 447 c 0
 652 277 590 145 506 80 c 1
 539 84 564 86 591 90 c 1
 626 90 l 1
 614 0 l 1
 350 0 l 1
 357 49 l 1
 453 66 507 134 531 297 c 0
 546 400 548 426 548 447 c 0
 548 569 487 608 394 608 c 0
 279 608 206 546 182 375 c 0
 166 266 164 237 164 213 c 0
 164 110 200 64 275 49 c 1
 268 0 l 1
 4 0 l 1
 16 90 l 1
 51 90 l 1
 78 86 102 84 135 80 c 1
 92 121 68 179 68 267 c 0
 68 576 231 695 398 695 c 2
EndSplineSet
EndChar

StartChar: approxequal
Encoding: 8776 8776 277
Width: 615
Flags: MW
HStem: 73 85<363 432.5> 139 85<139 210> 282 85<393 462.5> 348 85<169 240>
VStem: -7 617<61 445>
LayerCount: 2
Fore
SplineSet
610 445 m 1x68
 599 360 l 1
 565 326 500 282 425 282 c 0xa8
 339 282 284 348 196 348 c 0
 118 348 56 302 22 270 c 1
 34 355 l 1
 68 387 130 433 208 433 c 0x58
 294 433 349 367 437 367 c 0
 513 367 573 410 610 445 c 1x68
581 236 m 1
 569 151 l 1
 535 117 470 73 395 73 c 0x98
 309 73 254 139 166 139 c 0
 87 139 30 94 -7 61 c 1
 4 146 l 1
 38 178 100 224 178 224 c 0x58
 264 224 319 158 407 158 c 0
 482 158 547 202 581 236 c 1
EndSplineSet
EndChar

StartChar: asciitilde
Encoding: 126 126 278
Width: 691
Flags: MW
HStem: 223 85<424 493.5> 289 85<200 271>
VStem: 53 589<211 386>
LayerCount: 2
Fore
SplineSet
642 386 m 1xa0
 630 301 l 1
 596 267 531 223 456 223 c 0xa0
 370 223 315 289 227 289 c 0
 149 289 87 243 53 211 c 1
 65 296 l 1
 99 328 161 374 239 374 c 0x60
 325 374 380 308 468 308 c 0
 543 308 608 352 642 386 c 1xa0
EndSplineSet
EndChar

StartChar: bulletoperator
Encoding: 8729 8729 279
Width: 238
Flags: MW
HStem: 232 112<75 161 60 176>
VStem: 60 116<232 344>
LayerCount: 2
Fore
SplineSet
161 232 m 1
 60 232 l 1
 75 344 l 1
 176 344 l 1
 161 232 l 1
EndSplineSet
EndChar

StartChar: divide
Encoding: 247 247 280
Width: 615
Flags: MW
HStem: 51 90<245 316 233 328> 213 84<52 553 41 564> 369 91<290 360 277 373>
VStem: 41 523<213 297>
LayerCount: 2
Fore
SplineSet
360 369 m 1
 277 369 l 1
 290 460 l 1
 373 460 l 1
 360 369 l 1
553 213 m 1
 41 213 l 1
 52 297 l 1
 564 297 l 1
 553 213 l 1
316 51 m 1
 233 51 l 1
 245 141 l 1
 328 141 l 1
 316 51 l 1
EndSplineSet
EndChar

StartChar: divisionslash
Encoding: 8725 8725 281
Width: 479
Flags: MW
HStem: 666 20G<478 534 534 534>
VStem: -36 570
LayerCount: 2
Fore
SplineSet
22 0 m 1
 -36 0 l 1
 478 686 l 1
 534 686 l 1
 22 0 l 1
EndSplineSet
EndChar

StartChar: equal
Encoding: 61 61 282
Width: 615
Flags: MW
HStem: 106 83<41 534 30 545> 318 84<71 563 59 575>
VStem: 30 545<106 402>
LayerCount: 2
Fore
SplineSet
563 318 m 1
 59 318 l 1
 71 402 l 1
 575 402 l 1
 563 318 l 1
534 106 m 1
 30 106 l 1
 41 189 l 1
 545 189 l 1
 534 106 l 1
EndSplineSet
EndChar

StartChar: greater
Encoding: 62 62 283
Width: 615
Flags: MW
HStem: 4 500<21 92>
VStem: 21 552<4 307>
LayerCount: 2
Fore
SplineSet
573 307 m 1
 558 200 l 1
 21 4 l 1
 34 94 l 1
 486 254 l 1
 349 307 214 359 79 414 c 1
 92 504 l 1
 573 307 l 1
EndSplineSet
EndChar

StartChar: greaterequal
Encoding: 8805 8805 284
Width: 615
Flags: MW
HStem: 0 83<28 526 16 538> 500 20G<89 89>
VStem: 16 560<0 365>
LayerCount: 2
Fore
SplineSet
76 430 m 1
 89 520 l 1
 253 469 413 417 576 365 c 1
 561 258 l 1
 382 207 210 156 31 104 c 1
 43 194 l 1
 488 312 l 1
 349 351 213 390 76 430 c 1
526 0 m 1
 16 0 l 1
 28 83 l 1
 538 83 l 1
 526 0 l 1
EndSplineSet
EndChar

StartChar: increment
Encoding: 8710 8710 285
Width: 624
Flags: MW
HStem: 0 75<85 481 85 558> 597 89<356 356> 666 20G<317 420 420 420>
VStem: -14 581<0 65>
LayerCount: 2
Fore
SplineSet
567 65 m 1xb0
 558 0 l 1
 -14 0 l 1
 -5 65 l 1
 317 686 l 1
 420 686 l 1
 567 65 l 1xb0
85 75 m 1
 481 75 l 1
 356 597 l 1xd0
 85 75 l 1
EndSplineSet
EndChar

StartChar: infinity
Encoding: 8734 8734 286
Width: 766
Flags: MW
HStem: 113 63<158.5 210.5 529.5 590.5> 386 62<179.5 242.5 551.5 606.5>
VStem: 35 63<238 296.5 238 310> 664 65<273 325.5>
LayerCount: 2
Fore
SplineSet
595 448 m 0
 678 448 729 391 729 311 c 0
 729 211 655 113 543 113 c 0
 483 113 433 142 374 229 c 1
 313 168 252 113 169 113 c 0
 92 113 35 170 35 254 c 0
 35 366 111 448 224 448 c 0
 301 448 351 397 394 333 c 1
 453 386 508 448 595 448 c 0
210 386 m 0
 149 386 98 331 98 262 c 0
 98 214 131 176 186 176 c 0
 251 176 302 231 349 276 c 1
 320 332 275 386 210 386 c 0
581 386 m 0
 518 386 455 316 418 282 c 1
 471 206 504 176 555 176 c 0
 626 176 664 247 664 299 c 0
 664 352 632 386 581 386 c 0
EndSplineSet
EndChar

StartChar: integral
Encoding: 8747 8747 287
Width: 266
Flags: MW
HStem: -250 50<-43 -30 -43 -18> 701 49<286 299>
VStem: -50 356
LayerCount: 2
Fore
SplineSet
306 750 m 1
 299 701 l 1
 273 701 208 687 204 644 c 0
 175 338 142 5 122 -138 c 0
 108 -234 14 -250 -50 -250 c 1
 -43 -200 l 1
 -17 -200 45 -186 49 -142 c 0
 78 164 111 493 132 638 c 0
 145 731 239 750 306 750 c 1
EndSplineSet
EndChar

StartChar: less
Encoding: 60 60 288
Width: 615
Flags: MW
HStem: 4 500<512 583>
VStem: 31 552<200 504>
LayerCount: 2
Fore
SplineSet
570 414 m 1
 120 254 l 1
 525 94 l 1
 512 4 l 1
 31 200 l 1
 46 307 l 1
 583 504 l 1
 570 414 l 1
EndSplineSet
EndChar

StartChar: lessequal
Encoding: 8804 8804 289
Width: 615
Flags: MW
HStem: 0 83<22 520 10 532> 500 20G<593 593>
VStem: 10 583<0 520>
LayerCount: 2
Fore
SplineSet
580 430 m 1
 135 312 l 1
 272 272 410 233 547 194 c 1
 535 104 l 1
 371 156 211 207 47 258 c 1
 62 365 l 1
 241 417 414 469 593 520 c 1
 580 430 l 1
520 0 m 1
 10 0 l 1
 22 83 l 1
 532 83 l 1
 520 0 l 1
EndSplineSet
EndChar

StartChar: logicalnot
Encoding: 172 172 290
Width: 615
Flags: MW
HStem: 360 93<57 479 44 576>
VStem: 44 532<360 453>
LayerCount: 2
Fore
SplineSet
537 174 m 1
 453 174 l 1
 479 360 l 1
 44 360 l 1
 57 453 l 1
 576 453 l 1
 537 174 l 1
EndSplineSet
EndChar

StartChar: micro
Encoding: 181 181 291
Width: 613
Flags: MW
HStem: -10 75<224 257.5> 491 20G<113 207 207 207 451 545 545 545>
VStem: 18 539<-161 79> 395 91<64 92 74 92>
LayerCount: 2
Fore
SplineSet
545 511 m 1xe0
 515 304 l 2
 500 200 485 95 486 92 c 0
 486 73 497 65 510 65 c 0
 525 65 546 72 557 79 c 1
 548 10 l 1
 535 2 507 -10 471 -10 c 0
 412 -10 395 24 395 64 c 2
 395 74 l 1xd0
 358 32 294 -10 221 -10 c 0
 185 -10 155 -4 130 9 c 1
 130 -32 l 1
 112 -161 l 1
 18 -161 l 1
 113 511 l 1
 207 511 l 1
 183 346 l 2
 170 261 158 172 159 155 c 0
 159 90 196 65 252 65 c 0
 322 65 395 127 408 207 c 2
 451 511 l 1
 545 511 l 1xe0
EndSplineSet
EndChar

StartChar: minus
Encoding: 8722 8722 292
Width: 615
Flags: MW
HStem: 221 91<54 553 41 566>
VStem: 41 525<221 312>
LayerCount: 2
Fore
SplineSet
553 221 m 1
 41 221 l 1
 54 312 l 1
 566 312 l 1
 553 221 l 1
EndSplineSet
EndChar

StartChar: multiply
Encoding: 215 215 293
Width: 615
Flags: MW
HStem: 45 421<119 178>
VStem: 72 460<104 407>
LayerCount: 2
Fore
SplineSet
311 314 m 1
 485 466 l 1
 501 446 517 427 532 407 c 1
 357 255 l 1
 489 104 l 1
 466 84 447 65 426 45 c 1
 382 96 337 144 294 195 c 1
 119 45 l 1
 104 65 88 84 72 104 c 1
 246 255 l 1
 115 407 l 1
 138 427 157 446 178 466 c 1
 311 314 l 1
EndSplineSet
EndChar

StartChar: notequal
Encoding: 8800 8800 294
Width: 615
Flags: MW
HStem: 105 84<41 141 29 206 287 532 41 223> 318 83<71 315 59 380 461 562 71 396> 318 193<59 552 473 552 473 562 396 552>
VStem: 29 545<105 401>
LayerCount: 2
Fore
SplineSet
461 401 m 1xd0
 574 401 l 1
 562 318 l 1
 396 318 l 1
 360 275 324 232 287 189 c 1
 544 189 l 1
 532 105 l 1
 223 105 l 1
 135 0 l 1
 53 0 l 1
 82 35 110 70 141 105 c 1
 29 105 l 1
 41 189 l 1
 206 189 l 1
 315 318 l 1
 59 318 l 1
 71 401 l 1
 380 401 l 1xd0
 412 438 442 474 473 511 c 1
 552 511 l 1xb0
 461 401 l 1xd0
EndSplineSet
EndChar

StartChar: partialdiff
Encoding: 8706 8706 295
Width: 568
Flags: MW
HStem: -10 82<197 219 219 227> 358 73<223.5 296 200 312> 610 86<230 316 218 333>
VStem: 16 94<151.5 231 151.5 256.5> 433 97<486 559 495 524.5>
LayerCount: 2
Fore
SplineSet
230 696 m 1
 333 696 l 2
 449 696 530 617 530 501 c 0
 530 489 529 477 527 464 c 2
 492 221 l 2
 472 82 375 -10 227 -10 c 2
 219 -10 l 2
 99 -10 16 64 16 181 c 0
 16 332 134 431 266 431 c 0
 326 431 384 405 415 357 c 1
 432 477 l 2
 433 480 433 483 433 486 c 2
 433 494 l 2
 433 555 385 610 316 610 c 2
 218 610 l 1
 230 696 l 1
274 358 m 0
 173 358 110 277 110 185 c 0
 110 118 159 72 235 72 c 0
 335 72 398 152 398 245 c 0
 398 312 350 358 274 358 c 0
EndSplineSet
EndChar

StartChar: percent
Encoding: 37 37 296
Width: 700
Flags: MW
HStem: -1 55<493.5 500 500 507> 293 55<549 556 556 562.5> 336 55<151.5 158 158 165> 630 55<207 214 214 220.5>
VStem: 52 64<426 437> 256 63<582 594> 394 64<89 100> 598 63<245 257>
LayerCount: 2
Fore
SplineSet
136 0 m 1xdf
 66 0 l 1
 581 686 l 1
 649 686 l 1
 136 0 l 1xdf
207 685 m 2
 214 685 l 2
 281 685 319 641 319 582 c 0
 318 577 320 569 303 457 c 0
 293 390 249 336 165 336 c 2
 158 336 l 2xbf
 91 336 52 380 52 437 c 0
 51 448 54 450 69 564 c 0
 78 631 123 685 207 685 c 2
203 630 m 0
 162 630 139 604 134 571 c 0
 115 446 116 445 116 440 c 0
 116 412 134 391 169 391 c 0
 207 391 233 417 238 450 c 0
 254 573 256 569 256 580 c 0
 256 608 238 630 203 630 c 0
549 348 m 2xdf
 556 348 l 2
 623 348 661 304 661 245 c 0
 660 240 662 232 645 120 c 0
 635 53 591 -1 507 -1 c 2
 500 -1 l 2
 433 -1 394 43 394 100 c 0
 393 111 396 113 411 227 c 0
 420 294 465 348 549 348 c 2xdf
545 293 m 0
 504 293 481 267 476 234 c 0
 457 109 458 108 458 103 c 0
 458 75 476 54 511 54 c 0
 549 54 575 80 580 113 c 0
 596 236 598 232 598 243 c 0
 598 271 580 293 545 293 c 0
EndSplineSet
EndChar

StartChar: perthousand
Encoding: 8240 8240 297
Width: 1034
Flags: MW
HStem: -1 55<496.5 503 503 510 829.5 836 836 843> 293 55<552 559 559 565.5 885 892 892 898.5> 337 55<154.5 161 161 168> 631 55<210 217 217 223.5>
VStem: 55 64<427 438> 259 63<583 595> 397 64<89 100> 601 63<245 257> 730 64<89 100> 934 63<245 257>
LayerCount: 2
Fore
SplineSet
210 686 m 2xdfc0
 217 686 l 2
 284 686 322 642 322 583 c 0
 321 578 323 570 306 458 c 0
 296 391 252 337 168 337 c 2
 161 337 l 2x3c
 94 337 55 381 55 438 c 0
 54 449 57 451 72 565 c 0
 81 632 126 686 210 686 c 2xdfc0
139 0 m 1
 69 0 l 1
 584 686 l 1
 652 686 l 1
 139 0 l 1
206 631 m 0
 165 631 142 605 137 572 c 0
 118 447 119 446 119 441 c 0
 119 413 137 392 172 392 c 0
 210 392 236 418 241 451 c 0
 257 574 259 570 259 581 c 0
 259 609 241 631 206 631 c 0
552 348 m 2xc3c0
 559 348 l 2
 626 348 664 304 664 245 c 0
 663 240 665 232 648 120 c 0
 638 53 594 -1 510 -1 c 2
 503 -1 l 2
 436 -1 397 43 397 100 c 0
 396 111 399 113 414 227 c 0
 423 294 468 348 552 348 c 2xc3c0
885 348 m 2
 892 348 l 2
 959 348 997 304 997 245 c 0
 996 240 998 232 981 120 c 0
 971 53 927 -1 843 -1 c 2
 836 -1 l 2
 769 -1 730 43 730 100 c 0
 729 111 732 113 747 227 c 0
 756 294 801 348 885 348 c 2
548 293 m 0
 507 293 484 267 479 234 c 0
 460 109 461 108 461 103 c 0
 461 75 479 54 514 54 c 0
 552 54 578 80 583 113 c 0
 599 236 601 232 601 243 c 0
 601 271 583 293 548 293 c 0
881 293 m 0
 840 293 817 267 812 234 c 0
 793 109 794 108 794 103 c 0
 794 75 812 54 847 54 c 0
 885 54 911 80 916 113 c 0
 932 236 934 232 934 243 c 0
 934 271 916 293 881 293 c 0
EndSplineSet
EndChar

StartChar: plus
Encoding: 43 43 298
Width: 615
Flags: MW
HStem: 213 84<52 255 41 266 349 553 52 338> 491 20G<296 379 379 379>
VStem: 41 523<213 297>
LayerCount: 2
Fore
SplineSet
349 297 m 1
 564 297 l 1
 553 213 l 1
 338 213 l 1
 308 0 l 1
 225 0 l 1
 255 213 l 1
 41 213 l 1
 52 297 l 1
 266 297 l 1
 296 511 l 1
 379 511 l 1
 349 297 l 1
EndSplineSet
EndChar

StartChar: plusminus
Encoding: 177 177 299
Width: 615
Flags: MW
HStem: 0 83<27 519 16 530> 280 84<63 265 51 277 360 563 63 348> 491 20G<297 380 380 380>
VStem: 16 559<0 364>
LayerCount: 2
Fore
SplineSet
360 364 m 1
 575 364 l 1
 563 280 l 1
 348 280 l 1
 327 134 l 1
 244 134 l 1
 265 280 l 1
 51 280 l 1
 63 364 l 1
 277 364 l 1
 297 511 l 1
 380 511 l 1
 360 364 l 1
519 0 m 1
 16 0 l 1
 27 83 l 1
 530 83 l 1
 519 0 l 1
EndSplineSet
EndChar

StartChar: product
Encoding: 8719 8719 300
Width: 749
Flags: MW
HStem: 611 97<83 184 70 783 286 553 286 286 655 770 655 655>
VStem: 70 713<611 708>
LayerCount: 2
Fore
SplineSet
770 611 m 1
 655 611 l 1
 555 -98 l 1
 453 -98 l 1
 553 611 l 1
 286 611 l 1
 186 -98 l 1
 84 -98 l 1
 184 611 l 1
 70 611 l 1
 83 708 l 1
 783 708 l 1
 770 611 l 1
EndSplineSet
EndChar

StartChar: radical
Encoding: 8730 8730 301
Width: 565
Flags: MW
HStem: -148 961<180 647 180 647>
VStem: -20 667<323 813>
LayerCount: 2
Fore
SplineSet
270 -148 m 1
 180 -148 l 1
 144 0 108 145 73 293 c 1
 -8 263 l 1
 -20 323 l 1
 152 391 l 1
 181 251 221 112 241 -30 c 1
 353 251 459 532 567 813 c 1
 647 813 l 1
 270 -148 l 1
EndSplineSet
EndChar

StartChar: summation
Encoding: 8721 8721 302
Width: 605
Flags: MW
HStem: -98 102<127 520> 613 95<233 602 233 233>
VStem: -28 643
LayerCount: 2
Fore
SplineSet
602 613 m 1
 233 613 l 1
 232 609 l 1
 422 318 l 1
 127 8 l 1
 127 4 l 1
 534 4 l 1
 520 -98 l 1
 -28 -98 l 1
 -19 -35 l 1
 304 306 l 1
 88 642 l 1
 97 708 l 1
 615 708 l 1
 602 613 l 1
EndSplineSet
EndChar

StartChar: lozenge
Encoding: 9674 9674 303
Width: 489
Flags: MW
HStem: 0 74<214 214 214 254 151 214> 611 75 666 20G<248 351 351 351>
VStem: 36 432<343 343>
LayerCount: 2
Fore
SplineSet
468 343 m 1xb0
 254 0 l 1
 151 0 l 1
 36 343 l 1
 248 686 l 1
 351 686 l 1
 468 343 l 1xb0
289 611 m 1xd0
 232 520 175 432 119 343 c 1
 214 74 l 1
 270 165 326 252 386 343 c 1
 351 432 321 520 289 611 c 1xd0
EndSplineSet
EndChar

StartChar: bar
Encoding: 124 124 304
Width: 290
Flags: MW
HStem: 701 20G<102 182 182 182>
VStem: 102 80<-199 721>
LayerCount: 2
Fore
SplineSet
182 -199 m 1
 102 -199 l 1
 102 721 l 1
 182 721 l 1
 182 -199 l 1
EndSplineSet
EndChar

StartChar: brokenbar
Encoding: 166 166 305
Width: 269
Flags: MW
HStem: 0 266<87 138 49 176> 419 267<146 197 108 235>
VStem: 49 186
LayerCount: 2
Fore
SplineSet
197 419 m 1
 108 419 l 1
 146 686 l 1
 235 686 l 1
 197 419 l 1
138 0 m 1
 49 0 l 1
 87 266 l 1
 176 266 l 1
 138 0 l 1
EndSplineSet
EndChar

StartChar: at
Encoding: 64 64 306
Width: 887
Flags: MW
HStem: -153 55<273.5 384.5> 22 69<650 717.5 650 720.5> 251 69<486 558> 451 70<487 496 496 518> 642 55<388.5 598>
VStem: 27 60<78.5 305> 221 89<135 198.5 135 222.5> 270 87 543 85<73 123> 575 91<388.5 400> 806 60<344 477.5>
LayerCount: 2
Fore
SplineSet
517 697 m 0xfea0
 721 697 866 609 866 397 c 0
 866 249 810 22 631 22 c 0
 586 22 543 37 543 109 c 1
 537 106 l 1
 494 51 438 22 361 22 c 0
 286 22 221 43 221 146 c 0xfea0
 221 299 375 320 567 320 c 1
 574 369 575 377 575 384 c 0
 575 416 560 451 476 451 c 0
 374 451 361 388 358 375 c 2
 356 364 l 1
 270 364 l 1
 270 457 363 521 487 521 c 2
 496 521 l 2
 612 521 666 477 666 400 c 0
 666 377 649 272 638 197 c 2xfd60
 631 148 l 2
 629 134 628 125 628 121 c 0
 628 101 639 91 661 91 c 0
 774 91 806 300 806 388 c 0
 806 567 687 642 509 642 c 0
 268 642 87 477 87 168 c 0
 87 -11 177 -98 370 -98 c 0
 416 -98 502 -84 540 -66 c 1
 532 -126 l 1
 487 -142 406 -153 363 -153 c 0
 154 -153 27 -56 27 163 c 0
 27 447 178 697 517 697 c 0xfea0
555 233 m 2
 558 251 l 1
 414 251 310 236 310 161 c 0
 310 109 338 92 401 92 c 0
 471 92 540 144 555 233 c 2
EndSplineSet
EndChar

StartChar: ampersand
Encoding: 38 38 307
Width: 661
Flags: MW
HStem: 0 89<200 399 286 399 286 485> 306 89<263.5 444 321 430 540 636 321 528> 607 89<307.5 360> 669 20G<417 417>
VStem: 43 99<148.5 217.5> 103 97<470 536.5 470 560>
LayerCount: 2
Fore
SplineSet
356 696 m 0xe8
 379 696 398 693 417 689 c 1xd8
 405 598 l 1
 388 603 370 607 350 607 c 0
 265 607 200 573 200 500 c 0xe4
 200 440 246 395 321 395 c 2
 444 395 l 1
 492 538 l 1
 560 538 l 1
 540 395 l 1
 648 395 l 1
 636 306 l 1
 528 306 l 1
 485 0 l 1
 260 0 l 2
 140 0 43 51 43 163 c 0xe8
 43 272 110 330 193 354 c 1
 197 356 l 1
 142 383 103 423 103 494 c 0xe4
 103 626 209 696 356 696 c 0xe8
430 306 m 1
 316 306 l 2
 211 306 142 265 142 182 c 0
 142 115 205 89 286 89 c 2
 399 89 l 1
 430 306 l 1
EndSplineSet
EndChar

StartChar: paragraph
Encoding: 182 182 308
Width: 524
Flags: MW
HStem: 625 61<327 399 327 327 462 528 462 462>
VStem: 48 489<386.5 686>
LayerCount: 2
Fore
SplineSet
528 625 m 1
 462 625 l 1
 350 -169 l 1
 287 -169 l 1
 399 625 l 1
 327 625 l 1
 215 -169 l 1
 152 -169 l 1
 211 250 l 1
 115 261 48 338 48 435 c 0
 48 571 155 686 299 686 c 2
 537 686 l 1
 528 625 l 1
EndSplineSet
EndChar

StartChar: copyright
Encoding: 169 169 309
Width: 785
Flags: MW
HStem: -10 40<310.5 488 310.5 497.5> 129 58<378 401 401 406> 499 57<400 405 405 428> 655 41<310.5 488>
VStem: 46 40<253.5 432.5 253.5 441.5> 231 67<300 386 386 401> 501 67<388 401 401 434.5> 713 41<253.5 432.5>
LayerCount: 2
Fore
SplineSet
400 696 m 0
 595 696 754 539 754 344 c 0
 754 147 595 -10 400 -10 c 0
 203 -10 46 147 46 344 c 0
 46 539 203 696 400 696 c 0
400 655 m 0
 221 655 86 521 86 344 c 0
 86 163 221 30 400 30 c 0
 576 30 713 163 713 344 c 0
 713 521 576 655 400 655 c 0
400 556 m 2
 405 556 l 2
 497 556 568 504 568 388 c 1
 501 388 l 1
 501 401 l 2
 501 468 453 499 403 499 c 0
 347 499 298 468 298 401 c 2
 298 286 l 2
 298 216 350 187 406 187 c 0
 461 187 503 225 503 296 c 1
 568 296 l 1
 568 184 497 129 406 129 c 2
 401 129 l 2
 308 129 231 184 231 300 c 2
 231 386 l 2
 231 501 308 556 400 556 c 2
EndSplineSet
EndChar

StartChar: registered
Encoding: 174 174 310
Width: 785
Flags: MW
HStem: -10 40<310.5 488.5 310.5 497.5> 319 54<320 419 320 431> 492 55<320 320 320 431> 656 40<310.5 488.5>
VStem: 46 40<253.5 433.5 253.5 441.5> 256 64<135 319 135 373 373 492> 486 64<209.5 252> 494 63<431 435 435 451> 714 40<253.5 433.5>
LayerCount: 2
Fore
SplineSet
400 696 m 0xfe80
 595 696 754 539 754 344 c 0
 754 147 595 -10 400 -10 c 0
 203 -10 46 147 46 344 c 0
 46 539 203 696 400 696 c 0xfe80
400 656 m 0
 221 656 86 523 86 344 c 0
 86 163 221 30 400 30 c 0
 577 30 714 163 714 344 c 0
 714 523 577 656 400 656 c 0
256 547 m 1
 443 547 l 2
 502 547 557 505 557 444 c 0xfd80
 557 397 525 360 490 347 c 1
 516 336 550 303 550 227 c 0
 550 192 550 167 581 156 c 1
 581 138 l 1
 574 135 559 132 546 132 c 0
 516 132 486 145 486 212 c 0
 486 292 448 319 419 319 c 2
 320 319 l 1
 320 135 l 1
 256 135 l 1
 256 547 l 1
320 492 m 1
 320 373 l 1
 431 373 l 2
 466 373 494 399 494 431 c 2
 494 435 l 2
 494 467 466 492 431 492 c 2
 320 492 l 1
EndSplineSet
EndChar

StartChar: section
Encoding: 167 167 311
Width: 516
Flags: MW
HStem: -186 75<162.5 180 180 189> 621 75<317 326 326 343.5>
VStem: 3 95<-64.5 -56.5> 33 98<238 299.5 238 301> 85 97<495 554 481.5 581.5> 324 96<-45.5 12.5 -66 28.5> 375 97<217 270> 408 95<566.5 574.5>
LayerCount: 2
Fore
SplineSet
317 696 m 2xe1
 326 696 l 2
 438 696 503 640 503 572 c 0
 503 561 501 546 498 539 c 1
 405 539 l 1
 407 548 408 554 408 558 c 0xd1
 408 591 383 621 304 621 c 0
 194 621 182 566 182 542 c 0
 182 421 472 421 472 260 c 0xca
 472 174 410 116 363 98 c 1
 398 71 420 37 420 -12 c 0
 420 -120 348 -186 189 -186 c 2
 180 -186 l 2
 68 -186 3 -130 3 -62 c 0
 3 -51 5 -36 8 -29 c 1
 101 -29 l 1
 98 -41 98 -45 98 -48 c 0xe4
 98 -81 123 -111 202 -111 c 0
 311 -111 324 -59 324 -32 c 0
 324 89 33 85 33 253 c 0xd4
 33 349 103 399 142 412 c 1
 107 439 85 471 85 519 c 0xc9
 85 644 181 696 317 696 c 2xe1
202 375 m 1
 173 359 131 325 131 274 c 0
 131 202 224 174 303 134 c 1
 339 154 375 187 375 234 c 0xd2
 375 306 282 335 202 375 c 1
EndSplineSet
EndChar

StartChar: trademark
Encoding: 8482 8482 312
Width: 898
Flags: MW
HStem: 626 60<100 217 92 414 282 406 282 282>
VStem: 92 787<626 686>
LayerCount: 2
Fore
SplineSet
406 626 m 1
 282 626 l 1
 235 288 l 1
 170 288 l 1
 217 626 l 1
 92 626 l 1
 100 686 l 1
 414 686 l 1
 406 626 l 1
824 288 m 1
 759 288 l 1
 774 393 788 498 801 603 c 1
 745 499 685 392 629 288 c 1
 567 288 l 1
 539 392 513 496 484 600 c 1
 441 288 l 1
 383 288 l 1
 438 686 l 1
 537 686 l 1
 564 586 589 485 616 385 c 1
 781 686 l 1
 879 686 l 1
 824 288 l 1
EndSplineSet
EndChar

StartChar: degree
Encoding: 176 176 313
Width: 404
Flags: MW
HStem: 396 55<207.5 258.5 207.5 268.5> 640 56<215.5 274>
VStem: 83 67<513.5 571.5 513.5 587> 324 67<520 569.5>
LayerCount: 2
Fore
SplineSet
245 696 m 0
 340 696 391 636 391 557 c 0
 391 453 310 396 227 396 c 0
 135 396 83 454 83 535 c 0
 83 639 165 696 245 696 c 0
240 640 m 0
 191 640 150 603 150 540 c 0
 150 487 181 451 234 451 c 0
 283 451 324 488 324 552 c 0
 324 587 308 640 240 640 c 0
EndSplineSet
EndChar

StartChar: estimated
Encoding: 8494 8494 314
Width: 760
Flags: MW
HStem: -10 75<336.5 417 336.5 433> 316 55<194 553 194 679 194 553> 621 75<336 413>
VStem: 71 123<150 367 371 470> 553 126<316 541>
LayerCount: 2
Fore
SplineSet
375 696 m 0
 557 696 679 573 679 368 c 2
 679 316 l 1
 194 316 l 1
 194 150 l 1
 234 94 298 65 375 65 c 0
 459 65 529 98 570 159 c 1
 636 120 l 1
 582 36 491 -10 375 -10 c 0
 193 -10 71 113 71 319 c 2
 71 367 l 2
 71 573 193 696 375 696 c 0
194 371 m 1
 553 371 l 1
 553 541 l 1
 513 594 451 621 375 621 c 0
 297 621 234 592 194 537 c 1
 194 371 l 1
EndSplineSet
EndChar

StartChar: literSign
Encoding: 8467 8467 315
Width: 451
Flags: MW
HStem: -10 73<236.5 254.5> 230 75<38 96 27 106> 614 82<303 348>
VStem: 84 95<114 134> 397 80<486 557>
LayerCount: 2
Fore
SplineSet
189 230 m 1
 183 185 l 2
 180 165 179 151 179 141 c 0
 179 87 208 63 265 63 c 0
 291 63 321 68 357 78 c 1
 347 8 l 1
 315 -4 274 -10 235 -10 c 0
 136 -10 84 39 84 127 c 0
 84 141 85 158 90 190 c 2
 96 230 l 1
 27 230 l 1
 38 305 l 1
 106 305 l 1
 120 406 l 1
 121 412 l 1
 126 449 l 1
 135 511 l 2
 152 635 224 696 326 696 c 0
 419 696 477 645 477 533 c 0
 477 414 412 235 189 230 c 1
214 406 m 1
 200 305 l 1
 361 310 397 448 397 524 c 0
 397 590 369 614 327 614 c 0
 279 614 240 584 229 511 c 2
 214 406 l 1
EndSplineSet
EndChar

StartChar: asciicircum
Encoding: 94 94 316
Width: 596
Flags: MW
HStem: 421 90 491 20G<280 383 383 383>
VStem: 12 497<0 0>
LayerCount: 2
Fore
SplineSet
509 0 m 1x60
 425 0 l 1
 389 141 355 280 320 421 c 1xa0
 244 280 172 141 96 0 c 1
 12 0 l 1
 280 511 l 1
 383 511 l 1
 509 0 l 1x60
EndSplineSet
EndChar

StartChar: dagger
Encoding: 8224 8224 317
Width: 511
Flags: MW
HStem: 490 20G<54 54 518 518> 666 20G<267 355 355 355>
VStem: 267 44<493 686>
LayerCount: 2
Fore
SplineSet
311 493 m 1
 518 510 l 1
 505 417 l 1
 302 435 l 1
 237 -170 l 1
 143 -170 l 1
 248 435 l 1
 41 417 l 1
 54 510 l 1
 267 493 l 1
 267 686 l 1
 355 686 l 1
 311 493 l 1
EndSplineSet
EndChar

StartChar: daggerdbl
Encoding: 8225 8225 318
Width: 531
Flags: MW
HStem: -175 251<208 208 208 243 156 208> 18 75 490 20G<64 64 527 527> 666 20G<277 364 364 364>
VStem: 210 98 277 43<492 686>
LayerCount: 2
Fore
SplineSet
320 492 m 1x74
 527 510 l 1
 514 417 l 1
 312 434 l 1
 304 256 l 1
 289 196 276 136 261 76 c 1xb4
 332 81 400 86 469 93 c 1
 456 0 l 1
 253 18 l 1x74
 250 -46 247 -110 243 -175 c 1
 156 -175 l 1xb4
 200 18 l 1
 -7 0 l 1
 6 93 l 1x74
 74 86 140 81 208 76 c 1
 212 166 l 2
 216 263 236 344 259 434 c 1xb8
 51 417 l 1
 64 510 l 1
 277 492 l 1
 277 686 l 1
 364 686 l 1
 320 492 l 1x74
EndSplineSet
EndChar

StartChar: acute
Encoding: 180 180 319
Width: 333
Flags: MW
HStem: 575 145<56 261 56 261>
VStem: 56 205<575 716>
LayerCount: 2
Fore
SplineSet
261 716 m 1
 125 575 l 1
 56 575 l 1
 171 720 l 1
 261 720 l 1
 261 716 l 1
EndSplineSet
EndChar

StartChar: breve
Encoding: 728 728 320
Width: 520
Flags: MW
HStem: 613 62<228.5 290.5 228.5 304>
VStem: 74 386<701.5 737>
LayerCount: 2
Fore
SplineSet
392 737 m 1
 460 737 l 1
 452 681 358 613 250 613 c 0
 150 613 74 674 74 729 c 0
 74 732 74 735 75 737 c 2
 142 737 l 1
 149 701 197 675 260 675 c 0
 321 675 376 701 392 737 c 1
EndSplineSet
EndChar

StartChar: caron
Encoding: 711 711 321
Width: 536
Flags: MW
HStem: 575 145<101 294 101 216>
VStem: 101 349<720 720>
LayerCount: 2
Fore
SplineSet
294 575 m 1
 216 575 l 1
 101 720 l 1
 181 720 l 1
 263 631 l 1
 370 720 l 1
 450 720 l 1
 294 575 l 1
EndSplineSet
EndChar

StartChar: cedilla
Encoding: 184 184 322
Width: 350
Flags: MW
HStem: -197 51<135 170 132.5 174> -60 43<156 171 150 180>
VStem: 217 63<-113 -83.5>
LayerCount: 2
Fore
SplineSet
156 -17 m 1
 180 -17 l 2
 231 -17 280 -32 280 -90 c 0
 280 -176 197 -197 151 -197 c 0
 119 -197 84 -190 59 -175 c 1
 75 -126 l 1
 84 -131 111 -146 154 -146 c 0
 186 -146 217 -131 217 -95 c 0
 217 -72 198 -60 171 -60 c 2
 150 -60 l 1
 156 -17 l 1
EndSplineSet
EndChar

StartChar: circumflex
Encoding: 710 710 323
Width: 536
Flags: MW
HStem: 575 145<80 315 237 429 237 349> 664 56<268 268>
VStem: 80 349<575 575>
LayerCount: 2
Fore
SplineSet
429 575 m 1xa0
 349 575 l 1xa0
 268 664 l 1x60
 160 575 l 1
 80 575 l 1
 237 720 l 1
 315 720 l 1
 429 575 l 1xa0
EndSplineSet
EndChar

StartChar: dieresis
Encoding: 168 168 324
Width: 440
Flags: MW
HStem: 633 98<86 163 73 176 86 261 274 352>
VStem: 73 292<633 731>
LayerCount: 2
Fore
SplineSet
163 633 m 1
 73 633 l 1
 86 731 l 1
 176 731 l 1
 163 633 l 1
352 633 m 1
 261 633 l 1
 274 731 l 1
 365 731 l 1
 352 633 l 1
EndSplineSet
EndChar

StartChar: dotaccent
Encoding: 729 729 325
Width: 280
Flags: MW
HStem: 604 132<124.5 150.5>
VStem: 73 133<657.5 679.5>
LayerCount: 2
Fore
SplineSet
148 736 m 0
 183 736 206 710 206 677 c 0
 206 638 173 604 128 604 c 0
 97 604 73 627 73 658 c 0
 73 701 101 736 148 736 c 0
EndSplineSet
EndChar

StartChar: grave
Encoding: 96 96 326
Width: 333
Flags: MW
HStem: 575 145<78 241 78 171>
VStem: 76 165<575 717>
LayerCount: 2
Fore
SplineSet
241 575 m 1
 171 575 l 1
 76 717 l 1
 78 720 l 1
 167 720 l 1
 241 575 l 1
EndSplineSet
EndChar

StartChar: hungarumlaut
Encoding: 733 733 327
Width: 442
Flags: MW
HStem: 575 145<39 244 39 244 194 194 194 244 155 264>
VStem: 39 360<575 715>
LayerCount: 2
Fore
SplineSet
244 715 m 1
 109 575 l 1
 39 575 l 1
 155 720 l 1
 244 720 l 1
 244 715 l 1
399 715 m 1
 264 575 l 1
 194 575 l 1
 309 720 l 1
 399 720 l 1
 399 715 l 1
EndSplineSet
EndChar

StartChar: macron
Encoding: 175 175 328
Width: 460
Flags: MW
HStem: 662 74<75 382 64 393>
VStem: 64 329<662 736>
LayerCount: 2
Fore
SplineSet
382 662 m 1
 64 662 l 1
 75 736 l 1
 393 736 l 1
 382 662 l 1
EndSplineSet
EndChar

StartChar: ogonek
Encoding: 731 731 329
Width: 340
Flags: MW
HStem: -143 47<160.5 170.5> -20 20G<132 186 186 186>
VStem: 67 63<-76.5 -63.5>
LayerCount: 2
Fore
SplineSet
132 0 m 1
 186 0 l 1
 161 -11 130 -40 130 -65 c 0
 130 -88 151 -96 170 -96 c 0
 194 -96 216 -89 239 -82 c 1
 247 -119 l 1
 218 -135 187 -143 154 -143 c 0
 111 -143 67 -128 67 -83 c 0
 67 -44 100 -19 132 0 c 1
EndSplineSet
EndChar

StartChar: ring
Encoding: 730 730 330
Width: 340
Flags: MW
HStem: 545 41<148 179.5 148 189> 706 41<155 187>
VStem: 65 45<626.5 660.5 626.5 671> 225 45<632 665.5>
LayerCount: 2
Fore
SplineSet
174 747 m 0
 230 747 270 708 270 653 c 0
 270 593 217 545 161 545 c 0
 105 545 65 583 65 639 c 0
 65 703 119 747 174 747 c 0
171 706 m 0
 139 706 110 679 110 642 c 0
 110 611 132 586 164 586 c 0
 195 586 225 614 225 650 c 0
 225 681 203 706 171 706 c 0
EndSplineSet
EndChar

StartChar: tilde
Encoding: 732 732 331
Width: 364
Flags: MW
HStem: 613 69<254.5 296 254.5 303> 647 70<85 127>
VStem: -8 399<613 717>
LayerCount: 2
Fore
SplineSet
341 717 m 1xa0
 391 717 l 1xa0
 383 669 342 613 264 613 c 0
 200 613 154 647 100 647 c 0
 70 647 50 636 40 613 c 1
 -8 613 l 1x60
 0 658 40 717 118 717 c 0
 182 717 228 682 281 682 c 0
 311 682 331 694 341 717 c 1xa0
EndSplineSet
EndChar

StartChar: caron.alt
Encoding: 65537 -1 332
Width: 218
Flags: MW
HStem: 575 111<115 140 99 216>
VStem: 96 120
LayerCount: 2
Fore
SplineSet
204 601 m 1
 148 451 l 1
 96 451 l 1
 140 575 l 1
 99 575 l 1
 115 686 l 1
 216 686 l 1
 204 601 l 1
EndSplineSet
EndChar

StartChar: commaaccent
Encoding: 806 806 333
Width: 0
GlyphClass: 4
Flags: MW
HStem: -151 111<23 48 7 124>
VStem: 7 117<-151 -40>
AnchorPoint: "Bottom" 80 0 mark 0
LayerCount: 2
Fore
SplineSet
112 -125 m 1
 65 -250 l 1
 12 -250 l 1
 48 -151 l 1
 7 -151 l 1
 23 -40 l 1
 124 -40 l 1
 112 -125 l 1
EndSplineSet
EndChar

StartChar: firsttonechinese
Encoding: 713 713 334
Width: 460
Flags: MW
HStem: 662 74<75 382 64 393>
VStem: 64 329<662 736>
LayerCount: 2
Fore
SplineSet
382 662 m 1
 64 662 l 1
 75 736 l 1
 393 736 l 1
 382 662 l 1
EndSplineSet
EndChar
